<?xml version="1.0" encoding="iso-8859-1"?>
<!-- Generator: Adobe Illustrator 19.0.0, SVG Export Plug-In . SVG Version: 6.00 Build 0)  -->
<svg version="1.1" id="Layer_1" xmlns="http://www.w3.org/2000/svg" xmlns:xlink="http://www.w3.org/1999/xlink" x="0px" y="0px"
	 viewBox="0 0 512.001 512.001" style="enable-background:new 0 0 512.001 512.001;" xml:space="preserve">
<path style="fill:#507C5C;" d="M401.318,442.226c-28.356,0-56.712-10.794-78.299-32.381c-43.174-43.174-43.174-113.425,0-156.601
	c5.617-5.614,14.72-5.614,20.339,0c5.616,5.616,5.616,14.722,0,20.339c-31.961,31.961-31.961,83.964,0,115.923
	s83.964,31.958,115.923,0c31.961-31.961,31.961-83.964,0-115.923c-5.616-5.616-5.616-14.722,0-20.339
	c5.617-5.614,14.72-5.614,20.339,0c43.174,43.174,43.174,113.425,0,156.601C458.032,431.432,429.676,442.226,401.318,442.226z"/>
<path style="fill:#CFF09E;" d="M333.189,399.675c-37.627-37.627-37.627-98.633,0-136.261c16.859-16.859,38.411-26.138,60.45-27.891
	c0.477-4.639,0.755-9.336,0.755-14.102c0-75.978-61.593-137.572-137.572-137.572c-68.668,0-125.574,50.315-135.891,116.087
	c-59.503,3.966-106.55,53.456-106.55,113.965c0,61.955,49.323,112.355,110.838,114.163v0.086h3.382c0.01,0,0.019,0,0.029,0
	c0.01,0,0.019,0,0.029,0h250.638c4.09,0,8.111-0.285,12.065-0.781C370.121,425.174,349.467,415.953,333.189,399.675z"/>
<g>
	<path style="fill:#507C5C;" d="M128.629,442.533c-0.066,0-0.134,0-0.201-0.001h-3.208c-0.712,0-1.412-0.052-2.097-0.151
		c-32.92-1.389-63.652-15.133-86.697-38.812C12.936,379.433,0,347.586,0,313.899c0-63.701,46.978-117.501,108.847-127.081
		c7.269-31.127,24.318-59.387,48.751-80.476c27.549-23.777,62.788-36.874,99.224-36.874c83.787,0,151.952,68.165,151.952,151.953
		c0,5.046-0.272,10.14-0.831,15.573c-0.71,6.904-6.248,12.314-13.166,12.864c-19.4,1.542-37.662,9.967-51.421,23.724
		c-31.96,31.96-31.96,83.964,0.001,115.923c13.456,13.456,30.568,21.601,49.483,23.557c7.271,0.751,12.822,6.84,12.901,14.149
		c0.081,7.31-5.337,13.515-12.59,14.425c-4.724,0.591-9.385,0.892-13.854,0.892H128.829
		C128.761,442.533,128.695,442.533,128.629,442.533z M126.794,413.77h1.808c0.022-0.001,0.039,0,0.058,0h198.495
		c-1.409-1.27-2.787-2.578-4.133-3.924c-43.174-43.175-43.174-113.425-0.001-156.601c15.606-15.603,35.496-26.131,56.984-30.342
		c0.007-0.496,0.01-0.989,0.01-1.481c0-67.928-55.264-123.191-123.19-123.191c-61.062,0-112.238,43.712-121.684,103.936
		c-1.041,6.64-6.545,11.673-13.252,12.12c-52.221,3.48-93.126,47.235-93.126,99.614c0,54.359,42.556,98.192,96.88,99.79
		C126.03,413.701,126.414,413.727,126.794,413.77z"/>
	<path style="fill:#507C5C;" d="M450.361,345.925h-98.083c-7.941,0-14.381-6.44-14.381-14.381s6.44-14.381,14.381-14.381h98.083
		c7.941,0,14.381,6.44,14.381,14.381S458.302,345.925,450.361,345.925z"/>
	<path style="fill:#507C5C;" d="M401.32,394.968c-7.941,0-14.381-6.44-14.381-14.381v-98.083c0-7.941,6.44-14.381,14.381-14.381
		c7.941,0,14.381,6.44,14.381,14.381v98.083C415.701,388.529,409.262,394.968,401.32,394.968z"/>
</g>
<g>
</g>
<g>
</g>
<g>
</g>
<g>
</g>
<g>
</g>
<g>
</g>
<g>
</g>
<g>
</g>
<g>
</g>
<g>
</g>
<g>
</g>
<g>
</g>
<g>
</g>
<g>
</g>
<g>
</g>
</svg>
