<?xml version="1.0" encoding="iso-8859-1"?>
<!-- Generator: Adobe Illustrator 19.0.0, SVG Export Plug-In . SVG Version: 6.00 Build 0)  -->
<svg version="1.1" id="Layer_1" xmlns="http://www.w3.org/2000/svg" xmlns:xlink="http://www.w3.org/1999/xlink" x="0px" y="0px"
	 viewBox="0 0 512 512" style="enable-background:new 0 0 512 512;" xml:space="preserve">
<path style="fill:#507C5C;" d="M401.279,442.207c-28.356,0.003-56.703-10.79-78.291-32.378
	c-20.912-20.913-32.43-48.717-32.43-78.291c0-29.575,11.516-57.379,32.43-78.293c5.615-5.614,14.719-5.612,20.335,0
	c5.615,5.615,5.615,14.72,0,20.337c-15.481,15.481-24.006,36.063-24.006,57.957c0,21.893,8.526,42.475,24.006,57.956
	c31.958,31.958,83.955,31.958,115.912,0c15.481-15.481,24.006-36.063,24.006-57.956c0-21.894-8.525-42.477-24.006-57.957
	c-5.615-5.615-5.617-14.72,0-20.337c5.615-5.614,14.72-5.614,20.335,0c20.913,20.913,32.43,48.717,32.43,78.293
	c0,29.574-11.516,57.378-32.43,78.291C457.988,431.411,429.63,442.204,401.279,442.207z"/>
<path style="fill:#CFF09E;" d="M333.156,399.66c-37.623-37.624-37.623-98.623,0-136.247c16.857-16.857,38.407-26.136,60.443-27.889
	c0.477-4.639,0.755-9.335,0.755-14.1c0-75.97-61.587-137.558-137.558-137.558c-68.661,0-125.562,50.31-135.877,116.076
	c-59.497,3.966-106.539,53.451-106.539,113.953c0,61.949,49.318,112.344,110.827,114.152v0.086h3.382c0.01,0,0.019,0,0.029,0
	c0.01,0,0.019,0,0.029,0h250.613c4.089,0,8.11-0.285,12.064-0.781C370.083,425.156,349.432,415.936,333.156,399.66z"/>
<g>
	<path style="fill:#507C5C;" d="M128.617,442.513c-0.066,0-0.132,0-0.2-0.001h-3.209c-0.712,0-1.412-0.052-2.097-0.151
		c-32.916-1.389-63.644-15.131-86.689-38.808C12.936,379.42,0,347.577,0,313.893C0,250.2,46.973,196.404,108.837,186.825
		c7.267-31.124,24.315-59.381,48.746-80.468c27.546-23.775,62.782-36.87,99.214-36.87c83.778,0,151.938,68.158,151.938,151.938
		c0,5.051-0.272,10.145-0.831,15.573c-0.71,6.902-6.248,12.312-13.164,12.861c-19.401,1.541-37.659,9.966-51.415,23.722
		c-31.957,31.957-31.957,83.955,0,115.912c13.455,13.455,30.565,21.599,49.478,23.555c7.272,0.751,12.822,6.839,12.901,14.148
		c0.079,7.309-5.338,13.514-12.591,14.424c-4.725,0.591-9.385,0.892-13.853,0.892H128.817
		C128.751,442.513,128.683,442.513,128.617,442.513z M126.781,413.753h1.807c0.02,0,0.037,0,0.058,0h198.476
		c-1.409-1.27-2.788-2.578-4.134-3.924c-43.17-43.171-43.17-113.414,0-156.585c15.602-15.602,35.49-26.127,56.977-30.339
		c0.006-0.496,0.01-0.989,0.01-1.481c0-67.921-55.258-123.179-123.179-123.179c-61.056,0-112.226,43.707-121.672,103.925
		c-1.042,6.639-6.544,11.672-13.251,12.119c-52.213,3.48-93.115,47.23-93.115,99.604c0,54.354,42.551,98.182,96.872,99.78
		C126.019,413.684,126.401,413.71,126.781,413.753z"/>
	<path style="fill:#507C5C;" d="M366.606,380.59c-3.68,0-7.361-1.405-10.168-4.212c-5.615-5.615-5.615-14.72,0-20.337l69.349-69.349
		c5.615-5.614,14.72-5.614,20.337,0c5.615,5.615,5.615,14.72,0,20.337l-69.349,69.349
		C373.966,379.187,370.286,380.59,366.606,380.59z"/>
	<path style="fill:#507C5C;" d="M435.954,380.59c-3.68,0-7.361-1.405-10.168-4.212l-69.349-69.349
		c-5.615-5.615-5.615-14.72,0-20.337c5.615-5.614,14.72-5.614,20.337,0l69.349,69.349c5.615,5.615,5.615,14.72,0,20.337
		C443.314,379.187,439.633,380.59,435.954,380.59z"/>
</g>
<g>
</g>
<g>
</g>
<g>
</g>
<g>
</g>
<g>
</g>
<g>
</g>
<g>
</g>
<g>
</g>
<g>
</g>
<g>
</g>
<g>
</g>
<g>
</g>
<g>
</g>
<g>
</g>
<g>
</g>
</svg>
