<?xml version="1.0" encoding="iso-8859-1"?>
<!-- Generator: Adobe Illustrator 19.0.0, SVG Export Plug-In . SVG Version: 6.00 Build 0)  -->
<svg version="1.1" id="Layer_1" xmlns="http://www.w3.org/2000/svg" xmlns:xlink="http://www.w3.org/1999/xlink" x="0px" y="0px"
	 viewBox="0 0 512 512" style="enable-background:new 0 0 512 512;" xml:space="preserve">
<path style="fill:#507C5C;" d="M256,512c-4.874,0-9.446-2.37-12.256-6.352L134.452,350.722c-3.228-4.579-3.637-10.575-1.059-15.547
	c2.578-4.973,7.713-8.096,13.315-8.096h49.264V225.811c0-8.282,6.716-14.998,14.998-14.998h90.061
	c8.282,0,14.998,6.716,14.998,14.998v101.267h49.264c5.602,0,10.737,3.123,13.315,8.096c2.578,4.972,2.169,10.968-1.059,15.547
	l-32.68,46.327c-4.775,6.767-14.131,8.388-20.903,3.608c-6.769-4.775-8.385-14.133-3.61-20.901l16.003-22.683h-35.328
	c-8.282,0-14.998-6.716-14.998-14.998V240.808h-60.065v101.267c0,8.282-6.716,14.998-14.998,14.998h-35.328L256,470.984
	l22.035-31.236c4.774-6.766,14.133-8.385,20.901-3.609c6.769,4.774,8.384,14.133,3.61,20.901l-34.29,48.608
	C265.446,509.63,260.874,512,256,512z"/>
<path style="fill:#CFF09E;" d="M397.081,160.403c0.549-4.859,0.858-9.792,0.858-14.798c0-72.131-58.474-130.606-130.606-130.606
	c-65.191,0-119.217,47.768-129.01,110.209C81.831,128.97,37.166,175.955,37.166,233.4c0,58.817,46.825,106.667,105.227,108.384
	v0.081h3.211c0.009,0,0.018,0,0.027,0c0.009,0,0.018,0,0.027,0h65.313V225.811h90.059v30.608v85.446h82.575
	c50.385,0,91.229-40.845,91.229-91.229C474.836,204.829,441.076,166.918,397.081,160.403z"/>
<path style="fill:#507C5C;" d="M383.605,356.862H301.03c-8.282,0-14.998-6.716-14.998-14.998V240.808h-60.065v101.056
	c0,8.282-6.716,14.998-14.998,14.998h-68.576c-0.717,0-1.419-0.049-2.109-0.147c-31.575-1.348-61.047-14.537-83.153-37.252
	C34.586,296.3,22.168,265.734,22.168,233.4c0-60.834,44.64-112.261,103.58-121.835c7.079-29.478,23.325-56.223,46.507-76.231
	C198.653,12.549,232.42,0,267.332,0c80.287,0,145.604,65.317,145.604,145.604c0,0.966-0.01,1.936-0.031,2.913
	c19.593,5.623,37.31,16.847,50.864,32.421c16.807,19.314,26.063,44.065,26.063,69.697
	C489.834,309.209,442.18,356.862,383.605,356.862z M316.029,326.866h67.578c42.033,0,76.231-34.198,76.231-76.231
	c0-37.499-27.923-69.913-64.954-75.396c-7.994-1.185-13.614-8.49-12.706-16.522c0.507-4.481,0.763-8.895,0.763-13.114
	c0-63.746-51.861-115.607-115.608-115.607c-57.304,0-105.329,41.021-114.196,97.536c-1.086,6.925-6.826,12.174-13.819,12.64
	c-48.872,3.256-87.154,44.206-87.154,93.228c0,50.874,39.827,91.895,90.67,93.392c0.376,0.012,0.748,0.036,1.117,0.075h52.022
	V225.811c0-8.282,6.716-14.998,14.998-14.998h90.061c8.282,0,14.998,6.716,14.998,14.998L316.029,326.866L316.029,326.866z"/>
<g>
</g>
<g>
</g>
<g>
</g>
<g>
</g>
<g>
</g>
<g>
</g>
<g>
</g>
<g>
</g>
<g>
</g>
<g>
</g>
<g>
</g>
<g>
</g>
<g>
</g>
<g>
</g>
<g>
</g>
</svg>
