<?xml version="1.0" encoding="iso-8859-1"?>
<!-- Generator: Adobe Illustrator 19.0.0, SVG Export Plug-In . SVG Version: 6.00 Build 0)  -->
<svg version="1.1" id="Layer_1" xmlns="http://www.w3.org/2000/svg" xmlns:xlink="http://www.w3.org/1999/xlink" x="0px" y="0px"
	 viewBox="0 0 512.003 512.003" style="enable-background:new 0 0 512.003 512.003;" xml:space="preserve">
<path style="fill:#507C5C;" d="M424.361,369.843c-7.301,0-13.343-5.787-13.6-13.141c-0.261-7.516,5.618-13.821,13.134-14.083
	c34.133-1.191,60.872-28.888,60.872-63.056c0-31.048-23.119-57.884-53.778-62.424c-7.257-1.074-12.358-7.705-11.536-14.994
	c0.422-3.742,0.636-7.417,0.636-10.922c0-53.064-43.172-96.236-96.236-96.236c-26.914,0-52.789,11.408-70.991,31.299
	c-5.076,5.547-13.69,5.93-19.237,0.852c-5.547-5.078-5.93-13.69-0.852-19.237c23.347-25.514,56.546-40.146,91.082-40.146
	c68.082,0,123.469,55.387,123.469,123.469c0,0.565-0.004,1.133-0.012,1.703c16.372,4.85,31.165,14.308,42.522,27.359
	c14.296,16.427,22.169,37.479,22.169,59.279c0,23.574-9.028,45.883-25.422,62.815c-16.349,16.887-38.274,26.638-61.734,27.457
	C424.683,369.84,424.521,369.843,424.361,369.843z"/>
<path style="fill:#CFF09E;" d="M308.124,282.147c0.449-3.977,0.703-8.012,0.703-12.109c0-59.023-47.848-106.871-106.871-106.871
	c-53.345,0-97.551,39.087-105.566,90.181c-46.226,3.079-82.774,41.526-82.774,88.531c0,48.128,38.316,87.282,86.104,88.687v0.067
	h2.627c0.008,0,0.015,0,0.022,0c0.007,0,0.015,0,0.022,0h194.705c41.229,0,74.65-33.423,74.65-74.65
	C371.749,318.5,344.123,287.478,308.124,282.147z"/>
<path style="fill:#507C5C;" d="M102.37,444.249c-0.045,0-0.091,0-0.138,0h-2.512c-0.626,0-1.243-0.042-1.846-0.124
	c-26.156-1.133-50.57-12.065-68.884-30.883C10.295,394.032,0,368.689,0,341.879c0-50.139,36.567-92.571,85.005-100.874
	c5.965-24.051,19.317-45.857,38.271-62.216c21.845-18.855,49.787-29.238,78.678-29.238c66.437,0,120.487,54.05,120.487,120.488
	c0,0.459-0.003,0.92-0.008,1.382c15.889,4.762,30.241,13.97,41.274,26.649c13.966,16.048,21.657,36.616,21.657,57.912
	c0,48.67-39.596,88.267-88.267,88.267h-194.59C102.462,444.249,102.415,444.249,102.37,444.249z M101.063,417.015h1.284
	c0.015,0,0.03,0,0.045,0h194.705c33.654,0,61.034-27.38,61.034-61.034c0-30.023-22.357-55.974-52.002-60.365
	c-7.258-1.074-12.358-7.707-11.536-14.997c0.409-3.623,0.617-7.183,0.617-10.581c0-51.421-41.833-93.256-93.254-93.256
	c-46.223,0-84.963,33.088-92.113,78.675c-0.987,6.288-6.197,11.054-12.547,11.476c-39.287,2.618-70.063,35.537-70.063,74.946
	c0,40.898,32.016,73.875,72.888,75.076C100.437,416.965,100.751,416.985,101.063,417.015z"/>
<g>
</g>
<g>
</g>
<g>
</g>
<g>
</g>
<g>
</g>
<g>
</g>
<g>
</g>
<g>
</g>
<g>
</g>
<g>
</g>
<g>
</g>
<g>
</g>
<g>
</g>
<g>
</g>
<g>
</g>
</svg>
