<?xml version="1.0" encoding="iso-8859-1"?>
<!-- Generator: Adobe Illustrator 19.0.0, SVG Export Plug-In . SVG Version: 6.00 Build 0)  -->
<svg version="1.1" id="Layer_1" xmlns="http://www.w3.org/2000/svg" xmlns:xlink="http://www.w3.org/1999/xlink" x="0px" y="0px"
	 viewBox="0 0 512 512" style="enable-background:new 0 0 512 512;" xml:space="preserve">
<path style="fill:#507C5C;" d="M304.742,512h-97.485c-8.966,0-16.234-7.27-16.234-16.234V386.149h-53.325
	c-6.064,0-11.622-3.38-14.413-8.763c-2.791-5.382-2.349-11.872,1.148-16.829l118.302-167.702c3.042-4.31,7.989-6.875,13.265-6.875
	c5.276,0,10.224,2.565,13.265,6.875l118.302,167.702c3.495,4.956,3.938,11.447,1.148,16.829c-2.791,5.383-8.349,8.763-14.413,8.763
	h-53.325v11.088c0,8.965-7.268,16.234-16.234,16.234c-8.966,0-16.234-7.27-16.234-16.234v-27.323
	c0-8.965,7.268-16.234,16.234-16.234h38.24L256,230.376L169.018,353.68h38.24c8.966,0,16.234,7.27,16.234,16.234v109.617h65.016
	v-20.059c0-8.965,7.268-16.234,16.234-16.234c8.966,0,16.234,7.27,16.234,16.234v36.294C320.977,504.73,313.709,512,304.742,512z"/>
<path style="fill:#CFF09E;" d="M408.712,173.627c0.594-5.26,0.929-10.599,0.929-16.019c0-78.078-63.295-141.374-141.374-141.374
	c-70.566,0-129.046,51.707-139.647,119.297c-61.149,4.073-109.496,54.931-109.496,117.112c0,63.667,50.686,115.461,113.902,117.32
	v0.088h3.476c0.01,0,0.019,0,0.029,0s0.019,0,0.029,0h70.698v-0.136h-38.112h-31.448L256,202.215l118.302,167.7h-69.56v0.136h89.384
	c54.54,0,98.751-44.213,98.751-98.752C492.878,221.717,456.335,180.68,408.712,173.627z"/>
<path style="fill:#507C5C;" d="M394.126,386.285h-89.384c-8.966,0-16.234-7.27-16.234-16.234s7.268-16.371,16.234-16.371h38.24
	L256,230.378L169.018,353.68h38.239c8.966,0,16.234,7.27,16.234,16.234s-7.268,16.371-16.234,16.371h-74.23
	c-0.779,0-1.549-0.055-2.299-0.162c-34.172-1.463-66.069-15.738-89.994-40.32c-24.405-25.076-37.846-58.16-37.846-93.161
	c0-65.85,48.32-121.515,112.122-131.879c7.664-31.909,25.248-60.858,50.34-82.515C193.924,13.583,230.475,0,268.267,0
	c86.906,0,157.609,70.703,157.609,157.609c0,1.045-0.011,2.096-0.034,3.153c21.212,6.086,40.386,18.235,55.059,35.096
	c18.194,20.905,28.212,47.698,28.212,75.441C509.113,334.704,457.531,386.285,394.126,386.285z M382.814,353.817h11.312
	c45.5,0,82.518-37.018,82.518-82.518c0-40.591-30.227-75.677-70.31-81.612c-8.653-1.283-14.736-9.189-13.754-17.882
	c0.549-4.854,0.826-9.632,0.826-14.197c0-69.003-56.137-125.14-125.14-125.14c-62.029,0-114.013,44.403-123.609,105.579
	c-1.177,7.495-7.388,13.177-14.96,13.682c-52.902,3.524-94.342,47.851-94.342,100.913c0,53.687,40.977,97.239,94.03,100.891
	l113.347-160.677c3.042-4.31,7.989-6.875,13.265-6.875c5.276,0,10.224,2.565,13.265,6.875L382.814,353.817z"/>
<g>
</g>
<g>
</g>
<g>
</g>
<g>
</g>
<g>
</g>
<g>
</g>
<g>
</g>
<g>
</g>
<g>
</g>
<g>
</g>
<g>
</g>
<g>
</g>
<g>
</g>
<g>
</g>
<g>
</g>
</svg>
