<?xml version="1.0" encoding="iso-8859-1"?>
<!-- Generator: Adobe Illustrator 19.0.0, SVG Export Plug-In . SVG Version: 6.00 Build 0)  -->
<svg version="1.1" id="Layer_1" xmlns="http://www.w3.org/2000/svg" xmlns:xlink="http://www.w3.org/1999/xlink" x="0px" y="0px"
	 viewBox="0 0 512.001 512.001" style="enable-background:new 0 0 512.001 512.001;" xml:space="preserve">
<path style="fill:#507C5C;" d="M401.319,442.225c-28.356,0-56.712-10.794-78.299-32.381c-43.174-43.174-43.174-113.425,0-156.6
	c5.617-5.614,14.72-5.614,20.339,0c5.616,5.616,5.616,14.722,0,20.339c-31.961,31.961-31.961,83.963,0,115.923
	c31.961,31.96,83.963,31.96,115.923,0c31.961-31.961,31.961-83.963,0-115.923c-5.616-5.616-5.616-14.722,0-20.339
	c5.617-5.614,14.72-5.614,20.339,0c43.174,43.174,43.174,113.425,0,156.6C458.031,431.431,429.676,442.225,401.319,442.225z"/>
<path style="fill:#CFF09E;" d="M333.189,399.675c-37.627-37.627-37.627-98.633,0-136.26c16.859-16.859,38.411-26.138,60.449-27.891
	c0.477-4.639,0.755-9.336,0.755-14.102c0-75.978-61.593-137.572-137.572-137.572c-68.668,0-125.574,50.315-135.891,116.087
	c-59.503,3.965-106.55,53.456-106.55,113.963c0,61.955,49.323,112.355,110.838,114.163v0.086h3.382c0.01,0,0.019,0,0.029,0
	c0.01,0,0.019,0,0.029,0h250.637c4.09,0,8.111-0.285,12.065-0.781C370.12,425.174,349.466,415.953,333.189,399.675z"/>
<g>
	<path style="fill:#507C5C;" d="M128.63,442.531c-0.066,0-0.132,0-0.2-0.001h-3.21c-0.712,0-1.412-0.052-2.097-0.151
		c-32.919-1.389-63.651-15.133-86.697-38.812C12.937,379.432,0,347.587,0,313.9c0-63.701,46.978-117.501,108.848-127.081
		c7.268-31.127,24.318-59.387,48.751-80.476c27.549-23.777,62.788-36.874,99.224-36.874c83.786,0,151.953,68.165,151.953,151.953
		c0,5.046-0.272,10.14-0.831,15.573c-0.71,6.904-6.248,12.314-13.166,12.864c-19.4,1.542-37.662,9.967-51.421,23.724
		c-31.96,31.96-31.96,83.963,0.001,115.923c13.456,13.456,30.568,21.601,49.483,23.557c7.271,0.751,12.822,6.84,12.901,14.149
		c0.081,7.31-5.337,13.515-12.59,14.425c-4.724,0.591-9.385,0.892-13.854,0.892H128.83
		C128.764,442.531,128.696,442.531,128.63,442.531z M126.793,413.768h1.808c0.02,0,0.037,0,0.058,0h198.494
		c-1.409-1.27-2.787-2.578-4.133-3.924c-43.174-43.175-43.174-113.425-0.001-156.6c15.606-15.603,35.496-26.131,56.984-30.342
		c0.007-0.496,0.01-0.989,0.01-1.481c0-67.927-55.264-123.191-123.191-123.191c-61.062,0-112.237,43.712-121.684,103.935
		c-1.043,6.64-6.545,11.673-13.252,12.12c-52.218,3.48-93.124,47.235-93.124,99.615c0,54.359,42.555,98.192,96.882,99.789
		C126.031,413.699,126.414,413.727,126.793,413.768z"/>
	<path style="fill:#507C5C;" d="M450.36,345.924h-98.082c-7.941,0-14.381-6.44-14.381-14.381c0-7.941,6.44-14.381,14.381-14.381
		h98.082c7.941,0,14.381,6.44,14.381,14.381C464.741,339.485,458.302,345.924,450.36,345.924z"/>
</g>
<g>
</g>
<g>
</g>
<g>
</g>
<g>
</g>
<g>
</g>
<g>
</g>
<g>
</g>
<g>
</g>
<g>
</g>
<g>
</g>
<g>
</g>
<g>
</g>
<g>
</g>
<g>
</g>
<g>
</g>
</svg>
