<?xml version="1.0" encoding="iso-8859-1"?>
<!-- Generator: Adobe Illustrator 19.0.0, SVG Export Plug-In . SVG Version: 6.00 Build 0)  -->
<svg version="1.1" id="Layer_1" xmlns="http://www.w3.org/2000/svg" xmlns:xlink="http://www.w3.org/1999/xlink" x="0px" y="0px"
	 viewBox="0 0 512 512" style="enable-background:new 0 0 512 512;" xml:space="preserve">
<path style="fill:#CFF09E;" d="M411.886,236.079c0.606-5.37,0.949-10.82,0.949-16.352c0-79.702-64.611-144.313-144.313-144.313
	c-72.033,0-131.728,52.781-142.549,121.775C63.551,201.348,14.2,253.264,14.2,316.738c0,64.99,51.739,117.86,116.27,119.756v0.089
	h3.547c0.01,0,0.02,0,0.03,0s0.02,0,0.03,0h262.919c55.672,0,100.804-45.132,100.804-100.804
	C497.8,285.168,460.497,243.278,411.886,236.079z M128.205,376.024c-25.095,0-45.439-20.344-45.439-45.439
	s20.344-45.439,45.439-45.439s45.439,20.344,45.439,45.439S153.3,376.024,128.205,376.024z M256.001,376.024
	c-25.095,0-45.439-20.344-45.439-45.439s20.344-45.439,45.439-45.439s45.439,20.344,45.439,45.439S281.096,376.024,256.001,376.024z
	 M383.797,376.024c-25.095,0-45.439-20.344-45.439-45.439s20.344-45.439,45.439-45.439s45.439,20.344,45.439,45.439
	S408.891,376.024,383.797,376.024z"/>
<path style="fill:#507C5C;" d="M134.047,450.784c-0.062,0-0.126,0-0.19-0.001h-3.387c-0.716,0-1.419-0.053-2.106-0.155
	c-34.327-1.434-66.374-15.759-90.404-40.447C13.481,385.028,0,351.843,0,316.738c0-66.586,49.258-122.791,114.022-132.524
	c7.504-32.7,25.35-62.401,50.992-84.533c28.74-24.805,65.498-38.465,103.508-38.465c87.404,0,158.512,71.108,158.512,158.512
	c0,1.651-0.028,3.323-0.085,5.007c21.916,5.908,41.754,18.262,56.835,35.593C501.979,281.236,512,308.032,512,335.781
	c0,63.412-51.591,115.002-115.003,115.002h-262.76C134.173,450.784,134.11,450.784,134.047,450.784z M132.061,422.384h1.955
	c0.021,0.001,0.041,0.001,0.06,0h262.919c47.754,0,86.604-38.85,86.604-86.603c0-42.601-31.725-79.427-73.795-85.654
	c-7.568-1.122-12.889-8.037-12.03-15.639c0.569-5.051,0.859-10.016,0.859-14.76c0-71.745-58.369-130.113-130.113-130.113
	c-64.494,0-118.545,46.168-128.521,109.778c-1.029,6.556-6.462,11.526-13.085,11.967c-55.242,3.681-98.515,49.968-98.515,105.379
	c0,57.505,45.018,103.874,102.488,105.564C131.283,422.314,131.675,422.341,132.061,422.384z M383.797,390.223
	c-32.885,0-59.638-26.753-59.638-59.638s26.753-59.638,59.638-59.638s59.638,26.753,59.638,59.638S416.68,390.223,383.797,390.223z
	 M383.797,299.346c-17.225,0-31.239,14.014-31.239,31.239s14.013,31.239,31.239,31.239c17.225,0,31.239-14.014,31.239-31.239
	S401.021,299.346,383.797,299.346z M256.001,390.223c-32.885,0-59.638-26.753-59.638-59.638s26.753-59.638,59.638-59.638
	s59.638,26.753,59.638,59.638S288.884,390.223,256.001,390.223z M256.001,299.346c-17.225,0-31.239,14.014-31.239,31.239
	s14.014,31.239,31.239,31.239s31.239-14.014,31.239-31.239S273.225,299.346,256.001,299.346z M128.205,390.223
	c-32.885,0-59.638-26.753-59.638-59.638s26.753-59.638,59.638-59.638s59.638,26.753,59.638,59.638S161.088,390.223,128.205,390.223z
	 M128.205,299.346c-17.225,0-31.239,14.014-31.239,31.239s14.014,31.239,31.239,31.239s31.239-14.014,31.239-31.239
	S145.429,299.346,128.205,299.346z"/>
<g>
</g>
<g>
</g>
<g>
</g>
<g>
</g>
<g>
</g>
<g>
</g>
<g>
</g>
<g>
</g>
<g>
</g>
<g>
</g>
<g>
</g>
<g>
</g>
<g>
</g>
<g>
</g>
<g>
</g>
</svg>
