<?xml version="1.0" encoding="iso-8859-1"?>
<!-- Generator: Adobe Illustrator 19.0.0, SVG Export Plug-In . SVG Version: 6.00 Build 0)  -->
<svg version="1.1" id="Layer_1" xmlns="http://www.w3.org/2000/svg" xmlns:xlink="http://www.w3.org/1999/xlink" x="0px" y="0px"
	 viewBox="0 0 512 512" style="enable-background:new 0 0 512 512;" xml:space="preserve">
<polygon style="fill:#CFF09E;" points="255.999,376.073 338.603,247.639 290.034,247.639 290.034,163.234 290.034,96.437 
	290.034,16.28 221.964,16.28 221.964,247.639 173.395,247.639 "/>
<g>
	<path style="fill:#507C5C;" d="M255.999,392.352c-5.538,0-10.696-2.815-13.693-7.474l-82.604-128.434
		c-3.222-5.009-3.451-11.378-0.597-16.606c2.854-5.227,8.334-8.48,14.291-8.48h32.29V16.28c0-8.99,7.289-16.28,16.28-16.28h68.07
		c8.991,0,16.28,7.29,16.28,16.28v215.079h32.29c5.957,0,11.437,3.253,14.29,8.48c2.852,5.227,2.624,11.596-0.597,16.606
		l-82.604,128.434C266.695,389.536,261.538,392.352,255.999,392.352z M203.221,263.919l52.778,82.057l52.778-82.057h-18.743
		c-8.991,0-16.28-7.29-16.28-16.28V32.56h-35.51v215.079c0,8.99-7.289,16.28-16.28,16.28H203.221z"/>
	<path style="fill:#507C5C;" d="M492.209,512H19.789c-8.991,0-16.28-7.29-16.28-16.28V117.186c0-8.99,7.289-16.28,16.28-16.28h82.36
		c8.991,0,16.28,7.29,16.28,16.28s-7.289,16.28-16.28,16.28h-66.08V479.44h439.862V133.466h-66.08c-8.991,0-16.28-7.29-16.28-16.28
		s7.289-16.28,16.28-16.28h82.36c8.991,0,16.28,7.29,16.28,16.28V495.72C508.489,504.711,501.201,512,492.209,512z"/>
</g>
<g>
</g>
<g>
</g>
<g>
</g>
<g>
</g>
<g>
</g>
<g>
</g>
<g>
</g>
<g>
</g>
<g>
</g>
<g>
</g>
<g>
</g>
<g>
</g>
<g>
</g>
<g>
</g>
<g>
</g>
</svg>
