<?xml version="1.0" encoding="iso-8859-1"?>
<!-- Generator: Adobe Illustrator 19.0.0, SVG Export Plug-In . SVG Version: 6.00 Build 0)  -->
<svg version="1.1" id="Layer_1" xmlns="http://www.w3.org/2000/svg" xmlns:xlink="http://www.w3.org/1999/xlink" x="0px" y="0px"
	 viewBox="0 0 512 512" style="enable-background:new 0 0 512 512;" xml:space="preserve">
<path style="fill:#507C5C;" d="M256,304.632c-4.93,0-9.554-2.397-12.395-6.424L133.062,141.508
	c-3.266-4.631-3.68-10.696-1.072-15.725c2.608-5.03,7.802-8.188,13.467-8.188h49.827V15.169C195.284,6.793,202.076,0,210.454,0
	h91.09c8.377,0,15.169,6.793,15.169,15.169v30.956c0,8.377-6.793,15.169-15.169,15.169s-15.169-6.793-15.169-15.169V30.339h-60.751
	v102.426c0,8.377-6.791,15.169-15.169,15.169h-35.732l81.277,115.214l81.277-115.214h-35.732c-8.377,0-15.169-6.793-15.169-15.169
	s6.793-15.169,15.169-15.169h64.997c5.666,0,10.86,3.158,13.467,8.188c2.608,5.029,2.194,11.093-1.071,15.725L268.395,298.208
	C265.554,302.235,260.93,304.632,256,304.632z"/>
<rect x="28.458" y="345.576" style="fill:#CFF09E;" width="455.084" height="151.255"/>
<g>
	<path style="fill:#507C5C;" d="M483.542,512H28.458c-8.378,0-15.169-6.793-15.169-15.169V345.576
		c0-8.377,6.791-15.169,15.169-15.169h455.084c8.377,0,15.169,6.793,15.169,15.169v151.255C498.712,505.207,491.919,512,483.542,512
		z M43.627,481.661h424.745V360.745H43.627L43.627,481.661L43.627,481.661z"/>
	<path style="fill:#507C5C;" d="M324.389,442.44h-29.58c-5.516,0-9.986-4.47-9.986-9.986v-22.501c0-5.516,4.47-9.986,9.986-9.986
		h29.58c5.516,0,9.986,4.47,9.986,9.986v22.501C334.375,437.968,329.904,442.44,324.389,442.44z"/>
	<path style="fill:#507C5C;" d="M411.613,442.44h-29.58c-5.516,0-9.986-4.47-9.986-9.986v-22.501c0-5.516,4.47-9.986,9.986-9.986
		h29.58c5.516,0,9.986,4.47,9.986,9.986v22.501C421.599,437.968,417.129,442.44,411.613,442.44z"/>
</g>
<g>
</g>
<g>
</g>
<g>
</g>
<g>
</g>
<g>
</g>
<g>
</g>
<g>
</g>
<g>
</g>
<g>
</g>
<g>
</g>
<g>
</g>
<g>
</g>
<g>
</g>
<g>
</g>
<g>
</g>
</svg>
