<?xml version="1.0" encoding="iso-8859-1"?>
<!-- Generator: Adobe Illustrator 19.0.0, SVG Export Plug-In . SVG Version: 6.00 Build 0)  -->
<svg version="1.1" id="Layer_1" xmlns="http://www.w3.org/2000/svg" xmlns:xlink="http://www.w3.org/1999/xlink" x="0px" y="0px"
	 viewBox="0 0 512 512" style="enable-background:new 0 0 512 512;" xml:space="preserve">
<path style="fill:#507C5C;" d="M486.551,495.864H25.449C11.417,495.864,0,484.448,0,470.414V421.01
	c0-14.034,11.417-25.449,25.449-25.449h185.639c8.268,0,14.971,6.702,14.971,14.971c0,8.268-6.702,14.971-14.971,14.971H29.942
	v40.42h452.117v-40.42H300.913c-8.267,0-14.971-6.702-14.971-14.971c0-8.268,6.704-14.971,14.971-14.971h185.639
	c14.032,0,25.449,11.415,25.449,25.449v49.404C512,484.448,500.583,495.864,486.551,495.864z"/>
<polygon style="fill:#CFF09E;" points="256,346.997 331.962,228.891 287.298,228.891 287.298,166.245 287.298,104.82 
	287.298,31.106 224.702,31.106 224.702,228.891 180.038,228.891 "/>
<path style="fill:#507C5C;" d="M256,361.968c-5.093,0-9.836-2.588-12.592-6.872L167.446,236.99
	c-2.963-4.607-3.174-10.463-0.549-15.272c2.624-4.807,7.664-7.798,13.141-7.798h29.693V31.106c0-8.268,6.702-14.971,14.971-14.971
	h62.596c8.267,0,14.971,6.702,14.971,14.971v182.812h29.693c5.476,0,10.517,2.991,13.14,7.798
	c2.624,4.807,2.413,10.665-0.549,15.272L268.59,355.095C265.836,359.378,261.092,361.968,256,361.968z M207.466,243.862L256,319.322
	l48.534-75.461h-17.236c-8.267,0-14.971-6.702-14.971-14.971V46.077h-32.654v182.812c0,8.268-6.702,14.971-14.971,14.971h-17.236
	V243.862z"/>
<g>
</g>
<g>
</g>
<g>
</g>
<g>
</g>
<g>
</g>
<g>
</g>
<g>
</g>
<g>
</g>
<g>
</g>
<g>
</g>
<g>
</g>
<g>
</g>
<g>
</g>
<g>
</g>
<g>
</g>
</svg>
