<?xml version="1.0" encoding="iso-8859-1"?>
<!-- Generator: Adobe Illustrator 19.0.0, SVG Export Plug-In . SVG Version: 6.00 Build 0)  -->
<svg version="1.1" id="Layer_1" xmlns="http://www.w3.org/2000/svg" xmlns:xlink="http://www.w3.org/1999/xlink" x="0px" y="0px"
	 viewBox="0 0 511.999 511.999" style="enable-background:new 0 0 511.999 511.999;" xml:space="preserve">
<path style="fill:#507C5C;" d="M220.795,476.828c-15.982,0-31.995-1.729-47.763-5.207c-41.086-9.063-78.585-29.636-108.446-59.497
	c-86.115-86.117-86.114-226.238,0.003-312.358c41.656-41.653,97.122-64.593,156.179-64.594
	c59.059-0.001,114.524,22.939,156.178,64.593c30.084,30.084,50.723,67.887,59.686,109.325c0.512,2.367,1.01,4.908,1.522,7.766
	l3.314,18.519c0.745,4.165-0.393,8.445-3.109,11.691c-2.716,3.246-6.73,5.119-10.961,5.119l0,0l-63.739-0.001
	c-6.725,0-12.539-4.688-13.966-11.259L347,228.525c-5.31-24.441-17.339-46.583-34.787-64.031
	c-24.383-24.384-56.858-37.81-91.445-37.81c-34.589,0.001-67.067,13.429-91.449,37.815c-50.426,50.425-50.428,132.472-0.004,182.896
	c14.661,14.661,31.918,25.316,51.292,31.67c3.739,1.225,7.569,2.288,11.381,3.156c7.696,1.755,12.513,9.416,10.758,17.112
	c-1.754,7.696-9.404,12.517-17.112,10.758c-4.666-1.063-9.353-2.363-13.931-3.863c-23.346-7.656-44.991-21.011-62.602-38.619
	c-61.568-61.568-61.565-161.75,0.004-223.321c29.784-29.782,69.438-46.184,111.661-46.186c42.224-0.001,81.878,16.4,111.66,46.183
	c21.333,21.334,36.032,48.367,42.508,78.176l0.247,1.141l35.139,0.001l-0.304-1.702c-0.45-2.515-0.885-4.729-1.325-6.762
	c-7.799-36.061-25.766-68.965-51.96-95.157c-36.254-36.255-84.54-56.222-135.965-56.222c-51.422,0-99.712,19.969-135.967,56.224
	C9.826,194.957,9.826,316.946,84.796,391.916c25.998,25.999,58.636,43.912,94.388,51.795c33.806,7.453,68.9,5.691,101.687-5.074
	l-23.388-40.513c-3.948-6.836-1.605-15.577,5.231-19.523c6.84-3.948,15.576-1.604,19.523,5.231l32.059,55.53
	c2.132,3.695,2.504,8.147,1.013,12.143c-1.492,3.996-4.689,7.118-8.721,8.511l-13.538,4.679
	C269.707,472.763,245.289,476.828,220.795,476.828z"/>
<polygon style="fill:#CFF09E;" points="295.686,236.103 396.697,411.058 497.708,236.103 "/>
<path style="fill:#507C5C;" d="M396.697,425.351c-5.105,0-9.825-2.724-12.377-7.146L283.309,243.25
	c-2.553-4.422-2.553-9.87,0-14.292c2.553-4.422,7.272-7.146,12.377-7.146h202.022c5.105,0,9.825,2.724,12.377,7.146
	s2.553,9.87,0,14.292L409.074,418.205C406.522,422.626,401.802,425.351,396.697,425.351z M320.442,250.395l76.255,132.078
	l76.255-132.078H320.442z"/>
<g>
</g>
<g>
</g>
<g>
</g>
<g>
</g>
<g>
</g>
<g>
</g>
<g>
</g>
<g>
</g>
<g>
</g>
<g>
</g>
<g>
</g>
<g>
</g>
<g>
</g>
<g>
</g>
<g>
</g>
</svg>
