<?xml version="1.0" encoding="iso-8859-1"?>
<!-- Generator: Adobe Illustrator 19.0.0, SVG Export Plug-In . SVG Version: 6.00 Build 0)  -->
<svg version="1.1" id="Layer_1" xmlns="http://www.w3.org/2000/svg" xmlns:xlink="http://www.w3.org/1999/xlink" x="0px" y="0px"
	 viewBox="0 0 512 512" style="enable-background:new 0 0 512 512;" xml:space="preserve">
<path style="fill:#507C5C;" d="M496.455,428.975H151.367c-8.586,0-15.545-6.961-15.545-15.545v-59.071
	c0-8.584,6.96-15.545,15.545-15.545h189.635c8.584,0,15.545,6.961,15.545,15.545c0,8.584-6.961,15.545-15.545,15.545H166.912v27.98
	h313.997v-27.98h-46.636c-8.584,0-15.545-6.961-15.545-15.545c0-8.584,6.961-15.545,15.545-15.545h62.181
	c8.584,0,15.545,6.961,15.545,15.545v59.071C512,422.016,505.04,428.975,496.455,428.975z"/>
<rect x="151.365" y="224.77" style="fill:#CFF09E;" width="345.091" height="59.069"/>
<path style="fill:#507C5C;" d="M496.455,299.379H151.367c-8.586,0-15.545-6.961-15.545-15.545v-59.069
	c0-8.584,6.96-15.545,15.545-15.545h345.088c8.584,0,15.545,6.961,15.545,15.545v59.069C512,292.417,505.04,299.379,496.455,299.379
	z M166.912,268.288h313.997v-27.979H166.912V268.288z"/>
<rect x="151.365" y="98.573" style="fill:#CFF09E;" width="345.091" height="59.069"/>
<g>
	<path style="fill:#507C5C;" d="M496.455,173.186H151.367c-8.586,0-15.545-6.961-15.545-15.545V98.57
		c0-8.584,6.96-15.545,15.545-15.545h345.088c8.584,0,15.545,6.961,15.545,15.545v59.071
		C512,166.226,505.04,173.186,496.455,173.186z M166.912,142.095h313.997v-27.98H166.912V142.095z"/>
	<path style="fill:#507C5C;" d="M46.619,173.186h-1.537C20.224,173.186,0,152.963,0,128.106s20.223-45.082,45.082-45.082h1.539
		c24.857,0,45.08,20.224,45.08,45.082S71.476,173.186,46.619,173.186z M45.082,114.115c-7.714,0-13.991,6.276-13.991,13.991
		c0,7.714,6.276,13.989,13.991,13.989h1.539c7.714,0,13.989-6.276,13.989-13.989c0-7.715-6.276-13.991-13.989-13.991H45.082z"/>
	<path style="fill:#507C5C;" d="M46.619,299.379h-1.537C20.224,299.379,0,279.156,0,254.299s20.223-45.08,45.082-45.08h1.539
		c24.857,0,45.08,20.223,45.08,45.08S71.476,299.379,46.619,299.379z M45.082,240.309c-7.714,0-13.991,6.276-13.991,13.989
		c0,7.714,6.276,13.989,13.991,13.989h1.539c7.714,0,13.989-6.276,13.989-13.989c0-7.714-6.276-13.989-13.989-13.989H45.082z"/>
	<path style="fill:#507C5C;" d="M46.619,428.975h-1.537C20.224,428.975,0,408.752,0,383.895s20.223-45.081,45.082-45.081h1.539
		c24.857,0,45.08,20.224,45.08,45.081C91.7,408.753,71.476,428.975,46.619,428.975z M45.082,369.905
		c-7.714,0-13.991,6.276-13.991,13.991c0,7.714,6.276,13.989,13.991,13.989h1.539c7.714,0,13.989-6.276,13.989-13.989
		c0-7.715-6.276-13.991-13.989-13.991H45.082z"/>
</g>
<g>
</g>
<g>
</g>
<g>
</g>
<g>
</g>
<g>
</g>
<g>
</g>
<g>
</g>
<g>
</g>
<g>
</g>
<g>
</g>
<g>
</g>
<g>
</g>
<g>
</g>
<g>
</g>
<g>
</g>
</svg>
