<?xml version="1.0" encoding="iso-8859-1"?>
<!-- Generator: Adobe Illustrator 19.0.0, SVG Export Plug-In . SVG Version: 6.00 Build 0)  -->
<svg version="1.1" id="Layer_1" xmlns="http://www.w3.org/2000/svg" xmlns:xlink="http://www.w3.org/1999/xlink" x="0px" y="0px"
	 viewBox="0 0 512 512" style="enable-background:new 0 0 512 512;" xml:space="preserve">
<rect x="15.059" y="15.059" style="fill:#CFF09E;" width="103.258" height="103.258"/>
<path style="fill:#507C5C;" d="M118.32,133.378H15.06c-8.317,0-15.059-6.742-15.059-15.059V15.059C0.002,6.742,6.743,0,15.06,0
	h103.26c8.317,0,15.059,6.742,15.059,15.059v103.26C133.379,126.636,126.636,133.378,118.32,133.378z M30.119,103.26h73.142V30.118
	H30.119V103.26z"/>
<rect x="204.378" y="15.059" style="fill:#CFF09E;" width="103.258" height="103.258"/>
<path style="fill:#507C5C;" d="M307.629,133.378h-103.26c-8.317,0-15.059-6.742-15.059-15.059V15.059
	C189.311,6.742,196.052,0,204.369,0h103.26c8.315,0,15.059,6.742,15.059,15.059v103.26
	C322.688,126.636,315.946,133.378,307.629,133.378z M219.43,103.26h73.142V30.118H219.43V103.26z"/>
<rect x="393.683" y="15.059" style="fill:#CFF09E;" width="103.258" height="103.258"/>
<path style="fill:#507C5C;" d="M496.94,133.378H393.681c-8.315,0-15.059-6.742-15.059-15.059V15.059
	C378.622,6.742,385.366,0,393.681,0H496.94c8.315,0,15.059,6.742,15.059,15.059v103.26
	C511.999,126.636,505.257,133.378,496.94,133.378z M408.74,103.26h73.141V30.118H408.74V103.26z"/>
<rect x="15.059" y="204.378" style="fill:#CFF09E;" width="103.258" height="103.258"/>
<path style="fill:#507C5C;" d="M118.32,322.693H15.06c-8.317,0-15.059-6.742-15.059-15.059v-103.26
	c0-8.317,6.742-15.059,15.059-15.059h103.26c8.317,0,15.059,6.742,15.059,15.059v103.26
	C133.379,315.951,126.636,322.693,118.32,322.693z M30.119,292.575h73.142v-73.142H30.119V292.575z"/>
<rect x="204.378" y="204.378" style="fill:#CFF09E;" width="103.258" height="103.258"/>
<path style="fill:#507C5C;" d="M307.629,322.693h-103.26c-8.317,0-15.059-6.742-15.059-15.059v-103.26
	c0-8.317,6.742-15.059,15.059-15.059h103.26c8.315,0,15.059,6.742,15.059,15.059v103.26
	C322.688,315.951,315.946,322.693,307.629,322.693z M219.43,292.575h73.142v-73.142H219.43V292.575z"/>
<rect x="15.059" y="393.683" style="fill:#CFF09E;" width="103.258" height="103.258"/>
<g>
	<path style="fill:#507C5C;" d="M118.32,512H15.06c-8.317,0-15.059-6.742-15.059-15.059v-103.26c0-8.317,6.742-15.059,15.059-15.059
		h103.26c8.317,0,15.059,6.742,15.059,15.059v103.26C133.379,505.258,126.636,512,118.32,512z M30.119,481.882h73.142V408.74H30.119
		V481.882z"/>
	<path style="fill:#507C5C;" d="M307.629,512h-103.26c-8.317,0-15.059-6.742-15.059-15.059v-103.26
		c0-8.317,6.742-15.059,15.059-15.059h60.235c8.315,0,15.059,6.742,15.059,15.059c0,8.317-6.743,15.059-15.059,15.059h-45.176
		v73.142h73.142V445.31c0-8.317,6.743-15.059,15.059-15.059c8.315,0,15.059,6.742,15.059,15.059v51.631
		C322.688,505.258,315.946,512,307.629,512z"/>
	<path style="fill:#507C5C;" d="M496.94,512H393.681c-8.315,0-15.059-6.742-15.059-15.059v-103.26
		c0-8.317,6.743-15.059,15.059-15.059h60.234c8.315,0,15.059,6.742,15.059,15.059c0,8.317-6.743,15.059-15.059,15.059H408.74v73.142
		h73.141V445.31c0-8.317,6.743-15.059,15.059-15.059s15.059,6.742,15.059,15.059v51.631C511.999,505.258,505.257,512,496.94,512z"/>
	<path style="fill:#507C5C;" d="M496.94,322.69H393.681c-8.315,0-15.059-6.742-15.059-15.059v-103.26
		c0-8.317,6.743-15.059,15.059-15.059h60.234c8.315,0,15.059,6.742,15.059,15.059c0,8.317-6.743,15.059-15.059,15.059H408.74v73.142
		h73.141V256c0-8.317,6.743-15.059,15.059-15.059s15.059,6.742,15.059,15.059v51.631C511.999,315.948,505.257,322.69,496.94,322.69z
		"/>
</g>
<g>
</g>
<g>
</g>
<g>
</g>
<g>
</g>
<g>
</g>
<g>
</g>
<g>
</g>
<g>
</g>
<g>
</g>
<g>
</g>
<g>
</g>
<g>
</g>
<g>
</g>
<g>
</g>
<g>
</g>
</svg>
