<?xml version="1.0" encoding="iso-8859-1"?>
<!-- Generator: Adobe Illustrator 19.0.0, SVG Export Plug-In . SVG Version: 6.00 Build 0)  -->
<svg version="1.1" id="Layer_1" xmlns="http://www.w3.org/2000/svg" xmlns:xlink="http://www.w3.org/1999/xlink" x="0px" y="0px"
	 viewBox="0 0 512 512" style="enable-background:new 0 0 512 512;" xml:space="preserve">
<rect x="196.081" y="15.059" style="fill:#CFF09E;" width="119.823" height="103.258"/>
<path style="fill:#507C5C;" d="M315.913,133.378H196.087c-8.317,0-15.059-6.743-15.059-15.059V15.059
	C181.028,6.743,187.77,0,196.087,0h119.826c8.317,0,15.059,6.743,15.059,15.059v103.26
	C330.972,126.636,324.23,133.378,315.913,133.378z M211.146,103.26h89.708V30.118h-89.708L211.146,103.26L211.146,103.26z"/>
<rect x="196.081" y="204.378" style="fill:#CFF09E;" width="119.823" height="103.258"/>
<g>
	<path style="fill:#507C5C;" d="M315.913,322.693H196.087c-8.317,0-15.059-6.743-15.059-15.059v-103.26
		c0-8.315,6.742-15.059,15.059-15.059h119.826c8.317,0,15.059,6.743,15.059,15.059v103.26
		C330.972,315.951,324.23,322.693,315.913,322.693z M211.146,292.575h89.708v-73.142h-89.708L211.146,292.575L211.146,292.575z"/>
	<path style="fill:#507C5C;" d="M315.913,512H196.087c-8.317,0-15.059-6.743-15.059-15.059v-103.26
		c0-8.315,6.742-15.059,15.059-15.059h72.212c8.317,0,15.059,6.743,15.059,15.059c0,8.315-6.742,15.059-15.059,15.059h-57.153
		v73.142h89.708v-45.176c0-8.315,6.742-15.059,15.059-15.059s15.059,6.743,15.059,15.059v60.235
		C330.972,505.257,324.23,512,315.913,512z"/>
</g>
<g>
</g>
<g>
</g>
<g>
</g>
<g>
</g>
<g>
</g>
<g>
</g>
<g>
</g>
<g>
</g>
<g>
</g>
<g>
</g>
<g>
</g>
<g>
</g>
<g>
</g>
<g>
</g>
<g>
</g>
</svg>
