<?xml version="1.0" encoding="iso-8859-1"?>
<!-- Generator: Adobe Illustrator 19.0.0, SVG Export Plug-In . SVG Version: 6.00 Build 0)  -->
<svg version="1.1" id="Layer_1" xmlns="http://www.w3.org/2000/svg" xmlns:xlink="http://www.w3.org/1999/xlink" x="0px" y="0px"
	 viewBox="0 0 512 512" style="enable-background:new 0 0 512 512;" xml:space="preserve">
<path style="fill:#507C5C;" d="M496.641,426.9H155.694c-8.483,0-15.359-6.878-15.359-15.359v-58.362
	c0-8.481,6.876-15.359,15.359-15.359h187.359c8.483,0,15.359,6.878,15.359,15.359s-6.876,15.359-15.359,15.359h-172v27.644h310.23
	v-27.644h-46.076c-8.483,0-15.359-6.878-15.359-15.359s6.876-15.359,15.359-15.359h61.435c8.483,0,15.359,6.878,15.359,15.359
	v58.362C512,420.024,505.124,426.9,496.641,426.9z"/>
<rect x="155.692" y="225.145" style="fill:#CFF09E;" width="340.95" height="58.36"/>
<path style="fill:#507C5C;" d="M496.641,298.858H155.694c-8.483,0-15.359-6.878-15.359-15.359v-58.36
	c0-8.481,6.876-15.359,15.359-15.359h340.947c8.483,0,15.359,6.878,15.359,15.359v58.36C512,291.98,505.124,298.858,496.641,298.858
	z M171.053,268.14h310.23v-27.643h-310.23V268.14z"/>
<rect x="155.692" y="100.462" style="fill:#CFF09E;" width="340.95" height="58.36"/>
<g>
	<path style="fill:#507C5C;" d="M496.641,174.18H155.694c-8.483,0-15.359-6.878-15.359-15.359v-58.362
		c0-8.481,6.876-15.359,15.359-15.359h340.947c8.483,0,15.359,6.878,15.359,15.359v58.362
		C512,167.304,505.124,174.18,496.641,174.18z M171.053,143.462h310.23v-27.644h-310.23V143.462z"/>
	<path style="fill:#507C5C;" d="M81.385,174.18H15.359C6.876,174.18,0,167.302,0,158.821v-58.362C0,91.978,6.876,85.1,15.359,85.1
		h66.026c8.483,0,15.359,6.878,15.359,15.359v58.362C96.744,167.304,89.868,174.18,81.385,174.18z M30.718,143.462h35.308v-27.644
		H30.718V143.462z"/>
	<path style="fill:#507C5C;" d="M81.385,298.858H15.359C6.876,298.858,0,291.98,0,283.499v-58.36
		c0-8.481,6.876-15.359,15.359-15.359h66.026c8.483,0,15.359,6.878,15.359,15.359v58.36
		C96.744,291.98,89.868,298.858,81.385,298.858z M30.718,268.14h35.308v-27.643H30.718V268.14z"/>
	<path style="fill:#507C5C;" d="M81.385,426.9H15.359C6.876,426.9,0,420.022,0,411.541v-58.362c0-8.481,6.876-15.359,15.359-15.359
		h66.026c8.483,0,15.359,6.878,15.359,15.359v58.362C96.744,420.024,89.868,426.9,81.385,426.9z M30.718,396.182h35.308v-27.644
		H30.718V396.182z"/>
</g>
<g>
</g>
<g>
</g>
<g>
</g>
<g>
</g>
<g>
</g>
<g>
</g>
<g>
</g>
<g>
</g>
<g>
</g>
<g>
</g>
<g>
</g>
<g>
</g>
<g>
</g>
<g>
</g>
<g>
</g>
</svg>
