<?xml version="1.0" encoding="iso-8859-1"?>
<!-- Generator: Adobe Illustrator 19.0.0, SVG Export Plug-In . SVG Version: 6.00 Build 0)  -->
<svg version="1.1" id="Layer_1" xmlns="http://www.w3.org/2000/svg" xmlns:xlink="http://www.w3.org/1999/xlink" x="0px" y="0px"
	 viewBox="0 0 511.999 511.999" style="enable-background:new 0 0 511.999 511.999;" xml:space="preserve">
<path style="fill:#507C5C;" d="M338.869,418.535H14.607C6.54,418.535,0,411.995,0,403.928v-55.504
	c0-8.068,6.54-14.607,14.607-14.607h178.191c8.068,0,14.607,6.54,14.607,14.607c0,8.068-6.54,14.607-14.607,14.607H29.214v26.29
	h295.047v-26.29H280.44c-8.068,0-14.607-6.54-14.607-14.607c0-8.068,6.54-14.607,14.607-14.607h58.429
	c8.068,0,14.607,6.54,14.607,14.607v55.504C353.476,411.995,346.936,418.535,338.869,418.535z"/>
<rect x="14.607" y="226.645" style="fill:#CFF09E;" width="324.264" height="55.504"/>
<path style="fill:#507C5C;" d="M338.869,296.761H14.607C6.54,296.761,0,290.221,0,282.154v-55.506
	c0-8.068,6.54-14.607,14.607-14.607h324.261c8.068,0,14.607,6.54,14.607,14.607v55.506
	C353.476,290.221,346.936,296.761,338.869,296.761z M29.214,267.547h295.047v-26.291H29.214V267.547z"/>
<rect x="14.607" y="108.071" style="fill:#CFF09E;" width="324.264" height="55.504"/>
<g>
	<path style="fill:#507C5C;" d="M338.869,178.183H14.607C6.54,178.183,0,171.643,0,163.576v-55.504
		c0-8.068,6.54-14.607,14.607-14.607h324.261c8.068,0,14.607,6.54,14.607,14.607v55.504
		C353.476,171.643,346.936,178.183,338.869,178.183z M29.214,148.968h295.047v-26.29H29.214V148.968z"/>
	<path style="fill:#507C5C;" d="M445.508,314.561c-4.74,0-9.185-2.299-11.924-6.169L381.7,235.086
		c-3.154-4.457-3.56-10.301-1.05-15.152c2.509-4.85,7.514-7.895,12.974-7.895h103.768c5.46,0,10.465,3.046,12.974,7.895
		c2.509,4.85,2.103,10.694-1.05,15.152l-51.885,73.306C454.693,312.262,450.248,314.561,445.508,314.561z M421.859,241.257
		l23.649,33.414l23.649-33.414H421.859z"/>
</g>
<g>
</g>
<g>
</g>
<g>
</g>
<g>
</g>
<g>
</g>
<g>
</g>
<g>
</g>
<g>
</g>
<g>
</g>
<g>
</g>
<g>
</g>
<g>
</g>
<g>
</g>
<g>
</g>
<g>
</g>
</svg>
