<?xml version="1.0" encoding="iso-8859-1"?>
<!-- Generator: Adobe Illustrator 19.0.0, SVG Export Plug-In . SVG Version: 6.00 Build 0)  -->
<svg version="1.1" id="Layer_1" xmlns="http://www.w3.org/2000/svg" xmlns:xlink="http://www.w3.org/1999/xlink" x="0px" y="0px"
	 viewBox="0 0 512 512" style="enable-background:new 0 0 512 512;" xml:space="preserve">
<path style="fill:#507C5C;" d="M256,512C114.84,512,0,397.158,0,256S114.84,0,256,0s256,114.84,256,256
	c0,60.575-21.545,119.341-60.663,165.477c-5.554,6.551-15.374,7.359-21.929,1.803c-6.553-5.556-7.36-15.374-1.803-21.929
	c34.358-40.519,53.279-92.14,53.279-145.352c0-123.999-100.883-224.883-224.884-224.883S31.116,131.999,31.116,256
	S131.999,480.884,256,480.884c37.862,0,75.291-9.582,108.239-27.712c7.527-4.137,16.989-1.396,21.131,6.131
	s1.396,16.988-6.131,21.131C341.708,501.085,299.092,512,256,512z"/>
<rect x="221.311" y="118.271" style="fill:#CFF09E;" width="69.371" height="275.452"/>
<path style="fill:#507C5C;" d="M290.686,409.284h-69.373c-8.591,0-15.558-6.967-15.558-15.558V118.272
	c0-8.591,6.967-15.558,15.558-15.558h69.373c8.591,0,15.558,6.967,15.558,15.558v275.454
	C306.244,402.319,299.277,409.284,290.686,409.284z M236.872,378.168h38.257V133.83h-38.257V378.168z"/>
<g>
</g>
<g>
</g>
<g>
</g>
<g>
</g>
<g>
</g>
<g>
</g>
<g>
</g>
<g>
</g>
<g>
</g>
<g>
</g>
<g>
</g>
<g>
</g>
<g>
</g>
<g>
</g>
<g>
</g>
</svg>
