<?xml version="1.0" encoding="iso-8859-1"?>
<!-- Generator: Adobe Illustrator 19.0.0, SVG Export Plug-In . SVG Version: 6.00 Build 0)  -->
<svg version="1.1" id="Layer_1" xmlns="http://www.w3.org/2000/svg" xmlns:xlink="http://www.w3.org/1999/xlink" x="0px" y="0px"
	 viewBox="0 0 512 512" style="enable-background:new 0 0 512 512;" xml:space="preserve">
<path style="fill:#507C5C;" d="M301.142,512c-7.808,0-14.734-5.537-16.248-13.454l-13.188-69.025
	c-1.716-8.983,4.175-17.657,13.156-19.372c8.985-1.716,17.657,4.175,19.372,13.158l10.038,52.54
	c95.177-23.3,162.67-108.235,162.67-207.74c0-41.224-11.755-81.252-33.991-115.76c-12.777-19.831-28.667-37.336-47.226-52.027
	l-0.704-0.555L368.5,126.288l0.919,0.695c44.072,33.431,70.383,86.188,70.383,141.125c0,55.109-25.095,106.116-68.851,139.941
	c-7.236,5.592-17.637,4.262-23.227-2.972c-5.594-7.236-4.262-17.635,2.972-23.229c35.58-27.506,55.99-68.962,55.99-113.739
	c0-44.64-21.413-87.531-57.279-114.738l-16.046-12.173c-3.814-2.891-6.186-7.289-6.514-12.063c-0.328-4.774,1.427-9.455,4.81-12.838
	l50.376-50.374c5.945-5.941,15.395-6.491,21.987-1.275l12.262,9.707c21.421,16.955,39.76,37.162,54.509,60.058
	c25.691,39.864,39.272,86.097,39.272,133.698c0,58.733-21.05,115.688-59.272,160.375c-37.784,44.176-89.954,73.756-146.897,83.291
	C302.969,511.924,302.048,512,301.142,512z"/>
<polygon style="fill:#CFF09E;" points="319.197,211.872 281.884,16.561 477.195,53.873 "/>
<g>
	<path style="fill:#507C5C;" d="M319.197,228.431c-1.624,0-3.265-0.24-4.865-0.732c-5.86-1.802-10.247-6.697-11.398-12.721
		L265.618,19.667c-1.03-5.388,0.676-10.937,4.555-14.815c3.881-3.878,9.429-5.585,14.817-4.555l195.311,37.314
		c6.024,1.151,10.917,5.536,12.721,11.398c1.802,5.862,0.217,12.239-4.118,16.576L330.907,223.581
		C327.755,226.732,323.524,228.431,319.197,228.431z M302.724,37.4l26.874,140.654L443.38,64.272L302.724,37.4z"/>
	<path style="fill:#507C5C;" d="M118.254,450.93c-3.616,0-7.246-1.179-10.273-3.575l-12.262-9.707
		c-21.421-16.955-39.76-37.162-54.509-60.058C15.518,337.726,1.938,291.493,1.938,243.892c0-58.733,21.05-115.688,59.272-160.375
		C98.994,39.343,151.164,9.763,208.107,0.228c8.886-1.48,17.311,4.386,19,13.224l13.188,69.025
		c1.716,8.983-4.175,17.657-13.156,19.372c-8.988,1.717-17.657-4.175-19.372-13.158l-10.038-52.54
		C102.551,59.454,35.056,144.388,35.056,243.892c0,41.224,11.755,81.252,33.991,115.76c12.777,19.831,28.667,37.336,47.226,52.027
		l0.704,0.555L143.5,385.71l-0.919-0.695c-44.074-33.429-70.383-86.185-70.383-141.123c0-55.109,25.095-106.116,68.851-139.941
		c7.233-5.594,17.635-4.262,23.227,2.972c5.594,7.236,4.262,17.635-2.972,23.229c-35.58,27.508-55.988,68.964-55.988,113.739
		c0,44.64,21.413,87.531,57.279,114.738l16.046,12.173c3.814,2.891,6.186,7.289,6.514,12.063c0.328,4.774-1.427,9.455-4.81,12.838
		l-50.376,50.374C126.754,449.294,122.513,450.93,118.254,450.93z"/>
</g>
<polygon style="fill:#CFF09E;" points="192.803,300.126 230.116,495.437 34.806,458.125 "/>
<path style="fill:#507C5C;" d="M230.117,511.997c-1.033,0-2.073-0.096-3.108-0.295L31.698,474.389
	c-6.024-1.151-10.917-5.536-12.721-11.398c-1.802-5.862-0.217-12.239,4.118-16.576l157.997-157.997
	c4.337-4.335,10.712-5.923,16.577-4.118c5.86,1.802,10.247,6.696,11.398,12.721l37.109,194.236c0.348,1.336,0.532,2.737,0.532,4.181
	c0,9.111-7.359,16.504-16.458,16.559C230.207,511.997,230.162,511.997,230.117,511.997z M68.623,447.726l140.654,26.872
	l-26.874-140.654L68.623,447.726z"/>
<g>
</g>
<g>
</g>
<g>
</g>
<g>
</g>
<g>
</g>
<g>
</g>
<g>
</g>
<g>
</g>
<g>
</g>
<g>
</g>
<g>
</g>
<g>
</g>
<g>
</g>
<g>
</g>
<g>
</g>
</svg>
