<?xml version="1.0" encoding="iso-8859-1"?>
<!-- Generator: Adobe Illustrator 19.0.0, SVG Export Plug-In . SVG Version: 6.00 Build 0)  -->
<svg version="1.1" id="Layer_1" xmlns="http://www.w3.org/2000/svg" xmlns:xlink="http://www.w3.org/1999/xlink" x="0px" y="0px"
	 viewBox="0 0 512 512" style="enable-background:new 0 0 512 512;" xml:space="preserve">
<g>
	<path style="fill:#507C5C;" d="M203.901,348.956c-2.38,0-4.79-0.607-6.998-1.882L15.058,242.088C5.63,236.644,0,226.893,0,216.008
		c0-10.885,5.63-20.636,15.057-26.081L196.903,84.94c6.705-3.874,15.281-1.575,19.154,5.132c3.873,6.707,1.575,15.281-5.132,19.154
		L29.08,214.213c-0.255,0.147-1.036,0.599-1.036,1.793s0.781,1.646,1.036,1.793l181.845,104.987
		c6.707,3.873,9.005,12.447,5.132,19.154C213.46,346.441,208.747,348.956,203.901,348.956z"/>
	<path style="fill:#507C5C;" d="M497.978,428.942H436.86c-7.744,0-14.022-6.279-14.022-14.022s6.278-14.022,14.022-14.022h47.096
		c-0.07-54.25-21.228-105.241-59.595-143.604c-27.715-27.715-62.53-46.726-100.681-54.98c-21.48-4.644-43.854-5.774-65.758-3.337
		v33.365c7.311-0.958,14.767-1.441,22.165-1.441c45.189,0,89.252,18.146,120.892,49.785c19.237,19.233,33.214,41.943,41.543,67.502
		c2.399,7.363-1.624,15.277-8.987,17.676c-7.363,2.396-15.277-1.624-17.676-8.987c-6.948-21.318-18.624-40.281-34.707-56.359
		c-26.42-26.422-63.256-41.572-101.064-41.572c-6.269,0-12.586,0.416-18.777,1.238l-15.566,2.065
		c-4.005,0.534-8.044-0.69-11.084-3.354c-3.039-2.661-4.782-6.506-4.782-10.546v-61.902c0-7.137,5.361-13.134,12.452-13.935
		l12.216-1.376c8.628-0.97,17.399-1.464,26.07-1.464c16.448,0,32.932,1.761,48.992,5.232c43.429,9.395,83.051,31.028,114.582,62.559
		C487.919,281.188,512,339.325,512,401.166v13.756C512,422.664,505.722,428.942,497.978,428.942z"/>
</g>
<polygon style="fill:#CFF09E;" points="245.342,303.871 93.157,216.008 245.342,128.143 "/>
<path style="fill:#507C5C;" d="M245.342,317.893c-2.422,0-4.842-0.625-7.011-1.879L86.146,228.151
	c-4.338-2.504-7.011-7.134-7.011-12.143c0-5.009,2.673-9.639,7.011-12.143l152.185-87.863c4.338-2.506,9.684-2.506,14.022,0
	c4.338,2.504,7.011,7.134,7.011,12.143v175.727c0,5.009-2.673,9.639-7.011,12.143C250.184,317.268,247.762,317.893,245.342,317.893z
	 M121.201,216.008l110.119,63.577V152.431L121.201,216.008z"/>
<g>
</g>
<g>
</g>
<g>
</g>
<g>
</g>
<g>
</g>
<g>
</g>
<g>
</g>
<g>
</g>
<g>
</g>
<g>
</g>
<g>
</g>
<g>
</g>
<g>
</g>
<g>
</g>
<g>
</g>
</svg>
