<?xml version="1.0" encoding="iso-8859-1"?>
<!-- Generator: Adobe Illustrator 19.0.0, SVG Export Plug-In . SVG Version: 6.00 Build 0)  -->
<svg version="1.1" id="Layer_1" xmlns="http://www.w3.org/2000/svg" xmlns:xlink="http://www.w3.org/1999/xlink" x="0px" y="0px"
	 viewBox="0 0 512.002 512.002" style="enable-background:new 0 0 512.002 512.002;" xml:space="preserve">
<g>
	<path style="fill:#507C5C;" d="M306.268,350.372c-78.536,0-142.43-63.894-142.43-142.43c0-8.739,7.085-15.826,15.826-15.826
		c8.74,0,15.826,7.087,15.826,15.826c0,61.084,49.695,110.779,110.779,110.779s110.779-49.695,110.779-110.779
		S367.351,97.163,306.268,97.163c-8.739,0-15.826-7.087-15.826-15.826s7.087-15.826,15.826-15.826
		c78.536,0,142.43,63.894,142.43,142.43S384.804,350.372,306.268,350.372z"/>
	<path style="fill:#507C5C;" d="M306.268,413.674c-69.039,0-133.114-34.359-171.402-91.91c-4.841-7.278-2.868-17.101,4.411-21.942
		c7.277-4.841,17.1-2.869,21.942,4.411c32.406,48.71,86.631,77.791,145.051,77.791c95.988,0,174.081-78.093,174.081-174.081
		S402.258,33.86,306.269,33.86s-174.081,78.093-174.081,174.081c0,8.739-7.085,15.826-15.826,15.826s-15.826-7.087-15.826-15.826
		c0-113.442,92.292-205.732,205.732-205.732c113.442,0,205.732,92.29,205.732,205.732S419.71,413.674,306.268,413.674z"/>
</g>
<path style="fill:#CFF09E;" d="M141.246,301.976c15.941,27.915,38.758,51.394,66.149,68.129L93.554,483.379
	c-14.211,14.14-37.185,14.112-51.362-0.063L26.476,467.6c-14.226-14.226-14.197-37.299,0.065-51.49L141.246,301.976z"/>
<path style="fill:#507C5C;" d="M67.906,509.792c-13.941,0-27.046-5.43-36.904-15.286L15.286,478.79
	C5.411,468.915-0.017,455.786,0,441.822c0.017-13.964,5.479-27.079,15.378-36.931l114.705-114.134
	c3.493-3.474,8.395-5.132,13.286-4.463c4.881,0.66,9.177,3.556,11.619,7.834c14.58,25.533,35.557,47.136,60.659,62.475
	c4.146,2.534,6.897,6.829,7.465,11.652c0.568,4.825-1.111,9.644-4.555,13.07L104.716,494.6
	C94.87,504.396,81.796,509.792,67.906,509.792z M138.502,327.029L37.703,427.327c-3.895,3.876-6.044,9.038-6.052,14.534
	c-0.008,5.496,2.13,10.662,6.015,14.547l15.716,15.716c3.88,3.879,9.036,6.017,14.523,6.017c5.466,0,10.611-2.124,14.487-5.979
	l100.261-99.763C165.714,359.638,150.792,344.306,138.502,327.029z"/>
<g>
</g>
<g>
</g>
<g>
</g>
<g>
</g>
<g>
</g>
<g>
</g>
<g>
</g>
<g>
</g>
<g>
</g>
<g>
</g>
<g>
</g>
<g>
</g>
<g>
</g>
<g>
</g>
<g>
</g>
</svg>
