<?xml version="1.0" encoding="iso-8859-1"?>
<!-- Generator: Adobe Illustrator 19.0.0, SVG Export Plug-In . SVG Version: 6.00 Build 0)  -->
<svg version="1.1" id="Layer_1" xmlns="http://www.w3.org/2000/svg" xmlns:xlink="http://www.w3.org/1999/xlink" x="0px" y="0px"
	 viewBox="0 0 512.001 512.001" style="enable-background:new 0 0 512.001 512.001;" xml:space="preserve">
<path style="fill:#507C5C;" d="M228.218,358.096h-78.23c-56.296,0-102.097-45.799-102.097-102.095s45.799-102.095,102.097-102.095
	h212.026c7.672,0,13.891,6.221,13.891,13.891s-6.219,13.891-13.891,13.891H149.987c-40.976,0-74.314,33.336-74.314,74.313
	s33.338,74.313,74.314,74.313h78.23c7.672,0,13.891,6.22,13.891,13.891C242.108,351.875,235.89,358.096,228.218,358.096z"/>
<circle style="fill:#CFF09E;" cx="362.02" cy="256.002" r="88.21"/>
<g>
	<path style="fill:#507C5C;" d="M362.013,358.096c-56.296,0-102.097-45.801-102.097-102.095s45.799-102.095,102.097-102.095
		S464.11,199.706,464.11,256.001S418.309,358.096,362.013,358.096z M362.013,181.687c-40.976,0-74.314,33.336-74.314,74.313
		s33.338,74.313,74.314,74.313s74.314-33.336,74.314-74.313S402.99,181.687,362.013,181.687z"/>
	<path style="fill:#507C5C;" d="M355.958,412.044H161.815c-7.672,0-13.891-6.22-13.891-13.891c0-7.671,6.219-13.891,13.891-13.891
		h194.143c70.723,0,128.261-57.538,128.261-128.261S426.681,127.74,355.958,127.74H161.815c-7.672,0-13.891-6.221-13.891-13.891
		s6.219-13.891,13.891-13.891h194.143c86.042,0,156.043,70.001,156.043,156.043S442.001,412.044,355.958,412.044z"/>
	<path style="fill:#507C5C;" d="M350.185,412.044H156.043C70.001,412.044,0,342.043,0,256.001S70.001,99.957,156.043,99.957h194.142
		c7.672,0,13.891,6.221,13.891,13.891s-6.219,13.891-13.891,13.891H156.043c-70.723,0-128.261,57.536-128.261,128.261
		S85.32,384.262,156.043,384.262h194.142c7.672,0,13.891,6.221,13.891,13.891C364.076,405.824,357.857,412.044,350.185,412.044z"/>
</g>
<g>
</g>
<g>
</g>
<g>
</g>
<g>
</g>
<g>
</g>
<g>
</g>
<g>
</g>
<g>
</g>
<g>
</g>
<g>
</g>
<g>
</g>
<g>
</g>
<g>
</g>
<g>
</g>
<g>
</g>
</svg>
