<?xml version="1.0" encoding="iso-8859-1"?>
<!-- Generator: Adobe Illustrator 19.0.0, SVG Export Plug-In . SVG Version: 6.00 Build 0)  -->
<svg version="1.1" id="Layer_1" xmlns="http://www.w3.org/2000/svg" xmlns:xlink="http://www.w3.org/1999/xlink" x="0px" y="0px"
	 viewBox="0 0 512 512" style="enable-background:new 0 0 512 512;" xml:space="preserve">
<path style="fill:#507C5C;" d="M362.013,358.097h-78.23c-7.671,0-13.891-6.22-13.891-13.891c0-7.671,6.22-13.891,13.891-13.891
	h78.23c40.976,0,74.314-33.338,74.314-74.314s-33.338-74.313-74.314-74.313l-212.027-0.001c-7.672,0-13.891-6.221-13.891-13.891
	s6.221-13.891,13.891-13.891l0,0l212.027,0.001c56.296,0,102.097,45.8,102.097,102.095S418.309,358.097,362.013,358.097z"/>
<circle style="fill:#CFF09E;" cx="149.984" cy="256.003" r="88.21"/>
<g>
	<path style="fill:#507C5C;" d="M149.987,358.095C93.691,358.095,47.89,312.294,47.89,256S93.69,153.905,149.987,153.905
		S252.083,199.706,252.083,256S206.284,358.095,149.987,358.095z M149.987,181.687c-40.976,0-74.314,33.336-74.314,74.313
		s33.338,74.313,74.314,74.313s74.314-33.336,74.314-74.313S190.963,181.687,149.987,181.687z"/>
	<path style="fill:#507C5C;" d="M350.185,412.043H156.043C70.001,412.043,0,342.044,0,256S70.001,99.957,156.043,99.957h194.142
		c7.671,0,13.891,6.221,13.891,13.891s-6.221,13.891-13.891,13.891H156.043C85.32,127.739,27.783,185.277,27.783,256
		S85.32,384.261,156.043,384.261h194.142c7.671,0,13.891,6.221,13.891,13.891C364.076,405.823,357.857,412.043,350.185,412.043z"/>
	<path style="fill:#507C5C;" d="M355.958,412.043H161.815c-7.672,0-13.891-6.22-13.891-13.891c0-7.671,6.219-13.891,13.891-13.891
		h194.143c70.722,0,128.259-57.538,128.259-128.261S426.68,127.739,355.958,127.739H161.815c-7.672,0-13.891-6.221-13.891-13.891
		s6.219-13.891,13.891-13.891h194.143C441.999,99.957,512,169.958,512,256S441.999,412.043,355.958,412.043z"/>
</g>
<g>
</g>
<g>
</g>
<g>
</g>
<g>
</g>
<g>
</g>
<g>
</g>
<g>
</g>
<g>
</g>
<g>
</g>
<g>
</g>
<g>
</g>
<g>
</g>
<g>
</g>
<g>
</g>
<g>
</g>
</svg>
