<?xml version="1.0" encoding="iso-8859-1"?>
<!-- Generator: Adobe Illustrator 19.0.0, SVG Export Plug-In . SVG Version: 6.00 Build 0)  -->
<svg version="1.1" id="Layer_1" xmlns="http://www.w3.org/2000/svg" xmlns:xlink="http://www.w3.org/1999/xlink" x="0px" y="0px"
	 viewBox="0 0 512 512" style="enable-background:new 0 0 512 512;" xml:space="preserve">
<path style="fill:#507C5C;" d="M486.551,495.864H25.449C11.417,495.864,0,484.448,0,470.415V421.01
	c0-14.032,11.417-25.449,25.449-25.449h185.639c8.268,0,14.971,6.704,14.971,14.971s-6.702,14.971-14.971,14.971H29.942v40.42
	h452.117v-40.42H300.913c-8.268,0-14.971-6.704-14.971-14.971s6.702-14.971,14.971-14.971h185.639
	c14.032,0,25.449,11.417,25.449,25.449v49.405C512,484.448,500.583,495.864,486.551,495.864z"/>
<polygon style="fill:#CFF09E;" points="256,31.106 180.038,149.213 224.702,149.213 224.702,211.858 224.702,273.284 
	224.702,346.997 287.298,346.997 287.298,149.213 331.962,149.213 "/>
<path style="fill:#507C5C;" d="M287.298,361.967h-62.596c-8.268,0-14.971-6.704-14.971-14.971V164.184h-29.693
	c-5.478,0-10.517-2.991-13.141-7.798c-2.623-4.809-2.413-10.664,0.549-15.27l75.962-118.107c2.755-4.283,7.499-6.873,12.592-6.873
	c5.093,0,9.836,2.588,12.592,6.873l75.962,118.107c2.963,4.607,3.174,10.462,0.549,15.27c-2.624,4.807-7.664,7.798-13.141,7.798
	h-29.693v182.812C302.269,355.264,295.566,361.967,287.298,361.967z M239.673,332.025h32.654V149.213
	c0-8.267,6.702-14.971,14.971-14.971h17.236L256,58.783l-48.534,75.459h17.236c8.268,0,14.971,6.704,14.971,14.971V332.025z"/>
<g>
</g>
<g>
</g>
<g>
</g>
<g>
</g>
<g>
</g>
<g>
</g>
<g>
</g>
<g>
</g>
<g>
</g>
<g>
</g>
<g>
</g>
<g>
</g>
<g>
</g>
<g>
</g>
<g>
</g>
</svg>
