<?xml version="1.0" encoding="iso-8859-1"?>
<!-- Generator: Adobe Illustrator 19.0.0, SVG Export Plug-In . SVG Version: 6.00 Build 0)  -->
<svg version="1.1" id="Layer_1" xmlns="http://www.w3.org/2000/svg" xmlns:xlink="http://www.w3.org/1999/xlink" x="0px" y="0px"
	 viewBox="0 0 512 512" style="enable-background:new 0 0 512 512;" xml:space="preserve">
<polygon style="fill:#CFF09E;" points="288.485,358.95 288.485,282.442 288.485,218.687 288.485,138.125 334.843,138.125 
	256,15.539 177.157,138.125 223.515,138.125 223.515,358.95 "/>
<g>
	<path style="fill:#507C5C;" d="M288.485,374.489h-64.97c-8.58,0-15.539-6.958-15.539-15.539l-0.002-205.286h-30.818
		c-5.684,0-10.914-3.105-13.638-8.094c-2.724-4.989-2.505-11.068,0.57-15.849L242.932,7.134C245.791,2.687,250.715,0,256,0
		c5.285,0,10.209,2.687,13.068,7.134l78.357,121.825c1.879,2.57,2.988,5.738,2.988,9.165c0,8.58-6.957,15.539-15.539,15.539
		c-0.009,0-0.022,0-0.031,0h-30.819v205.286C304.024,367.531,297.067,374.489,288.485,374.489z M239.055,343.411h33.893V138.125
		c0-8.58,6.958-15.539,15.539-15.539h17.89L256,44.264l-50.375,78.321h17.89c8.58,0,15.539,6.958,15.539,15.539L239.055,343.411z"/>
	<path style="fill:#507C5C;" d="M481.457,512H30.543c-8.58,0-15.539-6.958-15.539-15.539V135.162c0-8.58,6.958-15.539,15.539-15.539
		h78.612c8.58,0,15.539,6.958,15.539,15.539s-6.958,15.539-15.539,15.539H46.082v330.222h419.837V150.7h-63.073
		c-8.58,0-15.539-6.958-15.539-15.539s6.958-15.539,15.539-15.539h78.612c8.58,0,15.539,6.958,15.539,15.539v361.299
		C496.996,505.042,490.038,512,481.457,512z"/>
</g>
<g>
</g>
<g>
</g>
<g>
</g>
<g>
</g>
<g>
</g>
<g>
</g>
<g>
</g>
<g>
</g>
<g>
</g>
<g>
</g>
<g>
</g>
<g>
</g>
<g>
</g>
<g>
</g>
<g>
</g>
</svg>
