<?xml version="1.0" encoding="iso-8859-1"?>
<!-- Generator: Adobe Illustrator 19.0.0, SVG Export Plug-In . SVG Version: 6.00 Build 0)  -->
<svg version="1.1" id="Layer_1" xmlns="http://www.w3.org/2000/svg" xmlns:xlink="http://www.w3.org/1999/xlink" x="0px" y="0px"
	 viewBox="0 0 512.001 512.001" style="enable-background:new 0 0 512.001 512.001;" xml:space="preserve">
<rect x="272.444" y="62.336" style="fill:#CFF09E;" width="225.456" height="55.905"/>
<path style="fill:#507C5C;" d="M497.906,132.329H272.445c-7.783,0-14.094-6.311-14.094-14.094V62.33
	c0-7.782,6.311-14.094,14.094-14.094h225.463c7.782,0,14.094,6.311,14.094,14.094v55.905
	C512,126.018,505.69,132.329,497.906,132.329z M286.539,104.142h197.275V76.424H286.539V104.142z"/>
<rect x="272.444" y="172.802" style="fill:#CFF09E;" width="126.8" height="55.905"/>
<path style="fill:#507C5C;" d="M399.243,242.806H272.444c-7.783,0-14.094-6.311-14.094-14.094v-55.904
	c0-7.783,6.311-14.094,14.094-14.094h126.799c7.783,0,14.094,6.311,14.094,14.094v55.904
	C413.336,236.497,407.027,242.806,399.243,242.806z M286.539,214.619h98.612v-27.717h-98.612V214.619z"/>
<rect x="272.444" y="283.282" style="fill:#CFF09E;" width="197.268" height="55.905"/>
<g>
	<path style="fill:#507C5C;" d="M469.719,353.285H272.445c-7.783,0-14.094-6.311-14.094-14.094v-55.904
		c0-7.783,6.311-14.094,14.094-14.094h197.275c7.783,0,14.094,6.311,14.094,14.094v55.904
		C483.813,346.974,477.503,353.285,469.719,353.285z M286.539,325.098h169.088v-27.717H286.539V325.098z"/>
	<path style="fill:#507C5C;" d="M370.985,463.765h-98.54c-7.783,0-14.094-6.311-14.094-14.094s6.311-14.094,14.094-14.094h84.446
		v-27.718h-84.446c-7.783,0-14.094-6.311-14.094-14.094s6.311-14.094,14.094-14.094h98.54c7.783,0,14.094,6.311,14.094,14.094
		v55.905C385.079,457.453,378.767,463.765,370.985,463.765z"/>
	<path style="fill:#507C5C;" d="M73.271,331.91c-2.234,0-4.475-0.53-6.527-1.604c-4.649-2.431-7.565-7.244-7.565-12.49v-34.263
		c0-7.783,6.31-14.094,14.094-14.094s14.094,6.311,14.094,14.094v7.299l50.127-34.852l-50.127-34.854v6.775
		c0,7.783-6.31,14.094-14.094,14.094H28.187v41.54c0,7.783-6.31,14.094-14.094,14.094S0,291.338,0,283.555v-55.633
		c0-7.783,6.31-14.094,14.094-14.094h45.085v-19.644c0-5.247,2.915-10.06,7.565-12.49c4.651-2.431,10.266-2.075,14.574,0.917
		l88.91,61.816c3.788,2.635,6.049,6.958,6.049,11.572s-2.259,8.937-6.049,11.572l-88.91,61.816
		C78.912,331.061,76.097,331.91,73.271,331.91z"/>
	<path style="fill:#507C5C;" d="M214.372,462.359c-7.784,0-14.094-6.311-14.094-14.094V63.736c0-7.782,6.31-14.094,14.094-14.094
		c7.784,0,14.094,6.311,14.094,14.094v384.53C228.466,456.048,222.156,462.359,214.372,462.359z"/>
</g>
<g>
</g>
<g>
</g>
<g>
</g>
<g>
</g>
<g>
</g>
<g>
</g>
<g>
</g>
<g>
</g>
<g>
</g>
<g>
</g>
<g>
</g>
<g>
</g>
<g>
</g>
<g>
</g>
<g>
</g>
</svg>
