<?xml version="1.0" encoding="iso-8859-1"?>
<!-- Generator: Adobe Illustrator 19.0.0, SVG Export Plug-In . SVG Version: 6.00 Build 0)  -->
<svg version="1.1" id="Layer_1" xmlns="http://www.w3.org/2000/svg" xmlns:xlink="http://www.w3.org/1999/xlink" x="0px" y="0px"
	 viewBox="0 0 512 512" style="enable-background:new 0 0 512 512;" xml:space="preserve">
<g>
	<polygon style="fill:#CFF09E;" points="60.913,15.293 60.913,176.368 127.043,176.368 127.043,76.467 384.955,76.467 
		384.955,176.368 451.086,176.368 451.086,15.293 	"/>
	<rect x="19.717" y="176.363" style="fill:#CFF09E;" width="472.566" height="116.352"/>
</g>
<path style="fill:#507C5C;" d="M492.283,161.075h-25.904V15.293C466.379,6.847,459.531,0,451.086,0H60.913
	c-8.445,0-15.293,6.847-15.293,15.293v145.781H19.717c-8.445,0-15.293,6.847-15.293,15.293v116.36
	c0,8.447,6.848,15.293,15.293,15.293H476.99v85.771h-61.447v-42.886c0-8.447-6.848-15.293-15.293-15.293H111.75
	c-8.445,0-15.293,6.847-15.293,15.293v42.886H35.01v-40.52c0-8.447-6.848-15.293-15.293-15.293s-15.293,6.847-15.293,15.293v55.813
	c0,8.447,6.848,15.293,15.293,15.293h76.741v72.327c0,8.447,6.848,15.293,15.293,15.293H400.25c8.445,0,15.293-6.847,15.293-15.293
	c0-8.447-6.848-15.293-15.293-15.293H127.043V366.2h257.912v42.886c0,8.447,6.848,15.293,15.293,15.293h92.034
	c8.445,0,15.293-6.847,15.293-15.293V292.728v-116.36C507.576,167.921,500.728,161.075,492.283,161.075z M76.206,30.587h359.586
	v130.488h-35.543V76.467c0-8.447-6.848-15.293-15.293-15.293H127.043c-8.445,0-15.293,6.847-15.293,15.293v84.606H76.206V30.587z
	 M142.336,161.075V91.76h227.326v69.313H142.336V161.075z M35.01,191.661h25.902h66.13h257.912h66.13h25.904v85.773H35.01
	C35.01,277.434,35.01,191.661,35.01,191.661z"/>
<g>
</g>
<g>
</g>
<g>
</g>
<g>
</g>
<g>
</g>
<g>
</g>
<g>
</g>
<g>
</g>
<g>
</g>
<g>
</g>
<g>
</g>
<g>
</g>
<g>
</g>
<g>
</g>
<g>
</g>
</svg>
