<?xml version="1.0" encoding="iso-8859-1"?>
<!-- Generator: Adobe Illustrator 19.0.0, SVG Export Plug-In . SVG Version: 6.00 Build 0)  -->
<svg version="1.1" id="Layer_1" xmlns="http://www.w3.org/2000/svg" xmlns:xlink="http://www.w3.org/1999/xlink" x="0px" y="0px"
	 viewBox="0 0 512.001 512.001" style="enable-background:new 0 0 512.001 512.001;" xml:space="preserve">
<path style="fill:#CFF09E;" d="M42.243,346.173v151.578h38.354c1.482-27.005,23.844-48.446,51.219-48.446
	s49.737,21.441,51.219,48.446H328.97c1.482-27.005,23.844-48.446,51.219-48.446s49.737,21.441,51.219,48.446h38.354V346.173H42.243z
	"/>
<path style="fill:#507C5C;" d="M469.76,331.921H356.045l-19.163-65.01h132.877c7.869,0,14.251-6.38,14.251-14.251
	c0-7.871-6.381-14.251-14.251-14.251H328.48l-13.508-45.83c28.85-19.466,46.341-51.933,46.341-87.269
	C361.313,47.242,314.071,0,256.001,0S150.69,47.242,150.69,105.312c0,39.317,21.657,75.083,56.518,93.341
	c6.976,3.652,15.586,0.959,19.235-6.014c3.652-6.971,0.96-15.584-6.012-19.235c-25.439-13.321-41.24-39.413-41.24-68.092
	c0-42.354,34.458-76.811,76.811-76.811s76.811,34.458,76.811,76.811c0,28.679-15.802,54.771-41.24,68.092
	c-6.025,3.155-8.981,10.129-7.057,16.653l14.253,48.354H42.243c-7.869,0-14.251,6.38-14.251,14.251v93.511v1.102v150.477
	c0,7.871,6.381,14.251,14.251,14.251h38.354c7.568,0,13.814-5.914,14.229-13.471c1.074-19.613,17.322-34.975,36.989-34.975
	c19.666,0,35.913,15.364,36.989,34.977c0.415,7.556,6.664,13.47,14.229,13.47h145.934c7.567,0,13.814-5.914,14.229-13.47
	c1.076-19.613,17.323-34.977,36.989-34.977c19.667,0,35.914,15.364,36.989,34.975c0.415,7.556,6.662,13.471,14.229,13.471h38.354
	c7.869,0,14.251-6.38,14.251-14.251V346.172C484.01,338.303,477.63,331.921,469.76,331.921z M307.169,266.913l19.163,65.01H187.029
	l8.502-27.786c2.303-7.526-1.931-15.493-9.458-17.796c-7.519-2.303-15.493,1.931-17.796,9.458l-11.053,36.124H56.494v-65.01H307.169
	L307.169,266.913z M68.521,483.5H56.495V360.422h92.009l-22.929,74.935C98.185,437.954,75.538,457.426,68.521,483.5z M316.893,483.5
	H195.112c-5.575-20.71-21.014-37.251-40.851-44.485l24.048-78.592h156.424l23.151,78.541
	C337.978,446.17,322.48,462.741,316.893,483.5z M455.509,483.5h-12.026c-7.008-26.04-29.606-45.495-56.945-48.13l-22.091-74.947
	h91.064V483.5H455.509z"/>
<g>
</g>
<g>
</g>
<g>
</g>
<g>
</g>
<g>
</g>
<g>
</g>
<g>
</g>
<g>
</g>
<g>
</g>
<g>
</g>
<g>
</g>
<g>
</g>
<g>
</g>
<g>
</g>
<g>
</g>
</svg>
