<?xml version="1.0" encoding="iso-8859-1"?>
<!-- Generator: Adobe Illustrator 19.0.0, SVG Export Plug-In . SVG Version: 6.00 Build 0)  -->
<svg version="1.1" id="Layer_1" xmlns="http://www.w3.org/2000/svg" xmlns:xlink="http://www.w3.org/1999/xlink" x="0px" y="0px"
	 viewBox="0 0 512 512" style="enable-background:new 0 0 512 512;" xml:space="preserve">
<path style="fill:#507C5C;" d="M467.162,512H44.837c-7.586,0-13.734-6.149-13.734-13.734V13.734C31.102,6.149,37.251,0,44.837,0
	h422.326c7.584,0,13.734,6.149,13.734,13.734v252.338c0,7.586-6.15,13.734-13.734,13.734s-13.734-6.149-13.734-13.734V27.469H58.571
	v457.062h394.857V349.393c0-7.586,6.15-13.734,13.734-13.734s13.734,6.149,13.734,13.734v148.872
	C480.896,505.851,474.747,512,467.162,512z"/>
<rect x="118.652" y="67.265" style="fill:#CFF09E;" width="274.69" height="54.481"/>
<path style="fill:#507C5C;" d="M393.344,135.48h-274.69c-7.586,0-13.734-6.149-13.734-13.734V67.266
	c0-7.586,6.149-13.734,13.734-13.734h274.69c7.584,0,13.734,6.149,13.734,13.734v54.481
	C407.079,129.331,400.93,135.48,393.344,135.48z M132.389,108.011H379.61v-27.01H132.389V108.011z"/>
<rect x="214.807" y="174.923" style="fill:#CFF09E;" width="178.535" height="54.481"/>
<path style="fill:#507C5C;" d="M393.344,243.143H214.805c-7.586,0-13.734-6.149-13.734-13.734v-54.481
	c0-7.586,6.149-13.734,13.734-13.734h178.54c7.584,0,13.734,6.149,13.734,13.734v54.481
	C407.079,236.994,400.93,243.143,393.344,243.143z M228.54,215.674h151.071v-27.012H228.54V215.674z"/>
<rect x="146.121" y="282.587" style="fill:#CFF09E;" width="247.221" height="54.481"/>
<g>
	<path style="fill:#507C5C;" d="M393.344,350.806H146.123c-7.586,0-13.734-6.149-13.734-13.734v-54.481
		c0-7.586,6.149-13.734,13.734-13.734h247.221c7.584,0,13.734,6.149,13.734,13.734v54.481
		C407.079,344.658,400.93,350.806,393.344,350.806z M159.858,323.337H379.61v-27.012H159.858V323.337z"/>
	<path style="fill:#507C5C;" d="M393.344,458.47H242.343c-7.586,0-13.734-6.149-13.734-13.734s6.149-13.734,13.734-13.734H379.61
		v-27.012H242.343c-7.586,0-13.734-6.149-13.734-13.734s6.149-13.734,13.734-13.734h151.001c7.584,0,13.734,6.149,13.734,13.734
		v54.481C407.079,452.321,400.93,458.47,393.344,458.47z"/>
</g>
<g>
</g>
<g>
</g>
<g>
</g>
<g>
</g>
<g>
</g>
<g>
</g>
<g>
</g>
<g>
</g>
<g>
</g>
<g>
</g>
<g>
</g>
<g>
</g>
<g>
</g>
<g>
</g>
<g>
</g>
</svg>
