<?xml version="1.0" encoding="iso-8859-1"?>
<!-- Generator: Adobe Illustrator 19.0.0, SVG Export Plug-In . SVG Version: 6.00 Build 0)  -->
<svg version="1.1" id="Layer_1" xmlns="http://www.w3.org/2000/svg" xmlns:xlink="http://www.w3.org/1999/xlink" x="0px" y="0px"
	 viewBox="0 0 512 512" style="enable-background:new 0 0 512 512;" xml:space="preserve">
<polygon style="fill:#CFF09E;" points="369.659,468.451 369.659,497.879 457.325,444.786 369.659,391.693 369.659,420.67 
	142.339,420.67 142.339,391.693 54.673,444.786 142.339,497.879 142.339,468.451 "/>
<path style="fill:#507C5C;" d="M369.659,512c-2.388,0-4.778-0.606-6.932-1.819c-4.441-2.502-7.189-7.204-7.189-12.302v-15.308
	H156.46v15.308c0,5.097-2.748,9.798-7.189,12.302c-4.441,2.504-9.886,2.416-14.246-0.223l-87.666-53.093
	c-4.225-2.56-6.806-7.139-6.806-12.079s2.581-9.519,6.806-12.079l87.666-53.093c4.362-2.639,9.808-2.724,14.246-0.223
	c4.441,2.502,7.189,7.204,7.189,12.302v14.856h199.079v-14.856c0-5.098,2.748-9.798,7.189-12.302
	c4.442-2.502,9.886-2.417,14.248,0.223l87.667,53.093c4.223,2.56,6.805,7.139,6.805,12.079s-2.581,9.519-6.805,12.079
	l-87.667,53.093C374.728,511.317,372.195,512,369.659,512z M142.339,454.33h227.32c7.797,0,14.121,6.323,14.121,14.121v4.369
	l46.289-28.034l-46.289-28.034v3.916c0,7.797-6.323,14.121-14.121,14.121h-227.32c-7.799,0-14.121-6.323-14.121-14.121v-3.916
	l-46.287,28.034l46.287,28.034v-4.369C128.219,460.653,134.541,454.33,142.339,454.33z"/>
<rect x="180.574" y="307.814" style="fill:#CFF09E;" width="151.852" height="51.554"/>
<g>
	<path style="fill:#507C5C;" d="M332.426,293.691h-15.622V183.78c0-7.797-6.323-14.121-14.121-14.121
		c-7.797,0-14.121,6.323-14.121,14.121v109.91H180.578c-7.799,0-14.121,6.323-14.121,14.121v51.556
		c0,7.797,6.322,14.121,14.121,14.121h151.848c7.797,0,14.121-6.323,14.121-14.121v-51.556
		C346.547,300.014,340.223,293.691,332.426,293.691z M318.306,345.246H194.698v-23.314h123.607V345.246z"/>
	<path style="fill:#507C5C;" d="M209.567,279.954c-7.799,0-14.121-6.323-14.121-14.121V91.445h-27.102v16.034
		c0,7.797-6.322,14.121-14.121,14.121H94.351c-7.799,0-14.121-6.323-14.121-14.121V14.121C80.23,6.323,86.552,0,94.351,0h323.299
		c7.797,0,14.121,6.323,14.121,14.121v93.358c0,7.797-6.323,14.121-14.121,14.121h-59.873c-7.797,0-14.121-6.323-14.121-14.121
		V91.445h-26.852v42.787c0,7.797-6.323,14.121-14.121,14.121c-7.797,0-14.121-6.323-14.121-14.121V77.324
		c0-7.797,6.323-14.121,14.121-14.121h55.093c7.797,0,14.121,6.323,14.121,14.121v16.034h31.631V28.241H108.471v65.117h31.633
		V77.324c0-7.797,6.322-14.121,14.121-14.121h55.343c7.799,0,14.121,6.323,14.121,14.121v188.509
		C223.688,273.631,217.366,279.954,209.567,279.954z"/>
</g>
<g>
</g>
<g>
</g>
<g>
</g>
<g>
</g>
<g>
</g>
<g>
</g>
<g>
</g>
<g>
</g>
<g>
</g>
<g>
</g>
<g>
</g>
<g>
</g>
<g>
</g>
<g>
</g>
<g>
</g>
</svg>
