<?xml version="1.0" encoding="iso-8859-1"?>
<!-- Generator: Adobe Illustrator 19.0.0, SVG Export Plug-In . SVG Version: 6.00 Build 0)  -->
<svg version="1.1" id="Layer_1" xmlns="http://www.w3.org/2000/svg" xmlns:xlink="http://www.w3.org/1999/xlink" x="0px" y="0px"
	 viewBox="0 0 512.001 512.001" style="enable-background:new 0 0 512.001 512.001;" xml:space="preserve">
<g>
	<rect x="136.391" y="367.601" style="fill:#CFF09E;" width="88.105" height="105.296"/>
	<polygon style="fill:#CFF09E;" points="258.168,194.241 256.973,151.97 299.243,153.165 498.445,352.368 457.369,393.442 	"/>
</g>
<path style="fill:#507C5C;" d="M323.564,273.193H61.765c-7.486,0-13.555-6.069-13.555-13.555V39.105
	c0-7.486,6.069-13.555,13.555-13.555S75.32,31.619,75.32,39.105v206.977h248.244c7.486,0,13.555,6.069,13.555,13.555
	S331.051,273.193,323.564,273.193z"/>
<g>
	<polygon style="fill:#CFF09E;" points="425.919,279.841 425.919,39.105 377.709,39.105 377.709,231.631 	"/>
	<polygon style="fill:#CFF09E;" points="323.564,259.638 61.765,259.638 61.765,39.105 13.555,39.105 13.555,472.896 
		61.765,472.896 61.765,367.597 377.709,367.597 377.709,472.896 425.919,472.896 425.919,361.992 	"/>
</g>
<path style="fill:#507C5C;" d="M508.03,342.781l-68.556-68.556V39.105c0-7.486-6.069-13.555-13.555-13.555h-48.21H165.443
	c-7.486,0-13.555,6.069-13.555,13.555s6.069,13.555,13.555,13.555h198.71v146.245l-55.325-55.325
	c-2.449-2.448-5.741-3.867-9.203-3.965l-42.271-1.196c-3.722-0.096-7.332,1.328-9.968,3.965c-2.635,2.635-4.069,6.241-3.965,9.968
	l1.196,42.271c0.098,3.461,1.517,6.753,3.965,9.203l42.257,42.257H75.32V39.105c0-7.486-6.069-13.555-13.555-13.555h-48.21
	C6.069,25.55,0,31.619,0,39.105v433.791c0,7.486,6.069,13.555,13.555,13.555h48.198c0.004,0,0.008,0,0.014,0h74.633h88.105h83.666
	c7.486,0,13.555-6.069,13.555-13.555c0-7.486-6.069-13.555-13.555-13.555h-70.111V381.15h126.096v91.745
	c0,7.486,6.069,13.555,13.555,13.555h48.21c7.486,0,13.555-6.069,13.555-13.555v-78.18l8.311,8.311
	c2.647,2.647,6.116,3.97,9.585,3.97c3.469,0,6.939-1.324,9.585-3.97l41.076-41.075c2.542-2.542,3.97-5.99,3.97-9.585
	C512.001,348.771,510.571,345.324,508.03,342.781z M391.264,52.66h21.1v194.455l-21.1-21.1V52.66z M75.32,459.343v-78.191h47.523
	v78.191H75.32z M210.948,459.343h-60.995v-78.191h60.995V459.343z M412.364,459.341h-21.1v-91.745
	c0-7.486-6.069-13.555-13.555-13.555H224.503h-88.105H61.765c-7.486,0-13.555,6.069-13.555,13.555v91.745h-21.1V52.66h21.1v206.977
	c0,7.486,6.069,13.555,13.555,13.555h256.184l94.414,94.414v91.735H412.364z M457.369,374.273l-21.859-21.859
	c-0.003-0.003-0.004-0.004-0.007-0.007L333.149,250.053c-0.003-0.003-0.005-0.004-0.007-0.007l-61.578-61.578l-0.637-22.543
	l22.542,0.638l185.805,185.804L457.369,374.273z"/>
<g>
</g>
<g>
</g>
<g>
</g>
<g>
</g>
<g>
</g>
<g>
</g>
<g>
</g>
<g>
</g>
<g>
</g>
<g>
</g>
<g>
</g>
<g>
</g>
<g>
</g>
<g>
</g>
<g>
</g>
</svg>
