<?xml version="1.0" encoding="iso-8859-1"?>
<!-- Generator: Adobe Illustrator 19.0.0, SVG Export Plug-In . SVG Version: 6.00 Build 0)  -->
<svg version="1.1" id="Layer_1" xmlns="http://www.w3.org/2000/svg" xmlns:xlink="http://www.w3.org/1999/xlink" x="0px" y="0px"
	 viewBox="0 0 512 512" style="enable-background:new 0 0 512 512;" xml:space="preserve">
<g>
	<rect x="376.471" y="369.046" style="fill:#CFF09E;" width="120.471" height="109.92"/>
	<rect x="256" y="33.04" style="fill:#CFF09E;" width="120.471" height="335.992"/>
	<rect x="15.059" y="33.04" style="fill:#CFF09E;" width="120.471" height="335.992"/>
	<rect x="135.529" y="369.046" style="fill:#CFF09E;" width="120.471" height="109.92"/>
</g>
<path style="fill:#507C5C;" d="M496.941,306.101c8.317,0,15.059-6.742,15.059-15.059V33.04c0-8.317-6.742-15.059-15.059-15.059
	H376.471H256H135.529H15.059C6.742,17.981,0,24.723,0,33.04v336v109.92c0,8.317,6.742,15.059,15.059,15.059h60.235
	c8.317,0,15.059-6.742,15.059-15.059c0-8.317-6.742-15.059-15.059-15.059H30.118v-79.803h90.353v94.862
	c0,8.317,6.742,15.059,15.059,15.059H256h60.235c8.317,0,15.059-6.742,15.059-15.059c0-8.317-6.742-15.059-15.059-15.059h-45.176
	v-79.803h90.353v94.862c0,8.317,6.742,15.059,15.059,15.059h120.471c8.317,0,15.059-6.742,15.059-15.059V369.04
	c0-8.317-6.742-15.059-15.059-15.059H391.529V48.099h90.353v242.944C481.882,299.36,488.624,306.101,496.941,306.101z
	 M240.941,353.979h-90.353v-53.917V48.099h90.353V353.979z M30.118,48.099h90.353v251.966v53.917H30.118V48.099z M150.588,384.097
	h90.353V463.9h-90.353V384.097z M271.059,48.099h90.353v305.882h-90.353V48.099z M481.882,463.9h-90.353v-79.803h90.353V463.9z"/>
<g>
</g>
<g>
</g>
<g>
</g>
<g>
</g>
<g>
</g>
<g>
</g>
<g>
</g>
<g>
</g>
<g>
</g>
<g>
</g>
<g>
</g>
<g>
</g>
<g>
</g>
<g>
</g>
<g>
</g>
</svg>
