<?xml version="1.0" encoding="iso-8859-1"?>
<!-- Generator: Adobe Illustrator 19.0.0, SVG Export Plug-In . SVG Version: 6.00 Build 0)  -->
<svg version="1.1" id="Layer_1" xmlns="http://www.w3.org/2000/svg" xmlns:xlink="http://www.w3.org/1999/xlink" x="0px" y="0px"
	 viewBox="0 0 512 512" style="enable-background:new 0 0 512 512;" xml:space="preserve">
<path style="fill:#507C5C;" d="M467.162,512H44.838c-7.584,0-13.734-6.149-13.734-13.734V13.734C31.103,6.149,37.253,0,44.838,0
	h422.325c7.584,0,13.734,6.149,13.734,13.734v252.338c0,7.586-6.15,13.734-13.734,13.734s-13.734-6.149-13.734-13.734V27.469H58.572
	v457.062h394.856V349.393c0-7.586,6.15-13.734,13.734-13.734s13.734,6.149,13.734,13.734v148.872
	C480.897,505.851,474.748,512,467.162,512z"/>
<rect x="118.652" y="67.265" style="fill:#CFF09E;" width="274.69" height="54.481"/>
<path style="fill:#507C5C;" d="M393.345,135.48h-274.69c-7.584,0-13.734-6.149-13.734-13.734V67.266
	c0-7.586,6.15-13.734,13.734-13.734h274.69c7.584,0,13.734,6.149,13.734,13.734v54.481
	C407.079,129.331,400.931,135.48,393.345,135.48z M132.39,108.011H379.61v-27.01H132.39V108.011z"/>
<rect x="159.883" y="174.923" style="fill:#CFF09E;" width="192.228" height="54.481"/>
<path style="fill:#507C5C;" d="M352.117,243.143H159.885c-7.584,0-13.734-6.149-13.734-13.734v-54.481
	c0-7.586,6.15-13.734,13.734-13.734h192.232c7.584,0,13.734,6.149,13.734,13.734v54.481
	C365.851,236.994,359.701,243.143,352.117,243.143z M173.619,215.674h164.763v-27.012H173.619V215.674z"/>
<rect x="118.652" y="282.587" style="fill:#CFF09E;" width="274.69" height="54.481"/>
<g>
	<path style="fill:#507C5C;" d="M393.345,350.806h-274.69c-7.584,0-13.734-6.149-13.734-13.734v-54.481
		c0-7.586,6.15-13.734,13.734-13.734h274.69c7.584,0,13.734,6.149,13.734,13.734v54.481
		C407.079,344.658,400.931,350.806,393.345,350.806z M132.39,323.337H379.61v-27.012H132.39V323.337z"/>
	<path style="fill:#507C5C;" d="M352.117,458.47H159.885c-7.584,0-13.734-6.149-13.734-13.734s6.15-13.734,13.734-13.734h178.498
		v-27.012H159.885c-7.584,0-13.734-6.149-13.734-13.734s6.15-13.734,13.734-13.734h192.232c7.584,0,13.734,6.149,13.734,13.734
		v54.481C365.851,452.321,359.701,458.47,352.117,458.47z"/>
</g>
<g>
</g>
<g>
</g>
<g>
</g>
<g>
</g>
<g>
</g>
<g>
</g>
<g>
</g>
<g>
</g>
<g>
</g>
<g>
</g>
<g>
</g>
<g>
</g>
<g>
</g>
<g>
</g>
<g>
</g>
</svg>
