<?xml version="1.0" encoding="iso-8859-1"?>
<!-- Generator: Adobe Illustrator 19.0.0, SVG Export Plug-In . SVG Version: 6.00 Build 0)  -->
<svg version="1.1" id="Layer_1" xmlns="http://www.w3.org/2000/svg" xmlns:xlink="http://www.w3.org/1999/xlink" x="0px" y="0px"
	 viewBox="0 0 512 512" style="enable-background:new 0 0 512 512;" xml:space="preserve">
<polygon style="fill:#CFF09E;" points="436.135,279.242 467.412,279.242 410.984,186.069 354.556,279.242 385.353,279.242 
	385.353,393.468 354.556,393.468 410.984,486.642 467.412,393.468 436.135,393.468 "/>
<path style="fill:#507C5C;" d="M410.984,501.649c-5.25,0-10.118-2.743-12.837-7.232l-56.428-93.173
	c-2.806-4.634-2.898-10.421-0.237-15.143c2.659-4.72,7.657-7.64,13.075-7.64h15.789v-84.21h-15.789
	c-5.418,0-10.415-2.919-13.075-7.64c-2.659-4.721-2.569-10.508,0.237-15.143l56.428-93.174c2.719-4.489,7.588-7.232,12.837-7.232
	s10.118,2.743,12.837,7.232l56.428,93.174c2.806,4.634,2.898,10.421,0.237,15.143c-2.659,4.721-7.657,7.64-13.075,7.64h-16.268
	v84.21h16.268c5.418,0,10.415,2.92,13.075,7.64c2.659,4.721,2.569,10.508-0.237,15.143l-56.428,93.173
	C421.102,498.906,416.234,501.649,410.984,501.649z M381.191,408.477l29.794,49.195l29.794-49.195h-4.642
	c-8.289,0-15.008-6.72-15.008-15.008V279.244c0-8.287,6.719-15.008,15.008-15.008h4.642l-29.794-49.196l-29.794,49.195h4.163
	c8.289,0,15.008,6.72,15.008,15.008v114.225c0,8.287-6.719,15.008-15.008,15.008h-4.163V408.477z"/>
<rect x="153.857" y="434.918" style="fill:#CFF09E;" width="162.397" height="62.071"/>
<g>
	<path style="fill:#507C5C;" d="M316.247,419.911h-22.684V250.126c0-8.287-6.719-15.008-15.008-15.008
		c-8.289,0-15.008,6.72-15.008,15.008v169.785H153.855c-8.289,0-15.008,6.72-15.008,15.008v62.074
		c0,8.287,6.719,15.008,15.008,15.008h162.392c8.289,0,15.008-6.72,15.008-15.008v-62.074
		C331.255,426.63,324.536,419.911,316.247,419.911z M301.24,481.985H168.863v-32.059H301.24V481.985z"/>
	<path style="fill:#507C5C;" d="M190.594,387.382c-8.289,0-15.008-6.72-15.008-15.008V106.523H135.47v29.921
		c0,8.287-6.719,15.008-15.008,15.008H44.587c-8.289,0-15.008-6.72-15.008-15.008V15.008C29.58,6.72,36.298,0,44.587,0h379.656
		c8.289,0,15.008,6.72,15.008,15.008v121.436c0,8.287-6.719,15.008-15.008,15.008H348.37c-8.289,0-15.008-6.72-15.008-15.008
		v-29.921h-39.798v69.779c0,8.287-6.719,15.008-15.008,15.008s-15.008-6.72-15.008-15.008V91.516
		c0-8.287,6.719-15.008,15.008-15.008h69.814c8.289,0,15.008,6.72,15.008,15.008v29.921h45.859V30.015H59.595v91.421h45.859V91.516
		c0-8.287,6.719-15.008,15.008-15.008h70.132c8.289,0,15.008,6.72,15.008,15.008v280.859
		C205.601,380.662,198.881,387.382,190.594,387.382z"/>
</g>
<g>
</g>
<g>
</g>
<g>
</g>
<g>
</g>
<g>
</g>
<g>
</g>
<g>
</g>
<g>
</g>
<g>
</g>
<g>
</g>
<g>
</g>
<g>
</g>
<g>
</g>
<g>
</g>
<g>
</g>
</svg>
