<?xml version="1.0" encoding="iso-8859-1"?>
<!-- Generator: Adobe Illustrator 19.0.0, SVG Export Plug-In . SVG Version: 6.00 Build 0)  -->
<svg version="1.1" id="Layer_1" xmlns="http://www.w3.org/2000/svg" xmlns:xlink="http://www.w3.org/1999/xlink" x="0px" y="0px"
	 viewBox="0 0 512 512" style="enable-background:new 0 0 512 512;" xml:space="preserve">
<g>
	<rect x="48.785" y="14.455" style="fill:#CFF09E;" width="414.433" height="112.053"/>
	<rect x="48.785" y="126.508" style="fill:#CFF09E;" width="91.571" height="371.04"/>
</g>
<path style="fill:#507C5C;" d="M463.215,140.962c7.982,0,14.455-6.471,14.455-14.455V14.455C477.67,6.471,471.197,0,463.215,0
	H48.785C40.803,0,34.33,6.471,34.33,14.455v112.052v371.038c0,7.983,6.473,14.455,14.455,14.455h91.577h322.853
	c7.982,0,14.455-6.471,14.455-14.455V208.207c0-7.983-6.473-14.455-14.455-14.455c-7.982,0-14.455,6.471-14.455,14.455V483.09
	H154.816V140.962H463.215z M63.24,28.91h385.519v83.142H140.362H63.24V28.91z M125.907,483.09H63.24V140.962h62.667L125.907,483.09
	L125.907,483.09z"/>
<g>
</g>
<g>
</g>
<g>
</g>
<g>
</g>
<g>
</g>
<g>
</g>
<g>
</g>
<g>
</g>
<g>
</g>
<g>
</g>
<g>
</g>
<g>
</g>
<g>
</g>
<g>
</g>
<g>
</g>
</svg>
