<?xml version="1.0" encoding="iso-8859-1"?>
<!-- Generator: Adobe Illustrator 19.0.0, SVG Export Plug-In . SVG Version: 6.00 Build 0)  -->
<svg version="1.1" id="Layer_1" xmlns="http://www.w3.org/2000/svg" xmlns:xlink="http://www.w3.org/1999/xlink" x="0px" y="0px"
	 viewBox="0 0 512 512" style="enable-background:new 0 0 512 512;" xml:space="preserve">
<polygon style="fill:#CFF09E;" points="337.748,14.342 333.923,14.342 333.923,120.949 452.067,120.949 "/>
<g>
	<path style="fill:#507C5C;" d="M454.638,204.371c-7.92,0-14.342,6.421-14.342,14.342v264.604H71.703V28.684h247.878v92.265
		c0,7.921,6.422,14.342,14.342,14.342h118.144c5.892,0,11.185-3.604,13.344-9.086c2.16-5.481,0.747-11.727-3.561-15.746
		L347.531,3.852c-0.11-0.103-0.231-0.192-0.344-0.291c-0.166-0.146-0.334-0.291-0.508-0.43c-0.178-0.142-0.361-0.275-0.545-0.407
		c-0.188-0.136-0.377-0.271-0.572-0.399c-0.176-0.115-0.359-0.221-0.539-0.328c-0.215-0.128-0.43-0.254-0.653-0.369
		c-0.171-0.089-0.344-0.168-0.518-0.25c-0.241-0.113-0.48-0.227-0.729-0.327c-0.168-0.067-0.341-0.126-0.512-0.188
		c-0.257-0.093-0.513-0.186-0.777-0.265c-0.184-0.054-0.37-0.096-0.555-0.142c-0.255-0.065-0.509-0.133-0.769-0.185
		c-0.235-0.046-0.475-0.075-0.713-0.109c-0.217-0.032-0.429-0.07-0.648-0.092C338.686,0.026,338.219,0,337.748,0h-3.825H57.362
		C49.441,0,43.02,6.421,43.02,14.342v483.316c0,7.921,6.421,14.342,14.342,14.342h397.277c7.92,0,14.342-6.421,14.342-14.342
		V218.713C468.98,210.792,462.558,204.371,454.638,204.371z M348.265,106.607V43.76l67.394,62.847H348.265z"/>
	<path style="fill:#507C5C;" d="M201.9,185.738l-27.597-90.019c-1.656-5.271-8.102-8.677-16.42-8.677s-14.762,3.406-16.423,8.69
		l-27.469,90.092c-0.165,0.66-0.334,1.344-0.334,1.959c0,6.64,9.589,10.877,16.19,10.877c4.763,0,7.925-1.889,8.909-5.337
		l4.728-17.388h28.943l4.734,17.405c0.98,3.431,4.142,5.318,8.905,5.318c6.602,0,16.189-4.238,16.189-10.877
		C202.258,187.162,202.086,186.475,201.9,185.738z M148.99,155.361l8.895-32.653l8.895,32.653H148.99z"/>
	<path style="fill:#507C5C;" d="M281.451,114.017h-54.483c-7.921,0-14.342-6.421-14.342-14.342s6.421-14.342,14.342-14.342h54.483
		c7.92,0,14.342,6.421,14.342,14.342S289.372,114.017,281.451,114.017z"/>
	<path style="fill:#507C5C;" d="M396.907,189.79H226.968c-7.921,0-14.342-6.421-14.342-14.342s6.421-14.342,14.342-14.342h169.939
		c7.92,0,14.342,6.421,14.342,14.342S404.828,189.79,396.907,189.79z"/>
	<path style="fill:#507C5C;" d="M396.907,265.563H115.093c-7.921,0-14.342-6.421-14.342-14.342s6.421-14.342,14.342-14.342h281.814
		c7.92,0,14.342,6.421,14.342,14.342S404.828,265.563,396.907,265.563z"/>
</g>
<rect x="245.962" y="326.993" style="fill:#CFF09E;" width="150.948" height="93.203"/>
<g>
	<path style="fill:#507C5C;" d="M396.907,434.538H245.961c-7.921,0-14.342-6.421-14.342-14.342v-93.203
		c0-7.921,6.421-14.342,14.342-14.342h150.946c7.92,0,14.342,6.421,14.342,14.342v93.203
		C411.249,428.118,404.828,434.538,396.907,434.538z M260.303,405.855h122.263v-64.52H260.303V405.855z"/>
	<path style="fill:#507C5C;" d="M187.638,434.538h-72.545c-7.921,0-14.342-6.421-14.342-14.342v-93.203
		c0-7.921,6.421-14.342,14.342-14.342s14.342,6.421,14.342,14.342v78.861h43.862v-78.861c0-7.921,6.421-14.342,14.342-14.342
		c7.921,0,14.342,6.421,14.342,14.342v93.203C201.98,428.118,195.558,434.538,187.638,434.538z"/>
</g>
<g>
</g>
<g>
</g>
<g>
</g>
<g>
</g>
<g>
</g>
<g>
</g>
<g>
</g>
<g>
</g>
<g>
</g>
<g>
</g>
<g>
</g>
<g>
</g>
<g>
</g>
<g>
</g>
<g>
</g>
</svg>
