<?xml version="1.0" encoding="iso-8859-1"?>
<!-- Generator: Adobe Illustrator 19.0.0, SVG Export Plug-In . SVG Version: 6.00 Build 0)  -->
<svg version="1.1" id="Layer_1" xmlns="http://www.w3.org/2000/svg" xmlns:xlink="http://www.w3.org/1999/xlink" x="0px" y="0px"
	 viewBox="0 0 512 512" style="enable-background:new 0 0 512 512;" xml:space="preserve">
<rect x="187.43" y="315.712" style="fill:#CFF09E;" width="138.242" height="52.838"/>
<g>
	<path style="fill:#507C5C;" d="M325.662,301.568h-17.939v-87.274c0-7.812-6.333-14.147-14.147-14.147
		c-7.813,0-14.147,6.335-14.147,14.147v87.272h-92.006c-7.813,0-14.147,6.335-14.147,14.147v52.842
		c0,7.812,6.333,14.147,14.147,14.147h138.239c7.813,0,14.147-6.335,14.147-14.147v-52.842
		C339.809,307.901,333.475,301.568,325.662,301.568z M311.515,354.409H201.57V329.86h109.945V354.409z"/>
	<path style="fill:#507C5C;" d="M218.696,276.62c-7.813,0-14.147-6.335-14.147-14.147V93.423h-31.407v24.097
		c0,7.812-6.333,14.147-14.147,14.147h-64.59c-7.813,0-14.147-6.335-14.147-14.147V14.147C80.259,6.335,86.593,0,94.406,0h323.188
		c7.813,0,14.147,6.335,14.147,14.147v103.374c0,7.812-6.333,14.147-14.147,14.147h-64.59c-7.813,0-14.147-6.335-14.147-14.147
		V93.423h-31.137v58.028c0,7.812-6.333,14.147-14.147,14.147s-14.147-6.335-14.147-14.147V79.277
		c0-7.812,6.333-14.147,14.147-14.147h59.43c7.813,0,14.147,6.335,14.147,14.147v24.097h36.296V28.293H108.553v75.081h36.296V79.277
		c0-7.812,6.333-14.147,14.147-14.147h59.7c7.813,0,14.147,6.335,14.147,14.147v183.197
		C232.843,270.287,226.509,276.62,218.696,276.62z"/>
</g>
<rect x="94.407" y="433.228" style="fill:#CFF09E;" width="323.195" height="64.619"/>
<path style="fill:#507C5C;" d="M417.594,512H94.406c-7.813,0-14.147-6.335-14.147-14.147v-64.619
	c0-7.812,6.333-14.147,14.147-14.147h323.188c7.813,0,14.147,6.335,14.147,14.147v64.619C431.741,505.665,425.407,512,417.594,512z
	 M108.553,483.707h294.895v-36.326H108.553V483.707z"/>
<g>
</g>
<g>
</g>
<g>
</g>
<g>
</g>
<g>
</g>
<g>
</g>
<g>
</g>
<g>
</g>
<g>
</g>
<g>
</g>
<g>
</g>
<g>
</g>
<g>
</g>
<g>
</g>
<g>
</g>
</svg>
