<?xml version='1.0' encoding='iso-8859-1'?>
<svg version="1.1" xmlns="http://www.w3.org/2000/svg" viewBox="0 0 30.023 30.023" xmlns:xlink="http://www.w3.org/1999/xlink" enable-background="new 0 0 30.023 30.023">
  <g>
    <g>
      <path d="m29.728,3.14l-2.845-2.846c-0.393-0.393-1.03-0.393-1.422,0-0.028,0.027-0.038,0.063-0.062,0.093l-.012-.01-11.38,14.226 .785,.628 .628,.786 14.225-11.381-.01-.013c0.03-0.023 0.066-0.034 0.093-0.062 0.393-0.392 0.393-1.028 3.55271e-15-1.421zm-8.496,5.651l5.023-6.278 1.256,1.256-6.279,5.022z"/>
    </g>
  </g>
  <g>
    <g>
      <path d="m2.015,27.024c0,0.553 0.448,1 1,1s1-0.447 1-1v-1h-1c-0.552,0-1,0.447-1,1zm14.176-13.192c-2.765-2.766-6.23-2.066-8.298,0l-4.148,4.149c-0.703,0.702-1.717,1.049-2.075,0.691-0.382-0.382-1.001-0.382-1.383,0-0.382,0.382-0.382,1.001 0,1.383l9.681,9.682c0.382,0.382 1.001,0.382 1.383,0 0.382-0.383 0.382-1.002 0-1.384-0.401-0.4-0.056-1.327 0.691-2.074l4.149-4.149c2.045-2.045 2.743-5.555 0-8.298zm-1.383,6.915l-5.532,5.532-5.532-5.532 5.532-5.531c1.394-1.393 4.138-1.393 5.532,0 1.371,1.369 1.393,4.137 0,5.531z"/>
    </g>
  </g>
</svg>
