<?xml version='1.0' encoding='iso-8859-1'?>
<svg version="1.1" xmlns="http://www.w3.org/2000/svg" viewBox="0 0 30 30" xmlns:xlink="http://www.w3.org/1999/xlink" enable-background="new 0 0 30 30">
  <g>
    <g>
      <path d="M15,0C6.716,0,0,6.716,0,15s6.716,15,15,15c8.284,0,15-6.716,15-15S23.284,0,15,0z M15,28C7.82,28,2,22.18,2,15    S7.82,2,15,2c3.229,0,6.178,1.185,8.451,3.134l-9.158,9.159C14.112,14.474,14,14.724,14,15c0,0.553,0.447,1,1,1    c0.276,0,0.526-0.112,0.707-0.293l9.158-9.158C26.815,8.822,28,11.771,28,15C28,22.18,22.18,28,15,28z"/>
    </g>
  </g>
  <g>
    <g>
      <path d="m22.031,17.781c-0.421,0-0.777,0.261-0.925,0.629-1.198,2.14-3.48,3.59-6.106,3.59-0.553,0-1,0.447-1,1 0,0.553 0.447,1 1,1 3.426,0 6.404-1.915 7.925-4.732 0,0 0.107-0.14 0.107-0.486-0.001-0.553-0.448-1.001-1.001-1.001zm1.644-5.147l-.005,.002c-0.109-0.434-0.484-0.761-0.951-0.761-0.553,0-1,0.447-1,1 0,0.201 0.028,0.285 0.028,0.285 0.16,0.587 0.253,1.202 0.253,1.84 0,0.396-0.031,0.802-0.031,0.656 0,0.553 0.447,1 1,1 0.521,0 0.934-0.402 0.981-0.91 0,0 0.05-0.333 0.05-0.746-3.55271e-15-0.82-0.119-1.611-0.325-2.366z"/>
    </g>
  </g>
</svg>
