<?xml version='1.0' encoding='iso-8859-1'?>
<svg version="1.1" xmlns="http://www.w3.org/2000/svg" viewBox="0 0 30 30" xmlns:xlink="http://www.w3.org/1999/xlink" enable-background="new 0 0 30 30">
  <g>
    <g>
      <path d="m6,0c-0.553,0-1,0.447-1,1v28c0,0.553 0.447,1 1,1 0.553,0 1-0.447 1-1v-28c0-0.553-0.447-1-1-1zm18,0c-0.553,0-1,0.447-1,1v28c0,0.553 0.447,1 1,1 0.553,0 1-0.447 1-1v-28c0-0.553-0.447-1-1-1zm-9,0c-0.553,0-1,0.447-1,1v28c0,0.553 0.447,1 1,1 0.553,0 1-0.447 1-1v-28c0-0.553-0.447-1-1-1z"/>
    </g>
  </g>
  <g>
    <g>
      <path d="m17,3h-4c-0.553,0-1,0.447-1,1 0,0.553 0.447,1 1,1h4c0.553,0 1-0.447 1-1 0-0.553-0.447-1-1-1zm-9,22h-4c-0.553,0-1,0.447-1,1 0,0.553 0.447,1 1,1h4c0.553,0 1-0.447 1-1 0-0.553-0.447-1-1-1zm18-12h-4c-0.553,0-1,0.447-1,1 0,0.553 0.447,1 1,1h4c0.553,0 1-0.447 1-1 0-0.553-0.447-1-1-1z"/>
    </g>
  </g>
</svg>
