<?xml version='1.0' encoding='iso-8859-1'?>
<svg version="1.1" xmlns="http://www.w3.org/2000/svg" viewBox="0 0 30 30" xmlns:xlink="http://www.w3.org/1999/xlink" enable-background="new 0 0 30 30">
  <g>
    <g>
      <path d="m15,0c-0.552,0-1,0.447-1,1v28c0,0.553 0.448,1 1,1s1-0.447 1-1v-28c0-0.553-0.448-1-1-1z"/>
    </g>
  </g>
  <g>
    <g>
      <path d="m29,8h-3c-0.552,0-1,0.447-1,1v17c0,0.553 0.448,1 1,1h3c0.552,0 1-0.447 1-1v-17c0-0.553-0.448-1-1-1zm-1,17h-1v-15h1v15zm-17-8h-3c-0.552,0-1,0.447-1,1v8c0,0.553 0.448,1 1,1h3c0.552,0 1-0.447 1-1v-8c0-0.553-0.448-1-1-1zm-1,8h-1v-6h1v6zm-6-12h-3c-0.552,0-1,0.447-1,1v12c0,0.553 0.448,1 1,1h3c0.552,0 1-0.447 1-1v-12c0-0.553-0.448-1-1-1zm-1,12h-1v-10h1v10zm19-13h-3c-0.552,0-1,0.447-1,1v13c0,0.553 0.448,1 1,1h3c0.552,0 1-0.447 1-1v-13c0-0.553-0.448-1-1-1zm-1,13h-1v-11h1v11z"/>
    </g>
  </g>
</svg>
