<?xml version='1.0' encoding='iso-8859-1'?>
<svg version="1.1" xmlns="http://www.w3.org/2000/svg" viewBox="0 0 29.988 29.988" xmlns:xlink="http://www.w3.org/1999/xlink" enable-background="new 0 0 29.988 29.988">
  <g>
    <g>
      <path d="M7.066,4C5.373,4,4,5.343,4,7c0,0.553,0.458,1,1.022,1c0.564,0,1.022-0.447,1.022-1c0-0.553,0.458-1,1.022-1    c0.565,0,1.022-0.447,1.022-1C8.088,4.447,7.631,4,7.066,4z M15.543,12.293l-3.067,3l1.446,1.414l3.066-3L15.543,12.293z"/>
    </g>
  </g>
  <g>
    <g>
      <path d="m29.701,28.317l-3.459-3.458 .691-.691c0.37-0.369 0.374-0.956 0.029-1.341l.007-.006-13.107-14.455c0.088-0.442 0.138-0.898 0.138-1.366 0-3.866-3.134-7-7-7s-7,3.134-7,7 3.134,7 7,7c0.468,0 0.924-0.05 1.366-0.138l14.456,13.108 .006-.007c0.383,0.345 0.971,0.341 1.34-0.028l.691-.692 3.458,3.459c0.382,0.382 1.001,0.382 1.384,0 0.382-0.383 0.382-1.003 0-1.385zm-22.701-16.317c-2.761,0-5-2.238-5-5 0-2.762 2.239-5 5-5 2.761,0 5,2.238 5,5 0,2.762-2.239,5-5,5zm16.44,12.895l-13.028-11.818c1.118-0.63 2.035-1.547 2.665-2.665l11.817,13.028-1.454,1.455z"/>
    </g>
  </g>
</svg>
