<?xml version='1.0' encoding='iso-8859-1'?>
<svg version="1.1" xmlns="http://www.w3.org/2000/svg" viewBox="0 0 30 30" xmlns:xlink="http://www.w3.org/1999/xlink" enable-background="new 0 0 30 30">
  <g>
    <g>
      <path d="M28.468,14.132L2.474,0.119C2.474,0.119,2.346,0,2,0C1.448,0,1,0.447,1,1v28c0,0.553,0.448,1,1,1    c0.172,0,0.326-0.055,0.468-0.132l26-14C28.78,15.699,29,15.38,29,15S28.78,14.301,28.468,14.132z M3,27.326V2.674L25.891,15    L3,27.326z"/>
    </g>
  </g>
  <g>
    <g>
      <path d="M10.443,9.114l0.004-0.009l-4-2L6.443,7.114C6.308,7.047,6.161,7,6,7C5.448,7,5,7.447,5,8v9c0,0.553,0.448,1,1,1    s1-0.447,1-1V9.618l2.553,1.276l0.004-0.009C9.692,10.953,9.839,11,10,11c0.552,0,1-0.447,1-1C11,9.609,10.769,9.279,10.443,9.114    z M14,11c-0.552,0-1,0.447-1,1c0,0.553,0.448,1,1,1s1-0.447,1-1C15,11.447,14.552,11,14,11z"/>
    </g>
  </g>
</svg>
