<?xml version='1.0' encoding='iso-8859-1'?>
<svg version="1.1" xmlns="http://www.w3.org/2000/svg" viewBox="0 0 30 30" xmlns:xlink="http://www.w3.org/1999/xlink" enable-background="new 0 0 30 30">
  <g>
    <g>
      <path d="M12.555,9.168l-3-2l-0.01,0.016C9.386,7.077,9.206,7,9,7C8.448,7,8,7.447,8,8v5c0,0.553,0.448,1,1,1s1-0.447,1-1V9.868    l1.445,0.964c0,0,0.147,0.168,0.555,0.168c0.552,0,1-0.447,1-1C13,9.34,12.555,9.168,12.555,9.168z M1,0C0.448,0,0,0.447,0,1v28    c0,0.553,0.448,1,1,1s1-0.447,1-1V1C2,0.447,1.552,0,1,0z"/>
    </g>
  </g>
  <g>
    <g>
      <path d="M30,15c0-0.368-0.208-0.676-0.504-0.85l0.008-0.015l-24-14L5.496,0.15C5.347,0.064,5.184,0,5,0C4.448,0,4,0.447,4,1v28    c0,0.553,0.448,1,1,1c0.184,0,0.347-0.063,0.496-0.15l0.008,0.014l24-14l-0.008-0.014C29.792,15.676,30,15.368,30,15z M6,27.259    V2.741L27.015,15L6,27.259z"/>
    </g>
  </g>
</svg>
