<?xml version='1.0' encoding='iso-8859-1'?>
<svg version="1.1" xmlns="http://www.w3.org/2000/svg" viewBox="0 0 30 30" xmlns:xlink="http://www.w3.org/1999/xlink" enable-background="new 0 0 30 30">
  <g>
    <g>
      <path d="m13,10c-0.205,0-0.386,0.077-0.545,0.184l-2.758,1.816h-3.697c-0.553,0-1,0.447-1,1 0,0.553 0.447,1 1,1h4c0.205,0 0.386-0.077 0.545-0.184l.01,.016 2.99-2.016c0.267-0.178 0.455-0.469 0.455-0.816 0-0.553-0.447-1-1-1zm12.979-9.201c-0.092-0.456-0.496-0.799-0.979-0.799-0.553,0-1,0.447-1,1 0,0.252 0.097,0.481 0.251,0.656h-0.001c2.473,4.083 3.748,8.208 3.75,13.34 0.002,5.127-1.228,9.218-3.709,13.299-0.18,0.181-0.291,0.43-0.291,0.705 0,0.553 0.447,1 1,1 0.292,0 0.552-0.127 0.735-0.326l.015,.014c0.017-0.03 0.033-0.062 0.05-0.093 0.058-0.077 0.103-0.163 0.137-0.256 2.212-4.107 4.063-9.404 4.063-14.343 0-4.882-1.841-10.112-4.021-14.197z"/>
    </g>
  </g>
  <g>
    <g>
      <path d="M20,0c-0.205,0-0.386,0.077-0.545,0.184L6.718,8H1C0.447,8,0,8.447,0,9v12c0,0.553,0.447,1,1,1h5.718l12.737,7.816    C19.614,29.923,19.795,30,20,30c0.553,0,1-0.447,1-1V1C21,0.447,20.553,0,20,0z M19,27.211L7.555,20.168    C7.555,20.168,7.408,20,7,20H2V10h5c0.408,0,0.555-0.168,0.555-0.168L19,2.789V27.211z"/>
    </g>
  </g>
</svg>
