<?xml version='1.0' encoding='iso-8859-1'?>
<svg version="1.1" xmlns="http://www.w3.org/2000/svg" viewBox="0 0 30 30" xmlns:xlink="http://www.w3.org/1999/xlink" enable-background="new 0 0 30 30">
  <g>
    <g>
      <path d="m8,2h14c0.552,0 1-0.447 1-1 0-0.553-0.448-1-1-1h-14c-0.552,0-1,0.447-1,1 0,0.553 0.448,1 1,1zm14,14h-14c-0.552,0-1,0.447-1,1 0,0.553 0.448,1 1,1h14c0.552,0 1-0.447 1-1 0-0.553-0.448-1-1-1z"/>
    </g>
  </g>
  <g>
    <g>
      <path d="m21,24h-7c-0.552,0-1,0.447-1,1 0,0.553 0.448,1 1,1h7c0.552,0 1-0.447 1-1 0-0.553-0.448-1-1-1zm0,4h-7c-0.552,0-1,0.447-1,1 0,0.553 0.448,1 1,1h7c0.552,0 1-0.447 1-1 0-0.553-0.448-1-1-1zm-7-22h7c0.552,0 1-0.447 1-1 0-0.553-0.448-1-1-1h-7c-0.552,0-1,0.447-1,1 0,0.553 0.448,1 1,1zm7,2h-7c-0.552,0-1,0.447-1,1 0,0.553 0.448,1 1,1h7c0.552,0 1-0.447 1-1 0-0.553-0.448-1-1-1zm0,4h-7c-0.552,0-1,0.447-1,1 0,0.553 0.448,1 1,1h7c0.552,0 1-0.447 1-1 0-0.553-0.448-1-1-1zm0,8h-7c-0.552,0-1,0.447-1,1 0,0.553 0.448,1 1,1h7c0.552,0 1-0.447 1-1 0-0.553-0.448-1-1-1z"/>
    </g>
  </g>
</svg>
