<?xml version='1.0' encoding='iso-8859-1'?>
<svg version="1.1" xmlns="http://www.w3.org/2000/svg" viewBox="0 0 30 30" xmlns:xlink="http://www.w3.org/1999/xlink" enable-background="new 0 0 30 30">
  <g>
    <g>
      <path d="m29.469,9.59c-1.093-1.905-3.514-2.558-5.408-1.458l-3.814,2.215 1.201-4.381c0.581-2.119-0.663-4.285-2.776-4.839-2.114-0.553-4.298,0.716-4.879,2.835-0.58,2.118 0.663,4.284 2.777,4.838 0.528,0.139 1.075-0.179 1.22-0.708 0.145-0.53-0.166-1.071-0.694-1.21-1.057-0.276-1.679-1.36-1.389-2.419 0.291-1.06 1.383-1.694 2.44-1.417 1.057,0.276 1.679,1.359 1.389,2.419l-1.727,6.299-8.318,4.832c-0.473,0.275-0.635,0.884-0.362,1.36 0.273,0.477 0.879,0.64 1.352,0.364l6.579-3.821-1.992,7.269c-0.145,0.53 0.166,1.071 0.694,1.21 0.528,0.139 1.075-0.179 1.22-0.709l2.517-9.188 5.553-3.226c0.947-0.55 2.157-0.224 2.704,0.729 0.547,0.952 0.223,2.17-0.724,2.72-0.947,0.55-2.158,0.224-2.704-0.729-0.273-0.477-0.879-0.64-1.352-0.364-0.473,0.274-0.635,0.884-0.362,1.359 1.093,1.905 3.515,2.559 5.408,1.458 1.892-1.097 2.54-3.532 1.447-5.438z"/>
    </g>
  </g>
  <g>
    <g>
      <path d="m13,22.002c-0.552,0-1,0.447-1,1v2c0,1.104-0.896,2-2,2s-2-0.896-2-2v-4c0-2.209-1.791-4-4-4s-4,1.791-4,4v2c0,0.553 0.448,1 1,1s1-0.447 1-1v-2c0-1.104 0.896-2 2-2s2,0.896 2,2v4c0,2.209 1.791,4 4,4s4-1.791 4-4v-2c0-0.552-0.448-1-1-1zm16,0c-0.552,0-1,0.447-1,1v2c0,1.104-0.896,2-2,2s-2-0.896-2-2v-4c0-1.054-0.416-2.006-1.082-2.72 0.192,0.233-0.157-0.374-0.762-0.374-0.552,0-1,0.447-1,1 0,0.512 0.258,0.68 0.258,0.68 0.362,0.362 0.586,0.862 0.586,1.414v4c0,2.209 1.791,4 4,4s4-1.791 4-4v-2c0-0.552-0.448-1-1-1z"/>
    </g>
  </g>
</svg>
