<?xml version="1.0" encoding="iso-8859-1"?>
<!-- Generator: Adobe Illustrator 19.0.0, SVG Export Plug-In . SVG Version: 6.00 Build 0)  -->
<svg version="1.1" id="Layer_1" xmlns="http://www.w3.org/2000/svg" xmlns:xlink="http://www.w3.org/1999/xlink" x="0px" y="0px"
	 viewBox="0 0 512 512" style="enable-background:new 0 0 512 512;" xml:space="preserve">
<polygon style="fill:#CFF09E;" points="39.171,192.007 39.171,187.217 209.852,14.876 209.852,192.007 "/>
<g>
	<path style="fill:#507C5C;" d="M472.828,512H39.171c-8.216,0-14.876-6.66-14.876-14.876V286.687c0-8.216,6.66-14.876,14.876-14.876
		s14.876,6.66,14.876,14.876v195.561h403.907V291.074c0-8.216,6.661-14.876,14.876-14.876c8.215,0,14.876,6.66,14.876,14.876v206.05
		C487.704,505.34,481.044,512,472.828,512z"/>
	<path style="fill:#507C5C;" d="M472.828,0H209.852c-0.179,0-0.356,0.021-0.534,0.027c-0.171,0.006-0.342,0.013-0.513,0.025
		c-0.64,0.045-1.275,0.118-1.9,0.242c-0.018,0.003-0.034,0.009-0.052,0.013c-0.613,0.126-1.212,0.303-1.803,0.504
		c-0.158,0.054-0.312,0.11-0.469,0.168c-0.582,0.22-1.154,0.467-1.705,0.759c-0.021,0.012-0.043,0.019-0.064,0.031
		c-0.568,0.305-1.11,0.66-1.636,1.04c-0.134,0.097-0.266,0.195-0.397,0.296c-0.522,0.403-1.029,0.827-1.498,1.302L28.601,176.749
		c-0.35,0.353-0.678,0.721-0.988,1.104c-0.213,0.262-0.4,0.536-0.592,0.808c-0.086,0.123-0.183,0.24-0.265,0.364
		c-0.22,0.332-0.417,0.675-0.605,1.02c-0.042,0.076-0.091,0.147-0.131,0.223c-0.187,0.354-0.351,0.716-0.507,1.081
		c-0.033,0.077-0.073,0.152-0.106,0.231c-0.141,0.347-0.26,0.699-0.375,1.052c-0.034,0.107-0.077,0.211-0.11,0.318
		c-0.097,0.326-0.173,0.656-0.247,0.988c-0.033,0.143-0.073,0.281-0.101,0.425c-0.06,0.305-0.097,0.611-0.137,0.918
		c-0.022,0.174-0.055,0.345-0.073,0.521c-0.028,0.303-0.034,0.607-0.045,0.91c-0.006,0.168-0.025,0.335-0.025,0.503v4.79
		c0,8.216,6.66,14.876,14.876,14.876h170.681c8.216,0,14.876-6.66,14.876-14.876V29.752h233.224v159.912
		c0,8.216,6.661,14.876,14.876,14.876c8.215,0,14.876-6.66,14.876-14.876V14.876C487.704,6.66,481.044,0,472.828,0z M70.095,177.131
		l95.534-96.462l29.347-29.633v126.095H70.095z"/>
</g>
<g>
	<rect x="311.086" y="300.108" style="fill:#CFF09E;" width="66.655" height="96.588"/>
	<polygon style="fill:#CFF09E;" points="213.846,443.767 311.078,396.689 311.078,300.101 213.846,253.023 	"/>
</g>
<g>
	<path style="fill:#507C5C;" d="M377.733,285.225h-63.244l-94.161-45.59c-4.612-2.231-10.044-1.935-14.384,0.785
		s-6.974,7.481-6.974,12.604v190.743c0,5.122,2.635,9.884,6.974,12.604c2.407,1.508,5.149,2.272,7.902,2.272
		c2.211,0,4.429-0.492,6.481-1.488l94.16-45.59h63.244c8.215,0,14.876-6.66,14.876-14.876v-96.588
		C392.609,291.885,385.948,285.225,377.733,285.225z M228.722,276.754l67.48,32.672v77.938l-67.48,32.672V276.754z M362.857,381.813
		h-36.903v-66.836h36.903V381.813z"/>
	<path style="fill:#507C5C;" d="M149.516,400.087c-3.807,0-7.615-1.452-10.519-4.357c-26.1-26.101-26.1-68.569,0-94.671
		c5.809-5.809,15.229-5.809,21.039,0c5.809,5.809,5.809,15.229,0,21.039c-14.501,14.5-14.501,38.094,0,52.594
		c5.809,5.809,5.809,15.229,0,21.039C157.131,398.635,153.323,400.087,149.516,400.087z"/>
</g>
<g>
</g>
<g>
</g>
<g>
</g>
<g>
</g>
<g>
</g>
<g>
</g>
<g>
</g>
<g>
</g>
<g>
</g>
<g>
</g>
<g>
</g>
<g>
</g>
<g>
</g>
<g>
</g>
<g>
</g>
</svg>
