<?xml version="1.0" encoding="iso-8859-1"?>
<!-- Generator: Adobe Illustrator 19.0.0, SVG Export Plug-In . SVG Version: 6.00 Build 0)  -->
<svg version="1.1" id="Layer_1" xmlns="http://www.w3.org/2000/svg" xmlns:xlink="http://www.w3.org/1999/xlink" x="0px" y="0px"
	 viewBox="0 0 511.999 511.999" style="enable-background:new 0 0 511.999 511.999;" xml:space="preserve">
<polygon style="fill:#CFF09E;" points="27.96,164.583 27.96,160.534 172.264,14.827 172.264,164.583 "/>
<g>
	<path style="fill:#507C5C;" d="M459.182,264.152c-5.593-5.981-14.973-6.295-20.956-0.703c-5.981,5.593-6.295,14.976-0.703,20.956
		c20.435,21.854,31.69,50.379,31.69,80.317c0,64.859-52.766,117.623-117.623,117.623c-64.859,0-117.625-52.766-117.625-117.623
		s52.766-117.623,117.625-117.623c8.187,0,14.827-6.638,14.827-14.827c0-8.189-6.639-14.827-14.827-14.827
		c-81.209,0-147.278,66.068-147.278,147.276c0,14.953,2.246,29.389,6.41,42.997H42.786v-167.54c0-8.189-6.639-14.827-14.827-14.827
		s-14.827,6.638-14.827,14.827v182.366c0,8.189,6.639,14.827,14.827,14.827h195.557c25.359,44.53,73.265,74.626,128.073,74.626
		c81.208,0,147.276-66.068,147.276-147.276C498.867,327.236,484.773,291.519,459.182,264.152z"/>
	<path style="fill:#507C5C;" d="M394.598,0H172.264c-0.179,0-0.356,0.021-0.534,0.027c-0.171,0.006-0.34,0.013-0.509,0.025
		c-0.639,0.044-1.272,0.117-1.895,0.243c-0.016,0.003-0.033,0.009-0.049,0.012c-0.612,0.126-1.211,0.302-1.801,0.504
		c-0.156,0.053-0.31,0.108-0.464,0.168c-0.583,0.221-1.155,0.467-1.705,0.759c-0.019,0.01-0.039,0.018-0.058,0.028
		c-0.568,0.305-1.109,0.66-1.634,1.038c-0.133,0.095-0.262,0.193-0.393,0.294c-0.522,0.402-1.027,0.826-1.495,1.299L17.424,150.102
		c-0.348,0.351-0.678,0.721-0.986,1.102c-0.2,0.246-0.375,0.503-0.556,0.758c-0.098,0.138-0.206,0.27-0.299,0.412
		c-0.211,0.319-0.397,0.646-0.58,0.977c-0.049,0.089-0.107,0.173-0.154,0.264c-0.181,0.341-0.338,0.691-0.489,1.042
		c-0.039,0.089-0.085,0.175-0.122,0.264c-0.138,0.335-0.251,0.678-0.363,1.02c-0.037,0.116-0.083,0.228-0.119,0.345
		c-0.093,0.316-0.166,0.636-0.239,0.956c-0.034,0.151-0.079,0.3-0.108,0.452c-0.058,0.297-0.093,0.596-0.133,0.896
		c-0.024,0.179-0.058,0.357-0.074,0.537c-0.028,0.297-0.034,0.595-0.044,0.893c-0.006,0.172-0.025,0.342-0.025,0.516v4.051
		c0,8.189,6.639,14.827,14.827,14.827h144.304c8.187,0,14.827-6.638,14.827-14.827V29.653H379.77v143.315
		c0,8.189,6.639,14.827,14.827,14.827c8.187,0,14.827-6.638,14.827-14.827V14.827C409.424,6.638,402.786,0,394.598,0z
		 M59.499,149.757l0.755-0.762l97.183-98.128v98.89H59.499z"/>
</g>
<polygon style="fill:#CFF09E;" points="323.331,300.793 425.893,364.724 323.331,428.654 "/>
<path style="fill:#507C5C;" d="M323.332,443.481c-2.476,0-4.954-0.618-7.195-1.862c-4.71-2.614-7.631-7.576-7.631-12.964V300.793
	c0-5.386,2.922-10.349,7.631-12.964c4.704-2.612,10.463-2.47,15.039,0.381l102.561,63.93c4.344,2.707,6.983,7.464,6.983,12.582
	s-2.639,9.874-6.983,12.582l-102.561,63.93C328.778,442.729,326.058,443.481,323.332,443.481z M338.159,327.506v74.435
	l59.706-37.218L338.159,327.506z"/>
<g>
</g>
<g>
</g>
<g>
</g>
<g>
</g>
<g>
</g>
<g>
</g>
<g>
</g>
<g>
</g>
<g>
</g>
<g>
</g>
<g>
</g>
<g>
</g>
<g>
</g>
<g>
</g>
<g>
</g>
</svg>
