<?xml version="1.0" encoding="iso-8859-1"?>
<!-- Generator: Adobe Illustrator 19.0.0, SVG Export Plug-In . SVG Version: 6.00 Build 0)  -->
<svg version="1.1" id="Layer_1" xmlns="http://www.w3.org/2000/svg" xmlns:xlink="http://www.w3.org/1999/xlink" x="0px" y="0px"
	 viewBox="0 0 512 512" style="enable-background:new 0 0 512 512;" xml:space="preserve">
<polygon style="fill:#CFF09E;" points="39.171,192.008 39.171,187.217 209.852,14.876 209.852,192.008 "/>
<g>
	<path style="fill:#507C5C;" d="M472.829,512H39.171c-8.216,0-14.876-6.66-14.876-14.876V286.686c0-8.216,6.66-14.876,14.876-14.876
		s14.876,6.66,14.876,14.876v195.562h403.906V291.073c0-8.216,6.66-14.876,14.876-14.876c8.216,0,14.876,6.66,14.876,14.876v206.051
		C487.705,505.34,481.045,512,472.829,512z"/>
	<path style="fill:#507C5C;" d="M472.829,0H209.852c-0.18,0-0.357,0.021-0.536,0.027c-0.171,0.006-0.339,0.013-0.51,0.025
		c-0.641,0.045-1.276,0.118-1.901,0.244c-0.016,0.003-0.033,0.009-0.049,0.012c-0.614,0.126-1.214,0.303-1.806,0.504
		c-0.158,0.054-0.312,0.11-0.469,0.17c-0.58,0.22-1.151,0.466-1.7,0.757c-0.022,0.012-0.046,0.021-0.07,0.033
		c-0.568,0.305-1.108,0.66-1.633,1.038c-0.135,0.097-0.268,0.196-0.4,0.299c-0.522,0.402-1.028,0.827-1.497,1.3L28.602,176.748
		c-0.35,0.353-0.678,0.721-0.988,1.104c-0.213,0.262-0.4,0.536-0.592,0.808c-0.086,0.123-0.183,0.24-0.265,0.364
		c-0.22,0.332-0.415,0.675-0.605,1.02c-0.042,0.076-0.091,0.147-0.131,0.223c-0.187,0.354-0.351,0.716-0.507,1.081
		c-0.033,0.077-0.073,0.152-0.106,0.231c-0.141,0.347-0.26,0.699-0.375,1.052c-0.034,0.107-0.077,0.211-0.11,0.318
		c-0.097,0.326-0.173,0.656-0.247,0.988c-0.033,0.143-0.073,0.281-0.101,0.425c-0.06,0.305-0.097,0.611-0.137,0.918
		c-0.022,0.174-0.057,0.345-0.073,0.521c-0.028,0.303-0.034,0.607-0.045,0.91c-0.006,0.168-0.025,0.335-0.025,0.503v4.792
		c0,8.216,6.66,14.876,14.876,14.876h170.681c8.216,0,14.876-6.66,14.876-14.876V29.752h233.223v159.912
		c0,8.216,6.66,14.876,14.876,14.876c8.216,0,14.876-6.66,14.876-14.876V14.876C487.705,6.66,481.045,0,472.829,0z M70.095,177.132
		l95.033-95.957l29.847-30.137v126.096H70.095V177.132z"/>
</g>
<g>
	<rect x="320.681" y="300.107" style="fill:#CFF09E;" width="66.655" height="96.588"/>
	<polygon style="fill:#CFF09E;" points="223.453,443.766 320.684,396.688 320.684,300.1 223.453,253.023 	"/>
</g>
<g>
	<path style="fill:#507C5C;" d="M387.338,285.224h-63.242l-94.16-45.59c-4.612-2.231-10.044-1.935-14.384,0.785
		c-4.339,2.721-6.974,7.481-6.974,12.604v190.744c0,5.122,2.635,9.884,6.974,12.604c2.407,1.508,5.15,2.272,7.902,2.272
		c2.211,0,4.429-0.492,6.481-1.488l94.16-45.59h63.242c8.216,0,14.876-6.66,14.876-14.876v-96.588
		C402.214,291.884,395.554,285.224,387.338,285.224z M238.327,276.753l67.48,32.672v77.938l-67.48,32.672V276.753z M372.462,381.812
		h-36.903v-66.836h36.903V381.812z"/>
	<path style="fill:#507C5C;" d="M171.407,386.642c-3.807,0-7.615-1.452-10.519-4.357l-46.745-46.745
		c-5.809-5.809-5.809-15.228,0-21.039s15.229-5.809,21.039,0l46.745,46.745c5.809,5.809,5.809,15.228,0,21.039
		C179.021,385.19,175.213,386.642,171.407,386.642z"/>
	<path style="fill:#507C5C;" d="M124.662,386.642c-3.807,0-7.615-1.452-10.519-4.357c-5.809-5.809-5.809-15.228,0-21.039
		l46.745-46.745c5.809-5.809,15.229-5.809,21.039,0c5.809,5.809,5.809,15.228,0,21.039l-46.745,46.745
		C132.275,385.19,128.469,386.642,124.662,386.642z"/>
</g>
<g>
</g>
<g>
</g>
<g>
</g>
<g>
</g>
<g>
</g>
<g>
</g>
<g>
</g>
<g>
</g>
<g>
</g>
<g>
</g>
<g>
</g>
<g>
</g>
<g>
</g>
<g>
</g>
<g>
</g>
</svg>
