<?xml version="1.0" encoding="iso-8859-1"?>
<!-- Generator: Adobe Illustrator 19.0.0, SVG Export Plug-In . SVG Version: 6.00 Build 0)  -->
<svg version="1.1" id="Layer_1" xmlns="http://www.w3.org/2000/svg" xmlns:xlink="http://www.w3.org/1999/xlink" x="0px" y="0px"
	 viewBox="0 0 512.001 512.001" style="enable-background:new 0 0 512.001 512.001;" xml:space="preserve">
<polygon style="fill:#CFF09E;" points="436.201,410.552 398.165,372.516 436.201,334.48 405.772,304.051 367.736,342.087 
	329.7,304.051 299.271,334.48 337.307,372.516 299.271,410.552 329.7,440.981 367.736,402.945 405.772,440.981 "/>
<path style="fill:#507C5C;" d="M405.772,455.62c-3.748,0-7.493-1.429-10.352-4.288l-27.684-27.684l-27.683,27.684
	c-5.718,5.715-14.985,5.715-20.705,0l-30.429-30.427c-2.745-2.745-4.288-6.469-4.288-10.352c0-3.883,1.543-7.605,4.288-10.352
	l27.684-27.684l-27.684-27.684c-2.745-2.746-4.288-6.469-4.288-10.352s1.543-7.607,4.288-10.352l30.429-30.427
	c5.72-5.715,14.987-5.714,20.705,0l27.683,27.684l27.684-27.684c5.72-5.715,14.987-5.714,20.705,0l30.427,30.427
	c5.717,5.717,5.717,14.987,0,20.705l-27.684,27.684l27.685,27.684c2.745,2.746,4.288,6.469,4.288,10.352s-1.543,7.607-4.288,10.352
	l-30.43,30.426C413.264,454.19,409.518,455.62,405.772,455.62z M367.736,388.305c3.748,0,7.493,1.43,10.352,4.288l27.684,27.684
	l9.725-9.725l-27.684-27.684c-5.717-5.717-5.717-14.987,0-20.705l27.684-27.684l-9.725-9.725l-27.684,27.684
	c-5.72,5.717-14.987,5.715-20.705,0L329.7,324.753l-9.725,9.725l27.684,27.684c2.745,2.746,4.288,6.469,4.288,10.352
	c0,3.882-1.543,7.605-4.288,10.352l-27.684,27.684l9.725,9.725l27.683-27.684C360.242,389.735,363.988,388.305,367.736,388.305z"/>
<path style="fill:#CFF09E;" d="M219.929,75.862c0-33.812-27.41-61.224-61.224-61.224H82.026c-33.812,0-61.224,27.41-61.224,61.224
	v22.043v49.497h396.74V75.862H219.929z"/>
<path style="fill:#507C5C;" d="M479.21,292.361c-4.778-6.523-13.942-7.938-20.462-3.159c-6.524,4.78-7.938,13.939-3.159,20.462
	c13.719,18.727,20.97,40.939,20.97,64.235c0,60.004-48.818,108.822-108.824,108.822c-60.004,0-108.823-48.818-108.823-108.823
	c0-54.98,41.085-101.421,95.569-108.025c8.027-0.974,13.745-8.269,12.773-16.296c-0.974-8.026-8.27-13.728-16.296-12.773
	c-69.167,8.386-121.326,67.321-121.326,137.094c0,5.484,0.332,10.891,0.956,16.209H35.442V162.043h367.461v90.362
	c0,8.084,6.556,14.64,14.64,14.64s14.64-6.556,14.64-14.64V147.403V75.862c0-8.084-6.556-14.64-14.64-14.64H233.152
	C226.312,26.374,195.532,0,158.706,0H82.024C40.194,0,6.162,34.032,6.162,75.862v71.539v257.347c0,8.084,6.556,14.64,14.64,14.64
	H237.34c18.847,53.867,70.178,92.613,130.396,92.613c76.151,0,138.104-61.952,138.104-138.102
	C505.838,344.337,496.63,316.141,479.21,292.361z M35.442,75.862c0-25.686,20.897-46.583,46.583-46.583h76.682
	c25.686,0,46.583,20.897,46.583,46.583c0,8.084,6.556,14.64,14.64,14.64h182.972v42.259H35.44V75.862H35.442z"/>
<g>
</g>
<g>
</g>
<g>
</g>
<g>
</g>
<g>
</g>
<g>
</g>
<g>
</g>
<g>
</g>
<g>
</g>
<g>
</g>
<g>
</g>
<g>
</g>
<g>
</g>
<g>
</g>
<g>
</g>
</svg>
