<?xml version="1.0" encoding="iso-8859-1"?>
<!-- Generator: Adobe Illustrator 19.0.0, SVG Export Plug-In . SVG Version: 6.00 Build 0)  -->
<svg version="1.1" id="Layer_1" xmlns="http://www.w3.org/2000/svg" xmlns:xlink="http://www.w3.org/1999/xlink" x="0px" y="0px"
	 viewBox="0 0 512.001 512.001" style="enable-background:new 0 0 512.001 512.001;" xml:space="preserve">
<polygon style="fill:#CFF09E;" points="443.043,351 389.252,351 389.252,297.208 346.22,297.208 346.22,351 292.428,351 
	292.428,394.032 346.22,394.032 346.22,447.823 389.252,447.823 389.252,394.032 443.043,394.032 "/>
<path style="fill:#507C5C;" d="M389.252,462.463H346.22c-8.084,0-14.64-6.556-14.64-14.64v-39.151h-39.151
	c-8.084,0-14.64-6.556-14.64-14.64v-43.034c0-8.084,6.556-14.64,14.64-14.64h39.151v-39.15c0-8.084,6.556-14.64,14.64-14.64h43.032
	c8.084,0,14.64,6.556,14.64,14.64v39.15h39.151c8.084,0,14.64,6.556,14.64,14.64v43.034c0,8.084-6.556,14.64-14.64,14.64h-39.151
	v39.15C403.892,455.907,397.336,462.463,389.252,462.463z M360.859,433.183h13.753v-39.151c0-8.084,6.556-14.64,14.64-14.64h39.151
	v-13.754h-39.151c-8.084,0-14.64-6.556-14.64-14.64v-39.15H360.86v39.15c0,8.084-6.556,14.64-14.64,14.64h-39.151v13.754h39.151
	c8.084,0,14.64,6.556,14.64,14.64L360.859,433.183L360.859,433.183z"/>
<path style="fill:#CFF09E;" d="M219.929,75.862c0-33.812-27.41-61.224-61.224-61.224H82.026c-33.812,0-61.224,27.41-61.224,61.224
	v22.043v49.497h396.74V75.862H219.929z"/>
<path style="fill:#507C5C;" d="M479.21,292.361c-4.78-6.523-13.942-7.938-20.462-3.159c-6.524,4.78-7.938,13.939-3.159,20.462
	c13.719,18.727,20.97,40.939,20.97,64.235c0,60.004-48.818,108.822-108.824,108.822c-60.004,0-108.823-48.818-108.823-108.823
	c0-54.98,41.085-101.421,95.569-108.025c8.027-0.974,13.745-8.269,12.773-16.296c-0.974-8.026-8.274-13.728-16.296-12.773
	c-69.167,8.386-121.326,67.321-121.326,137.094c0,5.484,0.331,10.891,0.956,16.209H35.442V162.043h367.461v90.362
	c0,8.084,6.556,14.64,14.64,14.64s14.64-6.556,14.64-14.64V147.403V75.862c0-8.084-6.556-14.64-14.64-14.64H233.152
	C226.312,26.374,195.532,0,158.706,0H82.024C40.194,0,6.162,34.032,6.162,75.862v71.539v257.347c0,8.084,6.556,14.64,14.64,14.64
	H237.34c18.846,53.867,70.178,92.613,130.396,92.613c76.151,0,138.104-61.952,138.104-138.102
	C505.838,344.337,496.63,316.141,479.21,292.361z M35.442,75.862c0-25.686,20.897-46.583,46.583-46.583h76.682
	c25.686,0,46.583,20.897,46.583,46.583c0,8.084,6.556,14.64,14.64,14.64h182.972v42.259H35.44V75.862H35.442z"/>
<g>
</g>
<g>
</g>
<g>
</g>
<g>
</g>
<g>
</g>
<g>
</g>
<g>
</g>
<g>
</g>
<g>
</g>
<g>
</g>
<g>
</g>
<g>
</g>
<g>
</g>
<g>
</g>
<g>
</g>
</svg>
