<?xml version="1.0" encoding="iso-8859-1"?>
<!-- Generator: Adobe Illustrator 19.0.0, SVG Export Plug-In . SVG Version: 6.00 Build 0)  -->
<svg version="1.1" id="Layer_1" xmlns="http://www.w3.org/2000/svg" xmlns:xlink="http://www.w3.org/1999/xlink" x="0px" y="0px"
	 viewBox="0 0 512.001 512.001" style="enable-background:new 0 0 512.001 512.001;" xml:space="preserve">
<rect x="292.432" y="351.005" style="fill:#CFF09E;" width="150.615" height="43.032"/>
<path style="fill:#507C5C;" d="M443.044,408.672H292.429c-8.084,0-14.64-6.556-14.64-14.64v-43.034c0-8.084,6.556-14.64,14.64-14.64
	h150.615c8.084,0,14.64,6.556,14.64,14.64v43.034C457.684,402.118,451.128,408.672,443.044,408.672z M307.069,379.392h121.335
	v-13.754H307.069L307.069,379.392L307.069,379.392z"/>
<path style="fill:#CFF09E;" d="M219.93,75.862c0-33.812-27.41-61.224-61.224-61.224H82.026c-33.812,0-61.224,27.41-61.224,61.224
	v22.043v49.497h396.74V75.862H219.93z"/>
<path style="fill:#507C5C;" d="M479.21,292.361c-4.777-6.523-13.94-7.938-20.462-3.159c-6.524,4.78-7.938,13.939-3.159,20.462
	c13.719,18.727,20.97,40.939,20.97,64.235c0,60.004-48.818,108.822-108.824,108.822c-60.004,0-108.823-48.818-108.823-108.823
	c0-54.98,41.085-101.421,95.569-108.025c8.027-0.974,13.745-8.269,12.773-16.296c-0.974-8.026-8.279-13.728-16.296-12.773
	c-69.168,8.386-121.326,67.321-121.326,137.094c0,5.484,0.331,10.891,0.956,16.209H35.442V162.043h367.461v90.362
	c0,8.084,6.556,14.64,14.64,14.64s14.64-6.556,14.64-14.64V147.403V75.862c0-8.084-6.556-14.64-14.64-14.64H233.152
	C226.311,26.374,195.531,0,158.706,0H82.026C40.194,0,6.163,34.032,6.163,75.862v71.539v257.347c0,8.084,6.554,14.64,14.64,14.64
	h216.537c18.846,53.867,70.178,92.613,130.396,92.613c76.151,0,138.104-61.952,138.104-138.102
	C505.839,344.337,496.63,316.141,479.21,292.361z M35.442,75.862c0-25.686,20.897-46.583,46.584-46.583h76.681
	c25.686,0,46.584,20.897,46.584,46.583c0,8.084,6.554,14.64,14.64,14.64h182.972v42.259H35.442L35.442,75.862L35.442,75.862z"/>
<g>
</g>
<g>
</g>
<g>
</g>
<g>
</g>
<g>
</g>
<g>
</g>
<g>
</g>
<g>
</g>
<g>
</g>
<g>
</g>
<g>
</g>
<g>
</g>
<g>
</g>
<g>
</g>
<g>
</g>
</svg>
