<?xml version="1.0" encoding="iso-8859-1"?>
<!-- Generator: Adobe Illustrator 19.0.0, SVG Export Plug-In . SVG Version: 6.00 Build 0)  -->
<svg version="1.1" id="Layer_1" xmlns="http://www.w3.org/2000/svg" xmlns:xlink="http://www.w3.org/1999/xlink" x="0px" y="0px"
	 viewBox="0 0 512.001 512.001" style="enable-background:new 0 0 512.001 512.001;" xml:space="preserve">
<path style="fill:#CFF09E;" d="M394.348,402.309l49.648-49.648l-32.233-32.233l-49.648,49.648l-33.497-33.497l-32.233,32.233
	l53.765,53.765c6.608,6.608,17.323,6.608,23.932,0L394.348,402.309z"/>
<path style="fill:#507C5C;" d="M362.116,442.174c-8.43,0-16.356-3.284-22.317-9.244l-53.766-53.766
	c-2.745-2.746-4.288-6.469-4.288-10.352s1.543-7.607,4.288-10.352l32.234-32.233c5.717-5.715,14.987-5.717,20.704,0l23.147,23.147
	l39.296-39.298c2.745-2.745,6.469-4.288,10.352-4.288s7.607,1.543,10.352,4.288l32.233,32.234c5.717,5.717,5.717,14.987,0,20.705
	l-69.916,69.916C378.471,438.89,370.545,442.174,362.116,442.174z M317.088,368.812l43.413,43.413
	c0.552,0.552,1.183,0.669,1.613,0.669c0.432,0,1.063-0.117,1.615-0.669l59.564-59.564l-11.529-11.529l-39.296,39.296
	c-5.717,5.715-14.987,5.715-20.704,0l-23.147-23.147L317.088,368.812z"/>
<path style="fill:#CFF09E;" d="M219.93,75.862c0-33.812-27.41-61.224-61.224-61.224H82.027c-33.812,0-61.224,27.41-61.224,61.224
	v22.043v49.497h396.74V75.862H219.93z"/>
<path style="fill:#507C5C;" d="M479.211,292.361c-4.777-6.525-13.939-7.938-20.462-3.159c-6.522,4.778-7.936,13.939-3.158,20.462
	c13.718,18.727,20.969,40.94,20.969,64.235c0,60.004-48.818,108.822-108.823,108.822c-60.006,0-108.823-48.818-108.823-108.823
	c0-54.98,41.085-101.421,95.57-108.025c8.026-0.974,13.744-8.269,12.772-16.296c-0.974-8.027-8.276-13.734-16.294-12.773
	c-69.168,8.386-121.326,67.321-121.326,137.094c0,5.484,0.332,10.891,0.956,16.209H35.443V162.043h367.461v90.362
	c0,8.084,6.554,14.64,14.64,14.64c8.086,0,14.64-6.556,14.64-14.64V147.403V75.862c0-8.084-6.554-14.64-14.64-14.64H233.153
	C226.312,26.374,195.533,0,158.708,0H82.027C40.197,0,6.163,34.032,6.163,75.862v71.539v257.347c0,8.084,6.554,14.64,14.64,14.64
	H237.34c18.846,53.867,70.178,92.613,130.396,92.613c76.149,0,138.102-61.952,138.102-138.102
	C505.84,344.337,496.631,316.142,479.211,292.361z M35.443,75.862c0-25.686,20.897-46.583,46.584-46.583h76.681
	c25.686,0,46.584,20.897,46.584,46.583c0,8.084,6.554,14.64,14.64,14.64h182.973v42.259H35.445V75.862H35.443z"/>
<g>
</g>
<g>
</g>
<g>
</g>
<g>
</g>
<g>
</g>
<g>
</g>
<g>
</g>
<g>
</g>
<g>
</g>
<g>
</g>
<g>
</g>
<g>
</g>
<g>
</g>
<g>
</g>
<g>
</g>
</svg>
