<?xml version="1.0" encoding="iso-8859-1"?>
<!-- Generator: Adobe Illustrator 19.0.0, SVG Export Plug-In . SVG Version: 6.00 Build 0)  -->
<svg version="1.1" id="Layer_1" xmlns="http://www.w3.org/2000/svg" xmlns:xlink="http://www.w3.org/1999/xlink" x="0px" y="0px"
	 viewBox="0 0 511.998 511.998" style="enable-background:new 0 0 511.998 511.998;" xml:space="preserve">
<g>
	<path style="fill:#CFF09E;" d="M397.291,175.367v-59.234H223.093c0-35.205-28.539-63.745-63.745-63.745H79.511
		c-35.206,0.002-63.745,28.54-63.745,63.745v22.951V459.61l77.275-284.243L397.291,175.367L397.291,175.367z"/>
	<polygon style="fill:#CFF09E;" points="305.274,348.568 305.274,414.752 400.289,414.752 400.289,458.363 496.234,380.551 
		400.289,302.74 400.289,348.568 	"/>
</g>
<path style="fill:#507C5C;" d="M506.165,368.307l-95.944-77.811c-4.722-3.83-11.224-4.599-16.714-1.988
	c-5.488,2.616-8.984,8.153-8.984,14.232v30.06h-79.249c-8.708,0-15.766,7.06-15.766,15.766v66.185
	c0,8.706,7.059,15.766,15.766,15.766h79.249v13.324H36.392l68.703-252.71h292.197h56.65l-11.894,43.748
	c-2.285,8.402,2.676,17.065,11.077,19.348c8.405,2.289,17.065-2.674,19.35-11.077l17.305-63.65c1.288-4.739,0.295-9.808-2.688-13.71
	c-2.983-3.902-7.615-6.191-12.526-6.191h-61.509v-43.466c0-8.706-7.059-15.766-15.766-15.766H237.289
	c-7.336-36.315-39.496-63.745-77.941-63.745H79.511C35.668,36.624,0,72.292,0,116.133v343.475c0,0.312,0.025,0.62,0.043,0.927
	c0.008,0.137,0.008,0.276,0.019,0.413c0.047,0.56,0.123,1.112,0.227,1.654c0.014,0.071,0.035,0.139,0.049,0.208
	c0.098,0.475,0.218,0.941,0.358,1.398c0.044,0.143,0.093,0.285,0.142,0.427c0.132,0.394,0.281,0.782,0.443,1.164
	c0.06,0.142,0.12,0.284,0.184,0.424c0.207,0.445,0.43,0.88,0.676,1.301c0.033,0.057,0.06,0.115,0.093,0.17
	c0.284,0.475,0.596,0.929,0.927,1.37c0.028,0.038,0.05,0.08,0.079,0.118c0.066,0.085,0.142,0.159,0.21,0.243
	c0.254,0.318,0.517,0.626,0.795,0.924c0.12,0.129,0.24,0.257,0.364,0.382c0.309,0.311,0.632,0.605,0.966,0.889
	c0.084,0.071,0.162,0.148,0.248,0.218c0.429,0.348,0.875,0.673,1.34,0.978c0.084,0.055,0.172,0.101,0.255,0.155
	c0.383,0.24,0.777,0.464,1.184,0.67c0.136,0.069,0.274,0.136,0.412,0.2c0.375,0.178,0.758,0.341,1.151,0.489
	c0.139,0.054,0.276,0.109,0.416,0.158c0.465,0.162,0.94,0.303,1.424,0.423c0.061,0.016,0.12,0.036,0.181,0.05
	c0.49,0.113,0.989,0.208,1.496,0.276c0.041,0.005,0.08,0.003,0.12,0.008c0.621,0.079,1.249,0.123,1.882,0.126
	c0.032,0,0.063,0.006,0.095,0.006c0.013,0,0.025-0.002,0.036-0.002h381.475c7.306,0,11.315-3.458,12.928-4.766l95.944-77.813
	c3.691-2.992,5.835-7.492,5.835-12.246S509.856,371.3,506.165,368.307z M79.511,68.156h79.839c26.454,0,47.978,21.523,47.978,47.978
	c0,8.706,7.059,15.766,15.766,15.766h158.431v27.7H93.042c-7.115,0-13.348,4.765-15.214,11.631L31.533,341.517V116.133
	C31.533,89.679,53.055,68.156,79.511,68.156z M416.056,425.277v-10.526c0-8.706-7.059-15.766-15.766-15.766H321.04v-34.653h79.249
	c8.708,0,15.766-7.06,15.766-15.766v-12.741l55.149,44.724L416.056,425.277z"/>
<g>
</g>
<g>
</g>
<g>
</g>
<g>
</g>
<g>
</g>
<g>
</g>
<g>
</g>
<g>
</g>
<g>
</g>
<g>
</g>
<g>
</g>
<g>
</g>
<g>
</g>
<g>
</g>
<g>
</g>
</svg>
