<?xml version="1.0" encoding="iso-8859-1"?>
<!-- Generator: Adobe Illustrator 19.0.0, SVG Export Plug-In . SVG Version: 6.00 Build 0)  -->
<svg version="1.1" id="Capa_1" xmlns="http://www.w3.org/2000/svg" xmlns:xlink="http://www.w3.org/1999/xlink" x="0px" y="0px"
	 viewBox="0 0 311.002 311.002" style="enable-background:new 0 0 311.002 311.002;" xml:space="preserve">
<path style="fill:#5F717F;" d="M285.701,7.002c-1.6-5.2-7.6-8.4-12.8-6.4l-125.6,42l0,0c-4,1.2-6.8,5.2-6.8,9.6v162l-0.4-0.4
	c-12.4-9.6-29.2-15.6-47.6-15.6s-35.2,6-47.6,15.6c-12.8,10.4-20.8,24.8-20.8,40.8s8,30.4,20.8,40.8c12.4,9.6,29.2,15.6,47.6,15.6
	s35.2-6,47.6-15.6c12.8-10.4,20.8-24.8,20.8-40.8v-0.4v-112.8l118.4-40c0,0,0,0,0.4,0c0.8-0.4,1.6-0.8,2.4-1.2
	c0.4-0.4,0.8-0.4,1.2-0.8c0.8-0.4,1.2-1.2,1.6-2c0.4-0.4,0.4-0.8,0.8-1.2c0.4-0.8,0.4-1.6,0.8-2.4c0-0.4,0.4-1.2,0.4-1.6v-0.4v-81.6
	l0,0C286.101,9.002,286.101,7.802,285.701,7.002z M126.901,279.002c-8.8,6.8-21.2,11.2-34.8,11.2s-26-4.4-34.8-11.2
	c-8-6.4-13.2-15.2-13.2-24.4c0-9.6,5.2-18,13.2-24.4c8.8-6.8,21.2-11.2,34.8-11.2s26,4.4,34.8,11.2c8,6.4,13.2,15.2,13.2,24.4
	C140.101,264.202,135.301,272.602,126.901,279.002z M160.501,59.802l104.8-35.2v60.4l-104.8,35.2L160.501,59.802z"/>
<g>
	<path style="fill:#C0DC93;" d="M92.101,218.602c-13.6,0-26,4.4-34.8,11.2c-8,6.4-13.2,15.2-13.2,24.4c0,9.6,5.2,18,13.2,24.4
		c8.8,6.8,21.2,11.2,34.8,11.2s26-4.4,34.8-11.2c8-6.4,13.2-15.2,13.2-24.4c0-9.6-5.2-18-13.2-24.4
		C118.101,223.002,106.101,218.602,92.101,218.602z"/>
	<polygon style="fill:#C0DC93;" points="160.501,120.202 265.701,84.602 265.701,24.202 160.501,59.802 	"/>
</g>
<g>
</g>
<g>
</g>
<g>
</g>
<g>
</g>
<g>
</g>
<g>
</g>
<g>
</g>
<g>
</g>
<g>
</g>
<g>
</g>
<g>
</g>
<g>
</g>
<g>
</g>
<g>
</g>
<g>
</g>
</svg>
