<?xml version="1.0" encoding="iso-8859-1"?>
<!-- Generator: Adobe Illustrator 19.0.0, SVG Export Plug-In . SVG Version: 6.00 Build 0)  -->
<svg version="1.1" id="Capa_1" xmlns="http://www.w3.org/2000/svg" xmlns:xlink="http://www.w3.org/1999/xlink" x="0px" y="0px"
	 viewBox="0 0 348 348" style="enable-background:new 0 0 348 348;" xml:space="preserve">
<g>
	<path style="fill:#FFFFFF;" d="M58.8,50.2H18c-4.4,0-7.6,3.6-7.6,7.6v142c0,4.4,3.6,7.6,7.6,7.6h40.8c4.4,0,7.6-3.6,7.6-7.6v-142
		C66.8,53.4,63.2,50.2,58.8,50.2z"/>
	<path style="fill:#9DA7B0;" d="M72,65h27.2c2.8,0,5.2,2.4,5.2,5.2v54.4c0,2.8-2.4,5.2-5.2,5.2H72c-2.8,0-5.2-2.4-5.2-5.2V70.2
		C66.8,67.4,69.2,65,72,65z"/>
	<g>
		<path style="fill:#FFFFFF;" d="M104.4,54.6h7.6c22.8,0,41.6,18.8,41.6,41.6v2.4c0,22.8-18.8,41.6-41.6,41.6h-7.6L104.4,54.6
			L104.4,54.6z"/>
		<path style="fill:#FFFFFF;" d="M288.4,50.2h40.8c4.4,0,7.6,3.6,7.6,7.6v142c0,4.4-3.6,7.6-7.6,7.6h-40.8c-4.4,0-7.6-3.6-7.6-7.6
			v-142C280.4,53.4,284,50.2,288.4,50.2z"/>
	</g>
	<path style="fill:#9DA7B0;" d="M275.2,65H248c-2.8,0-5.2,2.4-5.2,5.2v54.4c0,2.8,2.4,5.2,5.2,5.2h27.2c2.8,0,5.2-2.4,5.2-5.2V70.2
		C280.4,67.4,278,65,275.2,65z"/>
	<path style="fill:#FFFFFF;" d="M242.8,54.6h-7.6c-22.8,0-41.6,18.8-41.6,41.6v2.4c0,22.8,18.8,41.6,41.6,41.6h7.6V54.6z"/>
</g>
<g>
	<path style="fill:#5F717F;" d="M111.6,44.2H104c-5.6,0-10.4,4.4-10.4,10.4V55H76c-0.8-3.6-2-7.2-4.8-9.6l0,0
		c-3.2-3.2-7.6-5.2-12.8-5.2H18c-4.8,0-9.6,2-12.8,5.2l0,0C2,48.6,0,53,0,58.2v142c0,4.8,2,9.6,5.2,12.8l0,0
		c3.2,3.2,7.6,5.2,12.8,5.2h10.4v79.6c0,5.6,4.4,10.4,10.4,10.4c5.6,0,10.4-4.4,10.4-10.4v-80h10.4c4.8,0,9.6-2,12.8-5.2l0,0
		c3.2-3.2,5.2-7.6,5.2-12.8v-59.6h17.2v0.4c0,5.6,4.4,10.4,10.4,10.4h7.6c14.4,0,27.2-6,36.8-15.2c9.6-9.6,15.2-22.4,15.2-36.8v-2.4
		c0-14.4-6-27.2-15.2-36.8C139.2,50.2,126,44.2,111.6,44.2z M56.4,197.4h-36V60.2h36v10v54.4V197.4z M76.8,119.8V75.4H94v44.4H76.8z
		 M143.2,98.6c0,8.8-3.6,16.4-9.2,22.4c-5.2,5.2-12,8.4-19.6,9.2v-5.6V70.2v-5.6c7.6,0.8,14.4,4,19.6,9.2c5.6,5.6,9.2,13.6,9.2,22.4
		V98.6z"/>
	<path style="fill:#5F717F;" d="M342,45c-3.2-3.2-7.6-5.2-12.8-5.2h-40.8c-4.8,0-9.6,2-12.8,5.2l0,0c-2.4,2.4-4,6-4.8,9.6h-17.6
		v-0.4c0-5.6-4.4-10.4-10.4-10.4h-7.6c-14.4,0-27.2,6-36.8,15.2c-9.6,9.6-15.2,22.4-15.2,36.8v2.4c0,14.4,6,27.2,15.2,36.8
		c9.6,9.6,22.4,15.2,36.8,15.2h7.6c5.6,0,10.4-4.4,10.4-10.4v-0.4h17.2V199c0,4.8,2,9.6,5.2,12.8l0,0c3.2,3.2,7.6,5.2,12.8,5.2h10.4
		v79.6c0,5.6,4.4,10.4,10.4,10.4c5.6,0,10.4-4.4,10.4-10.4v-78.8H330c4.8,0,9.6-2,12.8-5.2l0,0c3.2-3.2,5.2-7.6,5.2-12.8v-142
		C347.2,53,345.2,48.2,342,45L342,45z M213.2,121c-5.6-5.6-9.2-13.6-9.2-22.4v-2.4c0-8.8,3.6-16.4,9.2-22.4c5.2-5.2,12-8.4,19.6-9.2
		v5.6l0,0v54.4l0,0v5.6C225.2,129.4,218.4,126.2,213.2,121z M253.2,119.8V75.4h17.2v44.4H253.2z M326.8,197.4h-36v-72.8V70.2v-10h36
		V197.4z"/>
</g>
<g>
</g>
<g>
</g>
<g>
</g>
<g>
</g>
<g>
</g>
<g>
</g>
<g>
</g>
<g>
</g>
<g>
</g>
<g>
</g>
<g>
</g>
<g>
</g>
<g>
</g>
<g>
</g>
<g>
</g>
</svg>
