<?xml version="1.0" encoding="iso-8859-1"?>
<!-- Generator: Adobe Illustrator 19.0.0, SVG Export Plug-In . SVG Version: 6.00 Build 0)  -->
<svg version="1.1" id="Capa_1" xmlns="http://www.w3.org/2000/svg" xmlns:xlink="http://www.w3.org/1999/xlink" x="0px" y="0px"
	 viewBox="0 0 344.8 344.8" style="enable-background:new 0 0 344.8 344.8;" xml:space="preserve">
<g>
	<circle style="fill:#9DA7B0;" cx="172.4" cy="174" r="160.4"/>
	<circle style="fill:#FFFFFF;" cx="172.4" cy="174" r="67.2"/>
</g>
<path style="fill:#FBCFC1;" d="M172.4,116.8c-14.8,0-29.2,5.6-40.4,16.8l0,0c-11.2,11.2-16.8,25.6-16.8,40.4s5.6,29.2,16.8,40.4l0,0
	l0,0c11.2,11.2,25.6,16.8,40.4,16.8l0,0c14.8,0,29.2-5.6,40.4-16.8l0,0l0,0c11.2-11.2,16.8-25.6,16.8-40.4s-5.6-29.2-16.8-40.4l0,0
	C201.6,122.4,187.2,116.8,172.4,116.8z M117.6,118.8c15.2-14.8,34.8-22.4,54.8-22.4s39.6,7.6,54.8,22.8l0,0
	c15.2,15.2,22.8,35.2,22.8,54.8c0,20-7.6,39.6-22.8,54.8l0,0l0,0C212,244,192,251.6,172.4,251.6l0,0c-20,0-39.6-7.6-54.8-22.8l0,0
	l0,0c-15.2-15.2-22.8-35.2-22.8-54.8C94.8,154,102.4,134,117.6,118.8L117.6,118.8z"/>
<g>
	<path style="fill:#5F717F;" d="M250.4,281.6c-7.6,8.4-20.4,9.2-28.8,2c-8.4-7.6-9.2-20.4-2-28.8l22.4-25.6c7.6-8.4,20.4-9.2,28.8-2
		c8.4,7.6,9.2,20.4,2,28.8L250.4,281.6z"/>
	<path style="fill:#5F717F;" d="M314.4,10.4C314.4,4.8,310,0,304,0c-5.6,0-10.4,4.4-10.4,10.4V54c-0.4-0.4-0.4-0.4-0.8-0.8l0,0l0,0
		C260,19.6,216,3.2,172.4,3.2S84.8,20,51.6,53.2l0,0l0,0c-33.2,33.2-50,77.2-50,120.8s16.8,87.6,50,120.8l0,0l0,0
		c33.2,33.2,77.2,50,120.8,50s87.6-16.8,120.8-50l0,0l0,0c33.2-33.2,50-77.2,50-120.8c0-33.2-9.6-66-28.8-94.8V10.4z M322.8,174
		c0,38.4-14.8,76.8-44,106.4l0,0l0,0c-29.2,29.2-68,44-106.4,44s-76.8-14.8-106.4-44l0,0l0,0c-29.2-29.2-44-68-44-106.4
		S36.8,97.2,66,67.6l0,0l0,0c29.2-29.2,68-44,106.4-44s76.8,14.8,106.4,44l0,0l0,0c5.6,5.6,10.8,12,15.2,18v99.2l-91.2,104
		c-3.6,4.4-3.2,10.8,0.8,14.4c4.4,3.6,10.8,3.2,14.4-0.8L311.2,196c2-2,3.2-4.4,3.2-7.2v-63.6C320,141.2,322.8,157.6,322.8,174z"/>
	<path style="fill:#5F717F;" d="M197.6,148.8L197.6,148.8c-6.8-6.8-16-10.4-25.2-10.4c-9.2,0-18,3.6-25.2,10.4l0,0
		c-6.8,6.8-10.4,16-10.4,25.2s3.6,18,10.4,25.2l0,0c6.8,6.8,16,10.4,25.2,10.4c9.2,0,18-3.6,25.2-10.4l0,0
		c6.8-6.8,10.4-16,10.4-25.2S204.4,155.6,197.6,148.8z M183.2,184.4L183.2,184.4c-2.8,2.8-6.8,4.4-10.8,4.4c-4,0-7.6-1.6-10.8-4.4
		l0,0c-2.8-2.8-4.4-6.8-4.4-10.8s1.6-7.6,4.4-10.8l0,0c2.8-2.8,6.8-4.4,10.8-4.4c4,0,7.6,1.6,10.8,4.4l0,0c2.8,2.8,4.4,6.8,4.4,10.8
		C187.2,177.6,186,181.6,183.2,184.4z"/>
</g>
<g>
</g>
<g>
</g>
<g>
</g>
<g>
</g>
<g>
</g>
<g>
</g>
<g>
</g>
<g>
</g>
<g>
</g>
<g>
</g>
<g>
</g>
<g>
</g>
<g>
</g>
<g>
</g>
<g>
</g>
</svg>
