<?xml version="1.0" encoding="iso-8859-1"?>
<!-- Generator: Adobe Illustrator 19.0.0, SVG Export Plug-In . SVG Version: 6.00 Build 0)  -->
<svg version="1.1" id="Capa_1" xmlns="http://www.w3.org/2000/svg" xmlns:xlink="http://www.w3.org/1999/xlink" x="0px" y="0px"
	 viewBox="0 0 319.6 319.6" style="enable-background:new 0 0 319.6 319.6;" xml:space="preserve">
<g>
	<path style="fill:#FFFFFF;" d="M58.4,290.2h202c26.8,0,48.8-22,48.8-48.8V78.2c0-26.8-22-48.8-48.8-48.8h-202
		c-26.8,0-48.8,22-48.8,48.8v163.2C10,268.2,32,290.2,58.4,290.2z"/>
	<g>
		<path style="fill:#9DA7B0;" d="M73.6,29.4h8.8c8.4,0,14.8,6.8,14.8,14.8v130c0,8.4-6.8,14.8-14.8,14.8h-8.8
			c-8.4,0-14.8-6.8-14.8-14.8V44.6C58.4,36.2,65.2,29.4,73.6,29.4z"/>
		<path style="fill:#9DA7B0;" d="M155.2,29.4h8.8c8.4,0,14.8,6.8,14.8,14.8v130c0,8.4-6.8,14.8-14.8,14.8h-8.8
			c-8.4,0-14.8-6.8-14.8-14.8V44.6C140,36.2,146.8,29.4,155.2,29.4z"/>
		<path style="fill:#9DA7B0;" d="M236.8,29.4h8.8c8.4,0,14.8,6.8,14.8,14.8v130c0,8.4-6.8,14.8-14.8,14.8h-8.8
			c-8.4,0-14.8-6.8-14.8-14.8V44.6C221.6,36.2,228.4,29.4,236.8,29.4z"/>
	</g>
</g>
<path style="fill:#5F717F;" d="M260.8,19.4H246h-8.8H164h-8.8H82.4h-8.8H58.8c-16.4,0-30.8,6.8-41.6,17.2C6.4,47.4,0,62.2,0,78.2
	v163.2c0,16.4,6.8,30.8,17.2,41.6c10.8,10.8,25.6,17.2,41.6,17.2h202c16.4,0,30.8-6.8,41.6-17.2c10.8-10.8,17.2-25.6,17.2-41.6V78.2
	c0-16.4-6.8-30.8-17.2-41.6C291.6,25.8,276.8,19.4,260.8,19.4z M88.4,198.6c4.4-1.2,8.8-3.2,12-6.4l0,0l0,0c4.4-4.4,7.6-10.8,7.6-18
	V44.6c0-1.6-0.8-3.2-0.8-4.8h24c-0.4,1.6-0.8,3.2-0.8,4.8v130c0,6.4,2.4,12.4,6.8,17.2c0.4,0.4,0.4,0.4,0.8,0.8
	c3.2,3.2,7.6,5.2,12,6.4v80.8H88.4V198.6z M170,198.6c4.4-1.2,8.8-3.2,12-6.4l0,0l0,0c4.4-4.4,7.6-10.8,7.6-18V44.6
	c0-1.6-0.8-3.2-0.8-4.8h24c-0.4,1.6-0.8,3.2-0.8,4.8v130c0,6.4,2.4,12.8,6.8,17.2c0.4,0.4,0.4,0.4,0.8,0.8c3.2,3.2,7.6,5.2,12,6.4
	v80.8H170V198.6z M245.6,39.8c1.2,0,2.4,0.4,3.2,1.2l0.4,0.4c0.8,0.8,1.2,2,1.2,3.2v130c0,1.2-0.4,2.4-1.2,3.2l0,0
	c-0.8,0.8-2,1.2-3.2,1.2h-8.8c-1.2,0-2.4-0.4-3.2-1.2l-0.4-0.4c-0.8-0.8-1.2-2-1.2-3.2V44.6c0-1.2,0.4-2.4,1.2-3.2
	c0.8-0.8,2-1.2,3.2-1.2h8.8V39.8z M164,39.8c1.2,0,2.4,0.4,3.2,1.2l0.4,0.4c0.8,0.8,1.2,2,1.2,3.2v130c0,1.2-0.4,2.4-1.2,3.2l0,0
	c-0.8,0.8-2,1.2-3.2,1.2h-8.8c-1.2,0-2.4-0.4-3.2-1.2l-0.8-0.4c-0.8-0.8-1.2-2-1.2-3.2V44.6c0-1.2,0.4-2.4,1.2-3.2l0,0l0,0
	c0.8-0.8,2-1.2,3.2-1.2h9.2V39.8z M82.4,39.8c1.2,0,2.4,0.4,3.2,1.2s1.2,2,1.2,3.2v130c0,1.2-0.4,2.4-1.2,3.2l0,0
	c-0.8,0.8-2,1.2-3.2,1.2h-8.8c-1.2,0-2.4-0.4-3.2-1.2L70,177c-0.8-0.8-1.2-2-1.2-3.2V44.6c0-1.2,0.4-2.4,1.2-3.2l0,0l0,0
	c0.8-0.8,2-1.2,3.2-1.2h9.2V39.8z M31.6,268.6c-6.8-6.8-11.2-16.4-11.2-27.2V78.2c0-10.4,4.4-20,11.2-27.2c4.8-4.8,10.8-8,17.6-10
	c0,1.2-0.8,2-0.8,3.2v130c0,6.4,2.4,12.4,6.8,17.2c0,0.4,0.4,0.4,0.4,0.8c3.2,3.2,7.6,5.2,12,6.4v81.2h-9.2
	C48,279.8,38.4,275.4,31.6,268.6z M298.8,241.4c0,10.4-4.4,20-11.2,27.2c-6.8,6.8-16.4,11.2-27.2,11.2h-8.8v-81.2
	c4.4-1.2,8.8-3.2,12-6.4l0,0l0,0c4.4-4.4,7.6-10.8,7.6-18V44.6c0-1.2-0.4-2-0.8-3.2c6.8,1.6,12.8,5.2,17.6,10
	c6.8,6.8,11.2,16.4,11.2,27.2v162.8H298.8z"/>
<g>
</g>
<g>
</g>
<g>
</g>
<g>
</g>
<g>
</g>
<g>
</g>
<g>
</g>
<g>
</g>
<g>
</g>
<g>
</g>
<g>
</g>
<g>
</g>
<g>
</g>
<g>
</g>
<g>
</g>
</svg>
