<?xml version="1.0" encoding="iso-8859-1"?>
<!-- Generator: Adobe Illustrator 19.0.0, SVG Export Plug-In . SVG Version: 6.00 Build 0)  -->
<svg version="1.1" id="Capa_1" xmlns="http://www.w3.org/2000/svg" xmlns:xlink="http://www.w3.org/1999/xlink" x="0px" y="0px"
	 viewBox="0 0 350 350" style="enable-background:new 0 0 350 350;" xml:space="preserve">
<g>
	<path style="fill:#FAF298;" d="M89.6,174.8L89.6,174.8c17.6,0,32.4,14.4,32.4,32.4v93.2c0,17.6-14.4,32.4-32.4,32.4
		c-17.6,0-32.4-14.4-32.4-32.4v-93.2C57.2,189.2,72,174.8,89.6,174.8z"/>
	<path style="fill:#C0DC93;" d="M57.2,253.6v47.2c-26,0-47.2-21.2-47.2-47.2s21.2-47.2,47.2-47.2V253.6z"/>
	<path style="fill:#FAF298;" d="M260,174.8L260,174.8c-17.6,0-32.4,14.4-32.4,32.4v93.2c0,17.6,14.4,32.4,32.4,32.4
		c17.6,0,32.4-14.4,32.4-32.4v-93.2C292.4,189.2,277.6,174.8,260,174.8z"/>
	<path style="fill:#C0DC93;" d="M292.4,253.6v47.2c26,0,47.2-21.2,47.2-47.2s-21.2-47.2-47.2-47.2V253.6z"/>
</g>
<path style="fill:#5F717F;" d="M329.2,210l-0.4-48.8l0,0c0-42.4-17.2-81.2-45.2-108.8C256,24,217.2,6.8,174.8,6.8S93.6,24,66,52
	c-28,28-45.2,66.4-45.2,108.8c0,0,0,0,0,0.4l0.4,48.4c-1.6,1.2-3.2,2.4-4.4,3.6C6.4,223.6,0,238,0,253.6s6.4,30,16.8,40.4
	c8.4,8.4,19.2,14,31.6,16c2,7.6,5.6,14.8,11.2,20c7.6,7.6,18.4,12.4,30,12.4s22.4-4.8,30-12.4s12.4-18.4,12.4-30v-92.8
	c0-11.6-4.8-22.4-12.4-30c-7.6-7.6-18.4-12.4-30-12.4s-22.4,4.8-30,12.4c-5.6,5.6-9.2,12.4-11.2,20c-2.4,0.4-4.4,0.8-6.8,1.6
	l-0.4-37.6l0,0c0-36.8,14.8-70.4,39.2-94.4c24-24,57.6-39.2,94.4-39.2s70.4,14.8,94.4,39.2c24,24,39.2,57.6,39.2,94.4c0,0,0,0,0,0.4
	l0.4,37.6c-2.4-0.8-4.8-1.2-7.2-1.6c-2-7.6-5.6-14.8-11.2-20c-7.6-7.6-18.4-12.4-30-12.4c-11.6,0-22.4,4.8-30,12.4
	c-7.6,7.6-12.4,18.4-12.4,30v93.2c0,11.6,4.8,22.4,12.4,30s18.4,12.4,30,12.4c11.6,0,22.4-4.8,30-12.4c5.6-5.6,9.2-12.4,11.2-20
	c12.4-2,23.2-7.6,31.6-16c10.4-10.4,16.8-24.8,16.8-40.4c0-16-6.4-30-16.8-40.4C331.6,212,330.4,211.2,329.2,210z M89.6,185.2
	c6,0,11.6,2.4,15.6,6.4s6.4,9.6,6.4,15.6v93.2c0,6-2.4,11.6-6.4,15.6s-9.6,6.4-15.6,6.4S78,320,74,316s-6.4-9.6-6.4-15.6v-46.8
	v-46.4c0-6,2.4-11.6,6.4-15.6S83.6,185.2,89.6,185.2z M47.2,253.6v35.2c-6-1.6-11.6-5.2-15.6-9.2c-6.8-6.8-10.8-16-10.8-26
	s4-19.2,10.8-26c4.4-4.4,9.6-7.6,15.6-9.2V253.6z M260,322c-6,0-11.6-2.4-15.6-6.4S238,306,238,300v-92.8c0-6,2.4-11.6,6.4-15.6
	s9.6-6.4,15.6-6.4c6,0,11.6,2.4,15.6,6.4s6.4,9.6,6.4,15.6v46.4V300c0,6-2.4,11.6-6.4,15.6C271.6,319.6,266,322,260,322z
	 M318.4,279.6c-4.4,4.4-9.6,7.6-15.6,9.2v-35.2v-35.2c6,1.6,11.6,5.2,15.6,9.2c6.8,6.8,10.8,16,10.8,26S324.8,272.8,318.4,279.6z"/>
<g>
</g>
<g>
</g>
<g>
</g>
<g>
</g>
<g>
</g>
<g>
</g>
<g>
</g>
<g>
</g>
<g>
</g>
<g>
</g>
<g>
</g>
<g>
</g>
<g>
</g>
<g>
</g>
<g>
</g>
</svg>
