<?xml version="1.0" encoding="iso-8859-1"?>
<!-- Generator: Adobe Illustrator 19.0.0, SVG Export Plug-In . SVG Version: 6.00 Build 0)  -->
<svg version="1.1" id="Capa_1" xmlns="http://www.w3.org/2000/svg" xmlns:xlink="http://www.w3.org/1999/xlink" x="0px" y="0px"
	 viewBox="0 0 336.4 336.4" style="enable-background:new 0 0 336.4 336.4;" xml:space="preserve">
<path style="fill:#9DA7B0;" d="M64.8,10.4H272c8,0,14.4,6.4,14.4,14.4V312c0,8-6.4,14.4-14.4,14.4H64.8c-8,0-14.4-6.4-14.4-14.4
	V24.8C50.4,16.8,56.8,10.4,64.8,10.4z"/>
<g>
	<path style="fill:#FBCFC1;" d="M196.8,204.4c-7.2-7.2-17.2-12-28.4-12s-21.2,4.4-28.4,12c-7.2,7.2-11.6,17.6-11.6,28.8
		c0,11.2,4.4,21.6,11.6,28.8c7.2,7.2,17.2,12,28.4,12c11.2,0,21.2-4.4,28.4-12c7.2-7.2,11.6-17.6,11.6-28.8
		C208.4,221.6,204,211.6,196.8,204.4z M168.4,172c16.8,0,32,6.8,42.8,18s17.6,26.4,17.6,43.2c0,16.8-6.8,32-17.6,43.2
		c-10.8,11.2-26,18-42.8,18c-16.8,0-32-6.8-42.8-18S108,250,108,233.2c0-16.8,6.8-32,17.6-43.2S151.6,172,168.4,172z"/>
	<path style="fill:#FBCFC1;" d="M186,70.4c-4.4-4.4-10.8-7.2-17.6-7.2c-6.8,0-13.2,2.8-17.6,7.2c-4.4,4.4-7.2,10.8-7.2,18
		s2.8,13.2,7.2,18c4.4,4.4,10.8,7.2,17.6,7.2s13.2-2.8,17.6-7.2s7.2-10.8,7.2-18C193.2,81.2,190.4,74.8,186,70.4z M168.4,42.4
		c12.4,0,24,5.2,32,13.6c8.4,8.4,13.2,19.6,13.2,32.4c0,12.8-5.2,24-13.2,32.4c-8.4,8.4-19.6,13.6-32,13.6s-24-5.2-32-13.6
		c-8.4-8.4-13.2-19.6-13.2-32.4c0-12.8,5.2-24,13.2-32.4C144.4,47.6,156,42.4,168.4,42.4z"/>
</g>
<g>
	<ellipse style="fill:#FFFFFF;" cx="168.4" cy="88.4" rx="9.6" ry="9.6"/>
	<ellipse style="fill:#FFFFFF;" cx="168.4" cy="233.2" rx="12" ry="12.4"/>
</g>
<path style="fill:#5F717F;" d="M40,312c0,6.8,2.8,12.8,7.2,17.2l0,0l0,0c4.4,4.4,10.8,7.2,17.2,7.2h207.2c6.8,0,12.8-2.8,17.6-7.2
	s7.2-10.8,7.2-17.6V24.8c0-6.8-2.8-12.8-7.2-17.6S278.4,0,271.6,0H64.8C58,0,52,2.8,47.2,7.2l0,0C42.8,11.6,40,18,40,24.8
	C40,24.8,40,312,40,312z M60.8,24.8c0-1.2,0.4-2,1.2-2.8l0,0c0.8-0.8,1.6-1.2,2.8-1.2H272c1.2,0,2,0.4,2.8,1.2
	c0.8,0.8,1.2,1.6,1.2,2.8V312c0,1.2-0.4,2-1.2,2.8c-0.8,0.8-1.6,1.2-2.8,1.2H64.8c-1.2,0-2-0.4-2.8-1.2l0,0
	c-0.8-0.8-1.2-1.6-1.2-2.8V24.8z"/>
<g>
</g>
<g>
</g>
<g>
</g>
<g>
</g>
<g>
</g>
<g>
</g>
<g>
</g>
<g>
</g>
<g>
</g>
<g>
</g>
<g>
</g>
<g>
</g>
<g>
</g>
<g>
</g>
<g>
</g>
</svg>
