<?xml version="1.0" encoding="iso-8859-1"?>
<!-- Generator: Adobe Illustrator 19.0.0, SVG Export Plug-In . SVG Version: 6.00 Build 0)  -->
<svg version="1.1" id="Capa_1" xmlns="http://www.w3.org/2000/svg" xmlns:xlink="http://www.w3.org/1999/xlink" x="0px" y="0px"
	 viewBox="0 0 319.6 319.6" style="enable-background:new 0 0 319.6 319.6;" xml:space="preserve">
<g>
	<path style="fill:#FFFFFF;" d="M63.6,71.4C63.6,65.8,68,61,74,61c5.6,0,10.4,4.4,10.4,10.4v176.4c0,5.6-4.4,10.4-10.4,10.4
		c-5.6,0-10.4-4.4-10.4-10.4V71.4z"/>
	<path style="fill:#FFFFFF;" d="M120.8,71.4c0-5.6,4.4-10.4,10.4-10.4c5.6,0,10.4,4.4,10.4,10.4v176.4c0,5.6-4.4,10.4-10.4,10.4
		c-5.6,0-10.4-4.4-10.4-10.4V71.4z"/>
	<path style="fill:#FFFFFF;" d="M178.4,71.4c0-5.6,4.4-10.4,10.4-10.4c5.6,0,10.4,4.4,10.4,10.4v176.4c0,5.6-4.4,10.4-10.4,10.4
		c-5.6,0-10.4-4.4-10.4-10.4V71.4z"/>
	<path style="fill:#FFFFFF;" d="M236,71.4c0-5.6,4.4-10.4,10.4-10.4c5.6,0,10.4,4.4,10.4,10.4v176.4c0,5.6-4.4,10.4-10.4,10.4
		c-5.6,0-10.4-4.4-10.4-10.4V71.4z"/>
	<g>
		<circle style="fill:#FFFFFF;" cx="73.6" cy="196.6" r="19.2"/>
		<circle style="fill:#FFFFFF;" cx="131.2" cy="132.6" r="19.2"/>
		<circle style="fill:#FFFFFF;" cx="188.8" cy="196.6" r="19.2"/>
		<circle style="fill:#FFFFFF;" cx="246.4" cy="132.6" r="19.2"/>
	</g>
</g>
<path style="fill:#9DA7B0;" d="M93.2,196.6c0,6.8-3.6,12.8-9.2,16.4v35.2c0,5.6-4.4,10.4-10.4,10.4c-5.6,0-10.4-4.4-10.4-10.4V213
	c-5.6-3.6-9.2-9.6-9.2-16.4s3.6-12.8,9.2-16.4V71.4c0-5.6,4.4-10.4,10.4-10.4C79.2,61,84,65.4,84,71.4v108.4
	C89.6,183.4,93.2,189.4,93.2,196.6z M58.8,279.8h202c10.4,0,20-4.4,27.2-11.2c6.8-6.8,11.2-16.4,11.2-27.2V78.2
	c0-10.4-4.4-20-11.2-27.2c-6.8-6.8-16.4-11.2-27.2-11.2h-202c-10.4,0-20,4.4-27.2,11.2c-6.8,6.8-11.2,16.4-11.2,27.2v163.2
	c0,10.4,4.4,20,11.2,27.2C38.8,275.4,48.4,279.8,58.8,279.8z M236,149c-5.6-3.6-9.2-9.6-9.2-16.4c0-6.8,3.6-12.8,9.2-16.4V71.4
	c0-5.6,4.4-10.4,10.4-10.4c5.6,0,10.4,4.4,10.4,10.4v44.4c5.6,3.6,9.2,9.6,9.2,16.4c0,6.8-3.6,12.8-9.2,16.4v99.2
	c0,5.6-4.4,10.4-10.4,10.4c-5.6,0-10.4-4.4-10.4-10.4V149z M169.2,196.6c0-6.8,3.6-12.8,9.2-16.4V71.4c0-5.6,4.4-10.4,10.4-10.4
	c5.6,0,10.4,4.4,10.4,10.4v108.4c5.6,3.6,9.2,9.6,9.2,16.4s-3.6,12.8-9.2,16.4v35.2c0,5.6-4.4,10.4-10.4,10.4
	c-5.6,0-10.4-4.4-10.4-10.4v-35.2C173.2,209.4,169.2,203.4,169.2,196.6z M120.8,248.2V149c-5.6-3.6-9.2-9.6-9.2-16.4
	c0-6.8,3.6-12.8,9.2-16.4V71.4c0-5.6,4.4-10.4,10.4-10.4c5.6,0,10.4,4.4,10.4,10.4v44.4c5.6,3.6,9.2,9.6,9.2,16.4
	c0,6.8-3.6,12.8-9.2,16.4v99.2c0,5.6-4.4,10.4-10.4,10.4C125.6,258.2,120.8,253.8,120.8,248.2z"/>
<path style="fill:#5F717F;" d="M58.8,300.2h202c16.4,0,30.8-6.8,41.6-17.2c10.8-10.8,17.2-25.6,17.2-41.6V78.2
	c0-16.4-6.8-30.8-17.2-41.6c-10.8-10.8-25.6-17.2-41.6-17.2h-202c-16.4,0-30.8,6.8-41.6,17.2C6.4,47.4,0,62.2,0,78.2v163.2
	c0,16.4,6.8,30.8,17.2,41.6C28,293.8,42.8,300.2,58.8,300.2z M20.8,78.2c0-10.4,4.4-20,11.2-27.2c6.8-6.8,16.4-11.2,27.2-11.2h202
	c10.4,0,20,4.4,27.2,11.2c6.8,6.8,11.2,16.4,11.2,27.2v163.2c0,10.4-4.4,20-11.2,27.2c-6.8,6.8-16.4,11.2-27.2,11.2H58.8
	c-10.4,0-20-4.4-27.2-11.2c-6.8-6.8-11.2-16.4-11.2-27.2V78.2H20.8z"/>
<g>
</g>
<g>
</g>
<g>
</g>
<g>
</g>
<g>
</g>
<g>
</g>
<g>
</g>
<g>
</g>
<g>
</g>
<g>
</g>
<g>
</g>
<g>
</g>
<g>
</g>
<g>
</g>
<g>
</g>
</svg>
