<?xml version="1.0" encoding="iso-8859-1"?>
<!-- Generator: Adobe Illustrator 19.0.0, SVG Export Plug-In . SVG Version: 6.00 Build 0)  -->
<svg version="1.1" id="Capa_1" xmlns="http://www.w3.org/2000/svg" xmlns:xlink="http://www.w3.org/1999/xlink" x="0px" y="0px"
	 viewBox="0 0 319.6 319.6" style="enable-background:new 0 0 319.6 319.6;" xml:space="preserve">
<g>
	<path style="fill:#FFFFFF;" d="M60,88.2c-5.6,0-10.4-4.4-10.4-10.4c0-5.6,4.4-10.4,10.4-10.4h32c5.6,0,10.4,4.4,10.4,10.4
		c0,5.6-4.4,10.4-10.4,10.4H60z"/>
	<path style="fill:#FFFFFF;" d="M60,121c-5.6,0-10.4-4.4-10.4-10.4S54,100.2,60,100.2h32c5.6,0,10.4,4.4,10.4,10.4S98,121,92,121H60
		z"/>
	<path style="fill:#FFFFFF;" d="M60,153.8c-5.6,0-10.4-4.4-10.4-10.4c0-5.6,4.4-10.4,10.4-10.4h32c5.6,0,10.4,4.4,10.4,10.4
		c0,5.6-4.4,10.4-10.4,10.4H60z"/>
	<path style="fill:#FFFFFF;" d="M60,186.6c-5.6,0-10.4-4.4-10.4-10.4S54,165.8,60,165.8h32c5.6,0,10.4,4.4,10.4,10.4
		S98,186.6,92,186.6H60z"/>
	<path style="fill:#FFFFFF;" d="M60,219c-5.6,0-10.4-4.4-10.4-10.4c0-5.6,4.4-10.4,10.4-10.4h32c5.6,0,10.4,4.4,10.4,10.4
		c0,5.6-4.4,10.4-10.4,10.4H60z"/>
	<path style="fill:#FFFFFF;" d="M60,251.8c-5.6,0-10.4-4.4-10.4-10.4c0-5.6,4.4-10.4,10.4-10.4h32c5.6,0,10.4,4.4,10.4,10.4
		c0,5.6-4.4,10.4-10.4,10.4H60z"/>
	<path style="fill:#FFFFFF;" d="M144,186.6c-5.6,0-10.4-4.4-10.4-10.4s4.4-10.4,10.4-10.4h32c5.6,0,10.4,4.4,10.4,10.4
		s-4.4,10.4-10.4,10.4H144z"/>
	<path style="fill:#FFFFFF;" d="M144,219c-5.6,0-10.4-4.4-10.4-10.4c0-5.6,4.4-10.4,10.4-10.4h32c5.6,0,10.4,4.4,10.4,10.4
		c0,5.6-4.4,10.4-10.4,10.4H144z"/>
	<path style="fill:#FFFFFF;" d="M144,251.8c-5.6,0-10.4-4.4-10.4-10.4c0-5.6,4.4-10.4,10.4-10.4h32c5.6,0,10.4,4.4,10.4,10.4
		c0,5.6-4.4,10.4-10.4,10.4H144z"/>
	<path style="fill:#FFFFFF;" d="M228,121c-5.6,0-10.4-4.4-10.4-10.4s4.4-10.4,10.4-10.4h32c5.6,0,10.4,4.4,10.4,10.4
		S266,121,260,121H228z"/>
	<path style="fill:#FFFFFF;" d="M228,153.8c-5.6,0-10.4-4.4-10.4-10.4c0-5.6,4.4-10.4,10.4-10.4h32c5.6,0,10.4,4.4,10.4,10.4
		c0,5.6-4.4,10.4-10.4,10.4H228z"/>
	<path style="fill:#FFFFFF;" d="M228,186.6c-5.6,0-10.4-4.4-10.4-10.4s4.4-10.4,10.4-10.4h32c5.6,0,10.4,4.4,10.4,10.4
		s-4.4,10.4-10.4,10.4H228z"/>
	<path style="fill:#FFFFFF;" d="M228,219c-5.6,0-10.4-4.4-10.4-10.4c0-5.6,4.4-10.4,10.4-10.4h32c5.6,0,10.4,4.4,10.4,10.4
		c0,5.6-4.4,10.4-10.4,10.4H228z"/>
	<path style="fill:#FFFFFF;" d="M228,251.8c-5.6,0-10.4-4.4-10.4-10.4c0-5.6,4.4-10.4,10.4-10.4h32c5.6,0,10.4,4.4,10.4,10.4
		c0,5.6-4.4,10.4-10.4,10.4H228z"/>
</g>
<path style="fill:#F6A6A1;" d="M92,88.2H60c-5.6,0-10.4-4.4-10.4-10.4c0-5.6,4.4-10.4,10.4-10.4h32c5.6,0,10.4,4.4,10.4,10.4
	C102,83.8,97.6,88.2,92,88.2z M60,133h32c5.6,0,10.4,4.4,10.4,10.4c0,5.6-4.4,10.4-10.4,10.4H60c-5.6,0-10.4-4.4-10.4-10.4
	C50,137.8,54.4,133,60,133z M60,231.4h32c5.6,0,10.4,4.4,10.4,10.4c0,5.6-4.4,10.4-10.4,10.4H60c-5.6,0-10.4-4.4-10.4-10.4
	C50,235.8,54.4,231.4,60,231.4z M60,198.6h32c5.6,0,10.4,4.4,10.4,10.4c0,5.6-4.4,10.4-10.4,10.4H60c-5.6,0-10.4-4.4-10.4-10.4
	C50,203,54.4,198.6,60,198.6z M92,165.8c5.6,0,10.4,4.4,10.4,10.4S98,186.6,92,186.6H60c-5.6,0-10.4-4.4-10.4-10.4
	S54,165.8,60,165.8H92z M134,241.4c0-5.6,4.4-10.4,10.4-10.4H176c5.6,0,10.4,4.4,10.4,10.4c0,5.6-4.4,10.4-10.4,10.4h-32
	C138.4,251.8,134,247.4,134,241.4z M134,209c0-5.6,4.4-10.4,10.4-10.4H176c5.6,0,10.4,4.4,10.4,10.4c0,5.6-4.4,10.4-10.4,10.4h-32
	C138.4,219,134,214.6,134,209z M228,121c-5.6,0-10.4-4.4-10.4-10.4s4.4-10.4,10.4-10.4h32c5.6,0,10.4,4.4,10.4,10.4S266,121,260,121
	H228z M228,153.8c-5.6,0-10.4-4.4-10.4-10.4c0-5.6,4.4-10.4,10.4-10.4h32c5.6,0,10.4,4.4,10.4,10.4c0,5.6-4.4,10.4-10.4,10.4H228z
	 M228,186.6c-5.6,0-10.4-4.4-10.4-10.4s4.4-10.4,10.4-10.4h32c5.6,0,10.4,4.4,10.4,10.4s-4.4,10.4-10.4,10.4H228z M228,219
	c-5.6,0-10.4-4.4-10.4-10.4c0-5.6,4.4-10.4,10.4-10.4h32c5.6,0,10.4,4.4,10.4,10.4c0,5.6-4.4,10.4-10.4,10.4H228z M228,251.8
	c-5.6,0-10.4-4.4-10.4-10.4c0-5.6,4.4-10.4,10.4-10.4h32c5.6,0,10.4,4.4,10.4,10.4c0,5.6-4.4,10.4-10.4,10.4H228z M176,165.8
	c5.6,0,10.4,4.4,10.4,10.4s-4.4,10.4-10.4,10.4h-32c-5.6,0-10.4-4.4-10.4-10.4s4.4-10.4,10.4-10.4H176z M20.8,78.2v163.2
	c0,10.4,4.4,20,11.2,27.2c6.8,6.8,16.4,11.2,27.2,11.2h202c10.4,0,20-4.4,27.2-11.2c6.8-6.8,11.2-16.4,11.2-27.2V78.2
	c0-10.4-4.4-20-11.2-27.2c-6.8-6.8-16.4-11.2-27.2-11.2H58.8c-10.4,0-20,4.4-27.2,11.2C24.8,57.8,20.8,67.4,20.8,78.2z M92,100.6
	c5.6,0,10.4,4.4,10.4,10.4S98,121.4,92,121.4H60c-5.6,0-10.4-4.4-10.4-10.4S54,100.6,60,100.6H92z"/>
<path style="fill:#5F717F;" d="M58.8,300.2h202c16.4,0,30.8-6.8,41.6-17.2c10.8-10.8,17.2-25.6,17.2-41.6V78.2
	c0-16.4-6.8-30.8-17.2-41.6c-10.8-10.8-25.6-17.2-41.6-17.2h-202c-16.4,0-30.8,6.8-41.6,17.2C6.4,47.4,0,62.2,0,78.2v163.2
	c0,16.4,6.8,30.8,17.2,41.6C28,293.8,42.8,300.2,58.8,300.2z M20.8,78.2c0-10.4,4.4-20,11.2-27.2c6.8-6.8,16.4-11.2,27.2-11.2h202
	c10.4,0,20,4.4,27.2,11.2c6.8,6.8,11.2,16.4,11.2,27.2v163.2c0,10.4-4.4,20-11.2,27.2c-6.8,6.8-16.4,11.2-27.2,11.2H58.8
	c-10.4,0-20-4.4-27.2-11.2c-6.8-6.8-11.2-16.4-11.2-27.2V78.2H20.8z"/>
<g>
</g>
<g>
</g>
<g>
</g>
<g>
</g>
<g>
</g>
<g>
</g>
<g>
</g>
<g>
</g>
<g>
</g>
<g>
</g>
<g>
</g>
<g>
</g>
<g>
</g>
<g>
</g>
<g>
</g>
</svg>
