<?xml version="1.0" encoding="iso-8859-1"?>
<!-- Generator: Adobe Illustrator 19.0.0, SVG Export Plug-In . SVG Version: 6.00 Build 0)  -->
<svg version="1.1" id="Capa_1" xmlns="http://www.w3.org/2000/svg" xmlns:xlink="http://www.w3.org/1999/xlink" x="0px" y="0px"
	 viewBox="0 0 342 342" style="enable-background:new 0 0 342 342;" xml:space="preserve">
<g>
	<path style="fill:#BEDEF4;" d="M226.197,116c23.2,23.2,28.8,58,16,86.4l61.2,40c30.8-56.8,22.4-130-26-178
		c-48-48-120.8-56.8-178-25.6l40.4,61.2C168.197,87.2,202.997,92.4,226.197,116z"/>
	<path style="fill:#FFFFFF;" d="M292.597,260l-60.8-40c-1.6,2-3.6,4-5.2,6c-2,2-4,3.6-6,5.2l40,60.8c6-4.4,11.6-9.2,17.2-14.8
		C282.997,271.6,288.197,266,292.597,260z"/>
	<path style="fill:#BEDEF4;" d="M242.997,302.8l-40-60.8c-10,4.4-20.8,6.8-31.6,6.8l0,0c-42.8,0-77.6-34.8-77.6-77.6l0,0
		c0-10.8,2.4-21.6,6.8-31.6l-61.2-40.8c-31.2,57.2-22.4,130,25.6,178.4C113.397,325.2,186.197,334,242.997,302.8z"/>
	<g>
		<path style="fill:#FFFFFF;" d="M111.397,121.6c1.6-2,3.2-4,5.2-5.6c2-2,3.6-3.6,5.6-5.2l-40-60.8c-6,4.4-11.6,9.2-16.8,14.8
			c-5.2,5.2-10.4,11.2-14.8,16.8L111.397,121.6z"/>
		<path style="fill:#FFFFFF;" d="M146.197,145.6c6.8-6.8,16-10.4,25.2-10.4c9.2,0,18,3.6,25.2,10.4c6.8,6.8,10.4,16,10.4,25.2
			c0,9.2-3.6,18-10.4,25.2c-6.8,6.8-16,10.4-25.2,10.4c-9.2,0-18-3.6-25.2-10.4c-6.8-6.8-10.4-16-10.4-25.2
			C135.797,161.6,139.397,152.8,146.197,145.6L146.197,145.6L146.197,145.6z M171.397,113.6c-14.8,0-29.2,5.6-40.4,16.8
			s-16.8,25.6-16.8,40.4l0,0c0,31.6,25.6,57.2,57.2,57.2l0,0c9.6,0,18.4-2.4,26.4-6.4c0.8-0.8,1.6-1.6,2.4-2
			c1.2-0.8,2.4-1.2,3.6-1.6c5.6-4,10.4-8.8,14.4-14.4c0.4-1.2,0.8-2.4,1.6-3.6c0.8-0.8,1.2-1.6,2-2.4c4-8,6.4-16.8,6.4-26.4
			C228.597,139.2,202.997,113.6,171.397,113.6z"/>
	</g>
</g>
<g>
	<path style="fill:#5F717F;" d="M292.197,50L292.197,50c-33.2-33.2-77.2-50-120.8-50c-30.8,0-61.6,8.4-88.8,25.2
		c-1.2,0.4-2.4,0.8-3.6,1.6c-0.8,0.4-1.2,1.2-1.6,1.6c-9.6,6.4-18.4,13.6-26.8,22l0,0l0,0c-8.4,8.4-15.6,17.2-22,26.8
		c-0.4,0.4-1.2,0.8-1.6,1.6c-0.8,1.2-1.2,2.4-1.6,3.6c-16.8,27.2-25.2,58-25.2,88.8c0,43.6,16.8,87.6,50,120.8l0,0l0,0
		c33.2,33.2,77.2,50,120.8,50s87.6-16.8,120.8-50l0,0l0,0c33.2-33.2,50-77.2,50-120.8C342.197,127.2,325.397,83.2,292.197,50
		L292.197,50z M64.997,64.4L64.997,64.4c5.2-5.2,11.2-10,17.2-14.4l40.4,60.8c-2,1.6-4,3.2-6,4.8l0,0l0,0c-2,2-3.2,4-4.8,6l-61.2-40
		C54.997,75.6,59.797,70,64.997,64.4L64.997,64.4z M220.997,198.4c-0.4,0.4-0.8,0.8-1.2,1.2c-0.8,1.2-1.2,2-1.2,3.2
		c-2,2.8-4,5.6-6.8,8.4l0,0l0,0c-2.4,2.4-5.2,4.8-8.4,6.8c-1.2,0.4-2.4,0.8-3.2,1.2c-0.4,0.4-0.8,0.8-1.2,1.2
		c-8.4,4.8-18,7.2-27.6,7.2l0,0c-14.4,0-29.2-5.6-40.4-16.8l0,0l0,0c-11.2-11.2-16.8-25.6-16.8-40.4l0,0c0-14.4,5.6-29.2,16.8-40.4
		l0,0l0,0c11.2-11.2,25.6-16.8,40.4-16.8s29.2,5.6,40.4,16.8l0,0l0,0c11.2,11.2,16.8,25.6,16.8,40.4
		C228.597,180.4,225.797,189.6,220.997,198.4z M64.997,277.2L64.997,277.2L64.997,277.2c-29.2-29.2-44-68-44-106.4
		c0-24.8,6-49.6,18.4-72l61.2,40.4c-4.4,10-6.8,20.8-6.8,31.6l0,0c0,20,7.6,39.6,22.8,54.8l0,0l0,0c15.2,15.2,35.2,22.8,54.8,22.8
		l0,0c10.8,0,21.2-2.4,31.2-6.8l40.4,61.2c-22.4,12-46.8,18.4-71.6,18.4C132.997,321.2,94.597,306.4,64.997,277.2z M277.797,277.2
		L277.797,277.2L277.797,277.2c-5.6,5.6-11.2,10.4-17.2,14.8l-40.4-61.2c2-1.6,4.4-3.2,6-5.2l0,0l0,0c2-2,3.2-4,5.2-6l60.8,40.4
		C287.797,265.6,282.997,271.6,277.797,277.2z M303.397,242.4l-61.2-40.4c4.4-10,6.8-20.8,6.8-31.2c0-20-7.6-39.6-22.8-54.8l0,0l0,0
		c-15.2-15.2-35.2-22.8-54.8-22.8c-10.8,0-21.6,2.4-31.6,6.8l-40.4-61.2c22.4-12.4,47.2-18.4,72-18.4c38.4,0,76.8,14.8,106.4,44l0,0
		l0,0c29.2,29.2,44,68,44,106.4C321.797,195.6,315.397,220.4,303.397,242.4z"/>
	<path style="fill:#5F717F;" d="M171.397,135.2c-9.2,0-18,3.6-25.2,10.4l0,0l0,0l0,0c-6.8,6.8-10.4,16-10.4,25.2s3.6,18,10.4,25.2
		l0,0c6.8,6.8,16,10.4,25.2,10.4c9.2,0,18-3.6,25.2-10.4c6.8-6.8,10.4-16,10.4-25.2s-3.6-18-10.4-25.2
		C189.397,138.8,180.597,135.2,171.397,135.2z M182.197,181.6c-2.8,2.8-6.8,4.4-10.8,4.4s-7.6-1.6-10.8-4.4l0,0
		c-2.8-2.8-4.4-6.8-4.4-10.8c0-4,1.6-7.6,4.4-10.8l0,0l0,0c2.8-2.8,6.8-4.4,10.8-4.4c4,0,7.6,1.6,10.8,4.4c2.8,2.8,4.4,6.8,4.4,10.8
		C186.197,174.8,184.997,178.4,182.197,181.6z"/>
</g>
<g>
</g>
<g>
</g>
<g>
</g>
<g>
</g>
<g>
</g>
<g>
</g>
<g>
</g>
<g>
</g>
<g>
</g>
<g>
</g>
<g>
</g>
<g>
</g>
<g>
</g>
<g>
</g>
<g>
</g>
</svg>
